<?xml version="1.0" encoding="utf-8" standalone="no"?>
<!DOCTYPE svg PUBLIC "-//W3C//DTD SVG 1.1//EN"
  "http://www.w3.org/Graphics/SVG/1.1/DTD/svg11.dtd">
<svg xmlns:xlink="http://www.w3.org/1999/xlink" width="1000.122188pt" height="711.834062pt" viewBox="0 0 1000.122188 711.834062" xmlns="http://www.w3.org/2000/svg" version="1.1">
 <metadata>
  <rdf:RDF xmlns:dc="http://purl.org/dc/elements/1.1/" xmlns:cc="http://creativecommons.org/ns#" xmlns:rdf="http://www.w3.org/1999/02/22-rdf-syntax-ns#">
   <cc:Work>
    <dc:type rdf:resource="http://purl.org/dc/dcmitype/StillImage"/>
    <dc:date>2025-09-15T13:21:07.931140</dc:date>
    <dc:format>image/svg+xml</dc:format>
    <dc:creator>
     <cc:Agent>
      <dc:title>Matplotlib v3.10.5, https://matplotlib.org/</dc:title>
     </cc:Agent>
    </dc:creator>
   </cc:Work>
  </rdf:RDF>
 </metadata>
 <defs>
  <style type="text/css">*{stroke-linejoin: round; stroke-linecap: butt}</style>
 </defs>
 <g id="figure_1">
  <g id="patch_1">
   <path d="M 0 711.834062 
L 1000.122188 711.834062 
L 1000.122188 0 
L 0 0 
z
" style="fill: #ffffff"/>
  </g>
  <g id="axes_1">
   <g id="patch_2">
    <path d="M 73.142188 319.677812 
L 992.922188 319.677812 
L 992.922188 23.837812 
L 73.142188 23.837812 
z
" style="fill: #ffffff"/>
   </g>
   <g id="patch_3">
    <path d="M 399.418411 319.677812 
L 416.658898 319.677812 
L 416.658898 207.913284 
L 399.418411 207.913284 
z
" clip-path="url(#p126a3c9a02)" style="fill: #87ceeb; opacity: 0.7"/>
   </g>
   <g id="patch_4">
    <path d="M 485.620847 319.677812 
L 502.861335 319.677812 
L 502.861335 37.925432 
L 485.620847 37.925432 
z
" clip-path="url(#p126a3c9a02)" style="fill: #87ceeb; opacity: 0.7"/>
   </g>
   <g id="patch_5">
    <path d="M 571.823284 319.677812 
L 589.063771 319.677812 
L 589.063771 88.182417 
L 571.823284 88.182417 
z
" clip-path="url(#p126a3c9a02)" style="fill: #87ceeb; opacity: 0.7"/>
   </g>
   <g id="patch_6">
    <path d="M 614.924502 319.677812 
L 632.16499 319.677812 
L 632.16499 88.182417 
L 614.924502 88.182417 
z
" clip-path="url(#p126a3c9a02)" style="fill: #87ceeb; opacity: 0.7"/>
   </g>
   <g id="patch_7">
    <path d="M 658.025721 319.677812 
L 675.266208 319.677812 
L 675.266208 67.028672 
L 658.025721 67.028672 
z
" clip-path="url(#p126a3c9a02)" style="fill: #87ceeb; opacity: 0.7"/>
   </g>
   <g id="patch_8">
    <path d="M 701.126939 319.677812 
L 718.367426 319.677812 
L 718.367426 67.028672 
L 701.126939 67.028672 
z
" clip-path="url(#p126a3c9a02)" style="fill: #87ceeb; opacity: 0.7"/>
   </g>
   <g id="patch_9">
    <path d="M 744.228158 319.677812 
L 761.468645 319.677812 
L 761.468645 110.094058 
L 744.228158 110.094058 
z
" clip-path="url(#p126a3c9a02)" style="fill: #87ceeb; opacity: 0.7"/>
   </g>
   <g id="patch_10">
    <path d="M 787.329376 319.677812 
L 804.569863 319.677812 
L 804.569863 110.094058 
L 787.329376 110.094058 
z
" clip-path="url(#p126a3c9a02)" style="fill: #87ceeb; opacity: 0.7"/>
   </g>
   <g id="patch_11">
    <path d="M 873.531813 319.677812 
L 890.7723 319.677812 
L 890.7723 205.016433 
L 873.531813 205.016433 
z
" clip-path="url(#p126a3c9a02)" style="fill: #87ceeb; opacity: 0.7"/>
   </g>
   <g id="patch_12">
    <path d="M 916.633031 319.677812 
L 933.873518 319.677812 
L 933.873518 205.016433 
L 916.633031 205.016433 
z
" clip-path="url(#p126a3c9a02)" style="fill: #87ceeb; opacity: 0.7"/>
   </g>
   <g id="patch_13">
    <path d="M 114.950369 319.677812 
L 132.190857 319.677812 
L 132.190857 312.098844 
L 114.950369 312.098844 
z
" clip-path="url(#p126a3c9a02)" style="fill: #f08080; opacity: 0.7"/>
   </g>
   <g id="patch_14">
    <path d="M 158.051588 319.677812 
L 175.292075 319.677812 
L 175.292075 312.098844 
L 158.051588 312.098844 
z
" clip-path="url(#p126a3c9a02)" style="fill: #f08080; opacity: 0.7"/>
   </g>
   <g id="patch_15">
    <path d="M 201.152806 319.677812 
L 218.393293 319.677812 
L 218.393293 312.098844 
L 201.152806 312.098844 
z
" clip-path="url(#p126a3c9a02)" style="fill: #f08080; opacity: 0.7"/>
   </g>
   <g id="patch_16">
    <path d="M 244.254024 319.677812 
L 261.494512 319.677812 
L 261.494512 312.098844 
L 244.254024 312.098844 
z
" clip-path="url(#p126a3c9a02)" style="fill: #f08080; opacity: 0.7"/>
   </g>
   <g id="patch_17">
    <path d="M 287.355243 319.677812 
L 304.59573 319.677812 
L 304.59573 312.098844 
L 287.355243 312.098844 
z
" clip-path="url(#p126a3c9a02)" style="fill: #f08080; opacity: 0.7"/>
   </g>
   <g id="patch_18">
    <path d="M 330.456461 319.677812 
L 347.696949 319.677812 
L 347.696949 312.098844 
L 330.456461 312.098844 
z
" clip-path="url(#p126a3c9a02)" style="fill: #f08080; opacity: 0.7"/>
   </g>
   <g id="patch_19">
    <path d="M 373.55768 319.677812 
L 390.798167 319.677812 
L 390.798167 312.098844 
L 373.55768 312.098844 
z
" clip-path="url(#p126a3c9a02)" style="fill: #f08080; opacity: 0.7"/>
   </g>
   <g id="patch_20">
    <path d="M 416.658898 319.677812 
L 433.899385 319.677812 
L 433.899385 312.098844 
L 416.658898 312.098844 
z
" clip-path="url(#p126a3c9a02)" style="fill: #f08080; opacity: 0.7"/>
   </g>
   <g id="patch_21">
    <path d="M 459.760116 319.677812 
L 477.000604 319.677812 
L 477.000604 312.098844 
L 459.760116 312.098844 
z
" clip-path="url(#p126a3c9a02)" style="fill: #f08080; opacity: 0.7"/>
   </g>
   <g id="patch_22">
    <path d="M 502.861335 319.677812 
L 520.101822 319.677812 
L 520.101822 312.098844 
L 502.861335 312.098844 
z
" clip-path="url(#p126a3c9a02)" style="fill: #f08080; opacity: 0.7"/>
   </g>
   <g id="patch_23">
    <path d="M 545.962553 319.677812 
L 563.20304 319.677812 
L 563.20304 312.098844 
L 545.962553 312.098844 
z
" clip-path="url(#p126a3c9a02)" style="fill: #f08080; opacity: 0.7"/>
   </g>
   <g id="patch_24">
    <path d="M 589.063771 319.677812 
L 606.304259 319.677812 
L 606.304259 312.098844 
L 589.063771 312.098844 
z
" clip-path="url(#p126a3c9a02)" style="fill: #f08080; opacity: 0.7"/>
   </g>
   <g id="patch_25">
    <path d="M 632.16499 319.677812 
L 649.405477 319.677812 
L 649.405477 312.098844 
L 632.16499 312.098844 
z
" clip-path="url(#p126a3c9a02)" style="fill: #f08080; opacity: 0.7"/>
   </g>
   <g id="patch_26">
    <path d="M 675.266208 319.677812 
L 692.506695 319.677812 
L 692.506695 312.098844 
L 675.266208 312.098844 
z
" clip-path="url(#p126a3c9a02)" style="fill: #f08080; opacity: 0.7"/>
   </g>
   <g id="patch_27">
    <path d="M 718.367426 319.677812 
L 735.607914 319.677812 
L 735.607914 312.098844 
L 718.367426 312.098844 
z
" clip-path="url(#p126a3c9a02)" style="fill: #f08080; opacity: 0.7"/>
   </g>
   <g id="patch_28">
    <path d="M 761.468645 319.677812 
L 778.709132 319.677812 
L 778.709132 312.098844 
L 761.468645 312.098844 
z
" clip-path="url(#p126a3c9a02)" style="fill: #f08080; opacity: 0.7"/>
   </g>
   <g id="patch_29">
    <path d="M 804.569863 319.677812 
L 821.810351 319.677812 
L 821.810351 312.098844 
L 804.569863 312.098844 
z
" clip-path="url(#p126a3c9a02)" style="fill: #f08080; opacity: 0.7"/>
   </g>
   <g id="patch_30">
    <path d="M 847.671082 319.677812 
L 864.911569 319.677812 
L 864.911569 312.098844 
L 847.671082 312.098844 
z
" clip-path="url(#p126a3c9a02)" style="fill: #f08080; opacity: 0.7"/>
   </g>
   <g id="patch_31">
    <path d="M 890.7723 319.677812 
L 908.012787 319.677812 
L 908.012787 312.098844 
L 890.7723 312.098844 
z
" clip-path="url(#p126a3c9a02)" style="fill: #f08080; opacity: 0.7"/>
   </g>
   <g id="patch_32">
    <path d="M 933.873518 319.677812 
L 951.114006 319.677812 
L 951.114006 312.098844 
L 933.873518 312.098844 
z
" clip-path="url(#p126a3c9a02)" style="fill: #f08080; opacity: 0.7"/>
   </g>
   <g id="matplotlib.axis_1">
    <g id="xtick_1">
     <g id="line2d_1">
      <defs>
       <path id="mf7a6ad9501" d="M 0 0 
L 0 3.5 
" style="stroke: #000000; stroke-width: 0.8"/>
      </defs>
      <g>
       <use xlink:href="#mf7a6ad9501" x="136.500979" y="319.677812" style="stroke: #000000; stroke-width: 0.8"/>
      </g>
     </g>
     <g id="text_1">
      <!-- 2002.5 -->
      <g transform="translate(119.005666 334.27625) scale(0.1 -0.1)">
       <defs>
        <path id="DejaVuSans-32" d="M 1228 531 
L 3431 531 
L 3431 0 
L 469 0 
L 469 531 
Q 828 903 1448 1529 
Q 2069 2156 2228 2338 
Q 2531 2678 2651 2914 
Q 2772 3150 2772 3378 
Q 2772 3750 2511 3984 
Q 2250 4219 1831 4219 
Q 1534 4219 1204 4116 
Q 875 4013 500 3803 
L 500 4441 
Q 881 4594 1212 4672 
Q 1544 4750 1819 4750 
Q 2544 4750 2975 4387 
Q 3406 4025 3406 3419 
Q 3406 3131 3298 2873 
Q 3191 2616 2906 2266 
Q 2828 2175 2409 1742 
Q 1991 1309 1228 531 
z
" transform="scale(0.015625)"/>
        <path id="DejaVuSans-30" d="M 2034 4250 
Q 1547 4250 1301 3770 
Q 1056 3291 1056 2328 
Q 1056 1369 1301 889 
Q 1547 409 2034 409 
Q 2525 409 2770 889 
Q 3016 1369 3016 2328 
Q 3016 3291 2770 3770 
Q 2525 4250 2034 4250 
z
M 2034 4750 
Q 2819 4750 3233 4129 
Q 3647 3509 3647 2328 
Q 3647 1150 3233 529 
Q 2819 -91 2034 -91 
Q 1250 -91 836 529 
Q 422 1150 422 2328 
Q 422 3509 836 4129 
Q 1250 4750 2034 4750 
z
" transform="scale(0.015625)"/>
        <path id="DejaVuSans-2e" d="M 684 794 
L 1344 794 
L 1344 0 
L 684 0 
L 684 794 
z
" transform="scale(0.015625)"/>
        <path id="DejaVuSans-35" d="M 691 4666 
L 3169 4666 
L 3169 4134 
L 1269 4134 
L 1269 2991 
Q 1406 3038 1543 3061 
Q 1681 3084 1819 3084 
Q 2600 3084 3056 2656 
Q 3513 2228 3513 1497 
Q 3513 744 3044 326 
Q 2575 -91 1722 -91 
Q 1428 -91 1123 -41 
Q 819 9 494 109 
L 494 744 
Q 775 591 1075 516 
Q 1375 441 1709 441 
Q 2250 441 2565 725 
Q 2881 1009 2881 1497 
Q 2881 1984 2565 2268 
Q 2250 2553 1709 2553 
Q 1456 2553 1204 2497 
Q 953 2441 691 2322 
L 691 4666 
z
" transform="scale(0.015625)"/>
       </defs>
       <use xlink:href="#DejaVuSans-32"/>
       <use xlink:href="#DejaVuSans-30" transform="translate(63.623047 0)"/>
       <use xlink:href="#DejaVuSans-30" transform="translate(127.246094 0)"/>
       <use xlink:href="#DejaVuSans-32" transform="translate(190.869141 0)"/>
       <use xlink:href="#DejaVuSans-2e" transform="translate(254.492188 0)"/>
       <use xlink:href="#DejaVuSans-35" transform="translate(286.279297 0)"/>
      </g>
     </g>
    </g>
    <g id="xtick_2">
     <g id="line2d_2">
      <g>
       <use xlink:href="#mf7a6ad9501" x="244.254024" y="319.677812" style="stroke: #000000; stroke-width: 0.8"/>
      </g>
     </g>
     <g id="text_2">
      <!-- 2005.0 -->
      <g transform="translate(226.758712 334.27625) scale(0.1 -0.1)">
       <use xlink:href="#DejaVuSans-32"/>
       <use xlink:href="#DejaVuSans-30" transform="translate(63.623047 0)"/>
       <use xlink:href="#DejaVuSans-30" transform="translate(127.246094 0)"/>
       <use xlink:href="#DejaVuSans-35" transform="translate(190.869141 0)"/>
       <use xlink:href="#DejaVuSans-2e" transform="translate(254.492188 0)"/>
       <use xlink:href="#DejaVuSans-30" transform="translate(286.279297 0)"/>
      </g>
     </g>
    </g>
    <g id="xtick_3">
     <g id="line2d_3">
      <g>
       <use xlink:href="#mf7a6ad9501" x="352.00707" y="319.677812" style="stroke: #000000; stroke-width: 0.8"/>
      </g>
     </g>
     <g id="text_3">
      <!-- 2007.5 -->
      <g transform="translate(334.511758 334.27625) scale(0.1 -0.1)">
       <defs>
        <path id="DejaVuSans-37" d="M 525 4666 
L 3525 4666 
L 3525 4397 
L 1831 0 
L 1172 0 
L 2766 4134 
L 525 4134 
L 525 4666 
z
" transform="scale(0.015625)"/>
       </defs>
       <use xlink:href="#DejaVuSans-32"/>
       <use xlink:href="#DejaVuSans-30" transform="translate(63.623047 0)"/>
       <use xlink:href="#DejaVuSans-30" transform="translate(127.246094 0)"/>
       <use xlink:href="#DejaVuSans-37" transform="translate(190.869141 0)"/>
       <use xlink:href="#DejaVuSans-2e" transform="translate(254.492188 0)"/>
       <use xlink:href="#DejaVuSans-35" transform="translate(286.279297 0)"/>
      </g>
     </g>
    </g>
    <g id="xtick_4">
     <g id="line2d_4">
      <g>
       <use xlink:href="#mf7a6ad9501" x="459.760116" y="319.677812" style="stroke: #000000; stroke-width: 0.8"/>
      </g>
     </g>
     <g id="text_4">
      <!-- 2010.0 -->
      <g transform="translate(442.264804 334.27625) scale(0.1 -0.1)">
       <defs>
        <path id="DejaVuSans-31" d="M 794 531 
L 1825 531 
L 1825 4091 
L 703 3866 
L 703 4441 
L 1819 4666 
L 2450 4666 
L 2450 531 
L 3481 531 
L 3481 0 
L 794 0 
L 794 531 
z
" transform="scale(0.015625)"/>
       </defs>
       <use xlink:href="#DejaVuSans-32"/>
       <use xlink:href="#DejaVuSans-30" transform="translate(63.623047 0)"/>
       <use xlink:href="#DejaVuSans-31" transform="translate(127.246094 0)"/>
       <use xlink:href="#DejaVuSans-30" transform="translate(190.869141 0)"/>
       <use xlink:href="#DejaVuSans-2e" transform="translate(254.492188 0)"/>
       <use xlink:href="#DejaVuSans-30" transform="translate(286.279297 0)"/>
      </g>
     </g>
    </g>
    <g id="xtick_5">
     <g id="line2d_5">
      <g>
       <use xlink:href="#mf7a6ad9501" x="567.513162" y="319.677812" style="stroke: #000000; stroke-width: 0.8"/>
      </g>
     </g>
     <g id="text_5">
      <!-- 2012.5 -->
      <g transform="translate(550.01785 334.27625) scale(0.1 -0.1)">
       <use xlink:href="#DejaVuSans-32"/>
       <use xlink:href="#DejaVuSans-30" transform="translate(63.623047 0)"/>
       <use xlink:href="#DejaVuSans-31" transform="translate(127.246094 0)"/>
       <use xlink:href="#DejaVuSans-32" transform="translate(190.869141 0)"/>
       <use xlink:href="#DejaVuSans-2e" transform="translate(254.492188 0)"/>
       <use xlink:href="#DejaVuSans-35" transform="translate(286.279297 0)"/>
      </g>
     </g>
    </g>
    <g id="xtick_6">
     <g id="line2d_6">
      <g>
       <use xlink:href="#mf7a6ad9501" x="675.266208" y="319.677812" style="stroke: #000000; stroke-width: 0.8"/>
      </g>
     </g>
     <g id="text_6">
      <!-- 2015.0 -->
      <g transform="translate(657.770896 334.27625) scale(0.1 -0.1)">
       <use xlink:href="#DejaVuSans-32"/>
       <use xlink:href="#DejaVuSans-30" transform="translate(63.623047 0)"/>
       <use xlink:href="#DejaVuSans-31" transform="translate(127.246094 0)"/>
       <use xlink:href="#DejaVuSans-35" transform="translate(190.869141 0)"/>
       <use xlink:href="#DejaVuSans-2e" transform="translate(254.492188 0)"/>
       <use xlink:href="#DejaVuSans-30" transform="translate(286.279297 0)"/>
      </g>
     </g>
    </g>
    <g id="xtick_7">
     <g id="line2d_7">
      <g>
       <use xlink:href="#mf7a6ad9501" x="783.019254" y="319.677812" style="stroke: #000000; stroke-width: 0.8"/>
      </g>
     </g>
     <g id="text_7">
      <!-- 2017.5 -->
      <g transform="translate(765.523942 334.27625) scale(0.1 -0.1)">
       <use xlink:href="#DejaVuSans-32"/>
       <use xlink:href="#DejaVuSans-30" transform="translate(63.623047 0)"/>
       <use xlink:href="#DejaVuSans-31" transform="translate(127.246094 0)"/>
       <use xlink:href="#DejaVuSans-37" transform="translate(190.869141 0)"/>
       <use xlink:href="#DejaVuSans-2e" transform="translate(254.492188 0)"/>
       <use xlink:href="#DejaVuSans-35" transform="translate(286.279297 0)"/>
      </g>
     </g>
    </g>
    <g id="xtick_8">
     <g id="line2d_8">
      <g>
       <use xlink:href="#mf7a6ad9501" x="890.7723" y="319.677812" style="stroke: #000000; stroke-width: 0.8"/>
      </g>
     </g>
     <g id="text_8">
      <!-- 2020.0 -->
      <g transform="translate(873.276987 334.27625) scale(0.1 -0.1)">
       <use xlink:href="#DejaVuSans-32"/>
       <use xlink:href="#DejaVuSans-30" transform="translate(63.623047 0)"/>
       <use xlink:href="#DejaVuSans-32" transform="translate(127.246094 0)"/>
       <use xlink:href="#DejaVuSans-30" transform="translate(190.869141 0)"/>
       <use xlink:href="#DejaVuSans-2e" transform="translate(254.492188 0)"/>
       <use xlink:href="#DejaVuSans-30" transform="translate(286.279297 0)"/>
      </g>
     </g>
    </g>
    <g id="text_9">
     <!-- Year -->
     <g transform="translate(522.444688 347.954375) scale(0.1 -0.1)">
      <defs>
       <path id="DejaVuSans-59" d="M -13 4666 
L 666 4666 
L 1959 2747 
L 3244 4666 
L 3922 4666 
L 2272 2222 
L 2272 0 
L 1638 0 
L 1638 2222 
L -13 4666 
z
" transform="scale(0.015625)"/>
       <path id="DejaVuSans-65" d="M 3597 1894 
L 3597 1613 
L 953 1613 
Q 991 1019 1311 708 
Q 1631 397 2203 397 
Q 2534 397 2845 478 
Q 3156 559 3463 722 
L 3463 178 
Q 3153 47 2828 -22 
Q 2503 -91 2169 -91 
Q 1331 -91 842 396 
Q 353 884 353 1716 
Q 353 2575 817 3079 
Q 1281 3584 2069 3584 
Q 2775 3584 3186 3129 
Q 3597 2675 3597 1894 
z
M 3022 2063 
Q 3016 2534 2758 2815 
Q 2500 3097 2075 3097 
Q 1594 3097 1305 2825 
Q 1016 2553 972 2059 
L 3022 2063 
z
" transform="scale(0.015625)"/>
       <path id="DejaVuSans-61" d="M 2194 1759 
Q 1497 1759 1228 1600 
Q 959 1441 959 1056 
Q 959 750 1161 570 
Q 1363 391 1709 391 
Q 2188 391 2477 730 
Q 2766 1069 2766 1631 
L 2766 1759 
L 2194 1759 
z
M 3341 1997 
L 3341 0 
L 2766 0 
L 2766 531 
Q 2569 213 2275 61 
Q 1981 -91 1556 -91 
Q 1019 -91 701 211 
Q 384 513 384 1019 
Q 384 1609 779 1909 
Q 1175 2209 1959 2209 
L 2766 2209 
L 2766 2266 
Q 2766 2663 2505 2880 
Q 2244 3097 1772 3097 
Q 1472 3097 1187 3025 
Q 903 2953 641 2809 
L 641 3341 
Q 956 3463 1253 3523 
Q 1550 3584 1831 3584 
Q 2591 3584 2966 3190 
Q 3341 2797 3341 1997 
z
" transform="scale(0.015625)"/>
       <path id="DejaVuSans-72" d="M 2631 2963 
Q 2534 3019 2420 3045 
Q 2306 3072 2169 3072 
Q 1681 3072 1420 2755 
Q 1159 2438 1159 1844 
L 1159 0 
L 581 0 
L 581 3500 
L 1159 3500 
L 1159 2956 
Q 1341 3275 1631 3429 
Q 1922 3584 2338 3584 
Q 2397 3584 2469 3576 
Q 2541 3569 2628 3553 
L 2631 2963 
z
" transform="scale(0.015625)"/>
      </defs>
      <use xlink:href="#DejaVuSans-59"/>
      <use xlink:href="#DejaVuSans-65" transform="translate(47.833984 0)"/>
      <use xlink:href="#DejaVuSans-61" transform="translate(109.357422 0)"/>
      <use xlink:href="#DejaVuSans-72" transform="translate(170.636719 0)"/>
     </g>
    </g>
   </g>
   <g id="matplotlib.axis_2">
    <g id="ytick_1">
     <g id="line2d_9">
      <path d="M 73.142188 319.677812 
L 992.922188 319.677812 
" clip-path="url(#p126a3c9a02)" style="fill: none; stroke: #b0b0b0; stroke-opacity: 0.3; stroke-width: 0.8; stroke-linecap: square"/>
     </g>
     <g id="line2d_10">
      <defs>
       <path id="me8f4f5352a" d="M 0 0 
L -3.5 0 
" style="stroke: #000000; stroke-width: 0.8"/>
      </defs>
      <g>
       <use xlink:href="#me8f4f5352a" x="73.142188" y="319.677812" style="stroke: #000000; stroke-width: 0.8"/>
      </g>
     </g>
     <g id="text_10">
      <!-- 0 -->
      <g transform="translate(59.779688 323.477031) scale(0.1 -0.1)">
       <use xlink:href="#DejaVuSans-30"/>
      </g>
     </g>
    </g>
    <g id="ytick_2">
     <g id="line2d_11">
      <path d="M 73.142188 285.993506 
L 992.922188 285.993506 
" clip-path="url(#p126a3c9a02)" style="fill: none; stroke: #b0b0b0; stroke-opacity: 0.3; stroke-width: 0.8; stroke-linecap: square"/>
     </g>
     <g id="line2d_12">
      <g>
       <use xlink:href="#me8f4f5352a" x="73.142188" y="285.993506" style="stroke: #000000; stroke-width: 0.8"/>
      </g>
     </g>
     <g id="text_11">
      <!-- 2000 -->
      <g transform="translate(40.692188 289.792725) scale(0.1 -0.1)">
       <use xlink:href="#DejaVuSans-32"/>
       <use xlink:href="#DejaVuSans-30" transform="translate(63.623047 0)"/>
       <use xlink:href="#DejaVuSans-30" transform="translate(127.246094 0)"/>
       <use xlink:href="#DejaVuSans-30" transform="translate(190.869141 0)"/>
      </g>
     </g>
    </g>
    <g id="ytick_3">
     <g id="line2d_13">
      <path d="M 73.142188 252.3092 
L 992.922188 252.3092 
" clip-path="url(#p126a3c9a02)" style="fill: none; stroke: #b0b0b0; stroke-opacity: 0.3; stroke-width: 0.8; stroke-linecap: square"/>
     </g>
     <g id="line2d_14">
      <g>
       <use xlink:href="#me8f4f5352a" x="73.142188" y="252.3092" style="stroke: #000000; stroke-width: 0.8"/>
      </g>
     </g>
     <g id="text_12">
      <!-- 4000 -->
      <g transform="translate(40.692188 256.108418) scale(0.1 -0.1)">
       <defs>
        <path id="DejaVuSans-34" d="M 2419 4116 
L 825 1625 
L 2419 1625 
L 2419 4116 
z
M 2253 4666 
L 3047 4666 
L 3047 1625 
L 3713 1625 
L 3713 1100 
L 3047 1100 
L 3047 0 
L 2419 0 
L 2419 1100 
L 313 1100 
L 313 1709 
L 2253 4666 
z
" transform="scale(0.015625)"/>
       </defs>
       <use xlink:href="#DejaVuSans-34"/>
       <use xlink:href="#DejaVuSans-30" transform="translate(63.623047 0)"/>
       <use xlink:href="#DejaVuSans-30" transform="translate(127.246094 0)"/>
       <use xlink:href="#DejaVuSans-30" transform="translate(190.869141 0)"/>
      </g>
     </g>
    </g>
    <g id="ytick_4">
     <g id="line2d_15">
      <path d="M 73.142188 218.624893 
L 992.922188 218.624893 
" clip-path="url(#p126a3c9a02)" style="fill: none; stroke: #b0b0b0; stroke-opacity: 0.3; stroke-width: 0.8; stroke-linecap: square"/>
     </g>
     <g id="line2d_16">
      <g>
       <use xlink:href="#me8f4f5352a" x="73.142188" y="218.624893" style="stroke: #000000; stroke-width: 0.8"/>
      </g>
     </g>
     <g id="text_13">
      <!-- 6000 -->
      <g transform="translate(40.692188 222.424112) scale(0.1 -0.1)">
       <defs>
        <path id="DejaVuSans-36" d="M 2113 2584 
Q 1688 2584 1439 2293 
Q 1191 2003 1191 1497 
Q 1191 994 1439 701 
Q 1688 409 2113 409 
Q 2538 409 2786 701 
Q 3034 994 3034 1497 
Q 3034 2003 2786 2293 
Q 2538 2584 2113 2584 
z
M 3366 4563 
L 3366 3988 
Q 3128 4100 2886 4159 
Q 2644 4219 2406 4219 
Q 1781 4219 1451 3797 
Q 1122 3375 1075 2522 
Q 1259 2794 1537 2939 
Q 1816 3084 2150 3084 
Q 2853 3084 3261 2657 
Q 3669 2231 3669 1497 
Q 3669 778 3244 343 
Q 2819 -91 2113 -91 
Q 1303 -91 875 529 
Q 447 1150 447 2328 
Q 447 3434 972 4092 
Q 1497 4750 2381 4750 
Q 2619 4750 2861 4703 
Q 3103 4656 3366 4563 
z
" transform="scale(0.015625)"/>
       </defs>
       <use xlink:href="#DejaVuSans-36"/>
       <use xlink:href="#DejaVuSans-30" transform="translate(63.623047 0)"/>
       <use xlink:href="#DejaVuSans-30" transform="translate(127.246094 0)"/>
       <use xlink:href="#DejaVuSans-30" transform="translate(190.869141 0)"/>
      </g>
     </g>
    </g>
    <g id="ytick_5">
     <g id="line2d_17">
      <path d="M 73.142188 184.940587 
L 992.922188 184.940587 
" clip-path="url(#p126a3c9a02)" style="fill: none; stroke: #b0b0b0; stroke-opacity: 0.3; stroke-width: 0.8; stroke-linecap: square"/>
     </g>
     <g id="line2d_18">
      <g>
       <use xlink:href="#me8f4f5352a" x="73.142188" y="184.940587" style="stroke: #000000; stroke-width: 0.8"/>
      </g>
     </g>
     <g id="text_14">
      <!-- 8000 -->
      <g transform="translate(40.692188 188.739806) scale(0.1 -0.1)">
       <defs>
        <path id="DejaVuSans-38" d="M 2034 2216 
Q 1584 2216 1326 1975 
Q 1069 1734 1069 1313 
Q 1069 891 1326 650 
Q 1584 409 2034 409 
Q 2484 409 2743 651 
Q 3003 894 3003 1313 
Q 3003 1734 2745 1975 
Q 2488 2216 2034 2216 
z
M 1403 2484 
Q 997 2584 770 2862 
Q 544 3141 544 3541 
Q 544 4100 942 4425 
Q 1341 4750 2034 4750 
Q 2731 4750 3128 4425 
Q 3525 4100 3525 3541 
Q 3525 3141 3298 2862 
Q 3072 2584 2669 2484 
Q 3125 2378 3379 2068 
Q 3634 1759 3634 1313 
Q 3634 634 3220 271 
Q 2806 -91 2034 -91 
Q 1263 -91 848 271 
Q 434 634 434 1313 
Q 434 1759 690 2068 
Q 947 2378 1403 2484 
z
M 1172 3481 
Q 1172 3119 1398 2916 
Q 1625 2713 2034 2713 
Q 2441 2713 2670 2916 
Q 2900 3119 2900 3481 
Q 2900 3844 2670 4047 
Q 2441 4250 2034 4250 
Q 1625 4250 1398 4047 
Q 1172 3844 1172 3481 
z
" transform="scale(0.015625)"/>
       </defs>
       <use xlink:href="#DejaVuSans-38"/>
       <use xlink:href="#DejaVuSans-30" transform="translate(63.623047 0)"/>
       <use xlink:href="#DejaVuSans-30" transform="translate(127.246094 0)"/>
       <use xlink:href="#DejaVuSans-30" transform="translate(190.869141 0)"/>
      </g>
     </g>
    </g>
    <g id="ytick_6">
     <g id="line2d_19">
      <path d="M 73.142188 151.25628 
L 992.922188 151.25628 
" clip-path="url(#p126a3c9a02)" style="fill: none; stroke: #b0b0b0; stroke-opacity: 0.3; stroke-width: 0.8; stroke-linecap: square"/>
     </g>
     <g id="line2d_20">
      <g>
       <use xlink:href="#me8f4f5352a" x="73.142188" y="151.25628" style="stroke: #000000; stroke-width: 0.8"/>
      </g>
     </g>
     <g id="text_15">
      <!-- 10000 -->
      <g transform="translate(34.329688 155.055499) scale(0.1 -0.1)">
       <use xlink:href="#DejaVuSans-31"/>
       <use xlink:href="#DejaVuSans-30" transform="translate(63.623047 0)"/>
       <use xlink:href="#DejaVuSans-30" transform="translate(127.246094 0)"/>
       <use xlink:href="#DejaVuSans-30" transform="translate(190.869141 0)"/>
       <use xlink:href="#DejaVuSans-30" transform="translate(254.492188 0)"/>
      </g>
     </g>
    </g>
    <g id="ytick_7">
     <g id="line2d_21">
      <path d="M 73.142188 117.571974 
L 992.922188 117.571974 
" clip-path="url(#p126a3c9a02)" style="fill: none; stroke: #b0b0b0; stroke-opacity: 0.3; stroke-width: 0.8; stroke-linecap: square"/>
     </g>
     <g id="line2d_22">
      <g>
       <use xlink:href="#me8f4f5352a" x="73.142188" y="117.571974" style="stroke: #000000; stroke-width: 0.8"/>
      </g>
     </g>
     <g id="text_16">
      <!-- 12000 -->
      <g transform="translate(34.329688 121.371193) scale(0.1 -0.1)">
       <use xlink:href="#DejaVuSans-31"/>
       <use xlink:href="#DejaVuSans-32" transform="translate(63.623047 0)"/>
       <use xlink:href="#DejaVuSans-30" transform="translate(127.246094 0)"/>
       <use xlink:href="#DejaVuSans-30" transform="translate(190.869141 0)"/>
       <use xlink:href="#DejaVuSans-30" transform="translate(254.492188 0)"/>
      </g>
     </g>
    </g>
    <g id="ytick_8">
     <g id="line2d_23">
      <path d="M 73.142188 83.887668 
L 992.922188 83.887668 
" clip-path="url(#p126a3c9a02)" style="fill: none; stroke: #b0b0b0; stroke-opacity: 0.3; stroke-width: 0.8; stroke-linecap: square"/>
     </g>
     <g id="line2d_24">
      <g>
       <use xlink:href="#me8f4f5352a" x="73.142188" y="83.887668" style="stroke: #000000; stroke-width: 0.8"/>
      </g>
     </g>
     <g id="text_17">
      <!-- 14000 -->
      <g transform="translate(34.329688 87.686886) scale(0.1 -0.1)">
       <use xlink:href="#DejaVuSans-31"/>
       <use xlink:href="#DejaVuSans-34" transform="translate(63.623047 0)"/>
       <use xlink:href="#DejaVuSans-30" transform="translate(127.246094 0)"/>
       <use xlink:href="#DejaVuSans-30" transform="translate(190.869141 0)"/>
       <use xlink:href="#DejaVuSans-30" transform="translate(254.492188 0)"/>
      </g>
     </g>
    </g>
    <g id="ytick_9">
     <g id="line2d_25">
      <path d="M 73.142188 50.203361 
L 992.922188 50.203361 
" clip-path="url(#p126a3c9a02)" style="fill: none; stroke: #b0b0b0; stroke-opacity: 0.3; stroke-width: 0.8; stroke-linecap: square"/>
     </g>
     <g id="line2d_26">
      <g>
       <use xlink:href="#me8f4f5352a" x="73.142188" y="50.203361" style="stroke: #000000; stroke-width: 0.8"/>
      </g>
     </g>
     <g id="text_18">
      <!-- 16000 -->
      <g transform="translate(34.329688 54.00258) scale(0.1 -0.1)">
       <use xlink:href="#DejaVuSans-31"/>
       <use xlink:href="#DejaVuSans-36" transform="translate(63.623047 0)"/>
       <use xlink:href="#DejaVuSans-30" transform="translate(127.246094 0)"/>
       <use xlink:href="#DejaVuSans-30" transform="translate(190.869141 0)"/>
       <use xlink:href="#DejaVuSans-30" transform="translate(254.492188 0)"/>
      </g>
     </g>
    </g>
    <g id="text_19">
     <!-- Number of Records -->
     <g transform="translate(28.25 219.722656) rotate(-90) scale(0.1 -0.1)">
      <defs>
       <path id="DejaVuSans-4e" d="M 628 4666 
L 1478 4666 
L 3547 763 
L 3547 4666 
L 4159 4666 
L 4159 0 
L 3309 0 
L 1241 3903 
L 1241 0 
L 628 0 
L 628 4666 
z
" transform="scale(0.015625)"/>
       <path id="DejaVuSans-75" d="M 544 1381 
L 544 3500 
L 1119 3500 
L 1119 1403 
Q 1119 906 1312 657 
Q 1506 409 1894 409 
Q 2359 409 2629 706 
Q 2900 1003 2900 1516 
L 2900 3500 
L 3475 3500 
L 3475 0 
L 2900 0 
L 2900 538 
Q 2691 219 2414 64 
Q 2138 -91 1772 -91 
Q 1169 -91 856 284 
Q 544 659 544 1381 
z
M 1991 3584 
L 1991 3584 
z
" transform="scale(0.015625)"/>
       <path id="DejaVuSans-6d" d="M 3328 2828 
Q 3544 3216 3844 3400 
Q 4144 3584 4550 3584 
Q 5097 3584 5394 3201 
Q 5691 2819 5691 2113 
L 5691 0 
L 5113 0 
L 5113 2094 
Q 5113 2597 4934 2840 
Q 4756 3084 4391 3084 
Q 3944 3084 3684 2787 
Q 3425 2491 3425 1978 
L 3425 0 
L 2847 0 
L 2847 2094 
Q 2847 2600 2669 2842 
Q 2491 3084 2119 3084 
Q 1678 3084 1418 2786 
Q 1159 2488 1159 1978 
L 1159 0 
L 581 0 
L 581 3500 
L 1159 3500 
L 1159 2956 
Q 1356 3278 1631 3431 
Q 1906 3584 2284 3584 
Q 2666 3584 2933 3390 
Q 3200 3197 3328 2828 
z
" transform="scale(0.015625)"/>
       <path id="DejaVuSans-62" d="M 3116 1747 
Q 3116 2381 2855 2742 
Q 2594 3103 2138 3103 
Q 1681 3103 1420 2742 
Q 1159 2381 1159 1747 
Q 1159 1113 1420 752 
Q 1681 391 2138 391 
Q 2594 391 2855 752 
Q 3116 1113 3116 1747 
z
M 1159 2969 
Q 1341 3281 1617 3432 
Q 1894 3584 2278 3584 
Q 2916 3584 3314 3078 
Q 3713 2572 3713 1747 
Q 3713 922 3314 415 
Q 2916 -91 2278 -91 
Q 1894 -91 1617 61 
Q 1341 213 1159 525 
L 1159 0 
L 581 0 
L 581 4863 
L 1159 4863 
L 1159 2969 
z
" transform="scale(0.015625)"/>
       <path id="DejaVuSans-20" transform="scale(0.015625)"/>
       <path id="DejaVuSans-6f" d="M 1959 3097 
Q 1497 3097 1228 2736 
Q 959 2375 959 1747 
Q 959 1119 1226 758 
Q 1494 397 1959 397 
Q 2419 397 2687 759 
Q 2956 1122 2956 1747 
Q 2956 2369 2687 2733 
Q 2419 3097 1959 3097 
z
M 1959 3584 
Q 2709 3584 3137 3096 
Q 3566 2609 3566 1747 
Q 3566 888 3137 398 
Q 2709 -91 1959 -91 
Q 1206 -91 779 398 
Q 353 888 353 1747 
Q 353 2609 779 3096 
Q 1206 3584 1959 3584 
z
" transform="scale(0.015625)"/>
       <path id="DejaVuSans-66" d="M 2375 4863 
L 2375 4384 
L 1825 4384 
Q 1516 4384 1395 4259 
Q 1275 4134 1275 3809 
L 1275 3500 
L 2222 3500 
L 2222 3053 
L 1275 3053 
L 1275 0 
L 697 0 
L 697 3053 
L 147 3053 
L 147 3500 
L 697 3500 
L 697 3744 
Q 697 4328 969 4595 
Q 1241 4863 1831 4863 
L 2375 4863 
z
" transform="scale(0.015625)"/>
       <path id="DejaVuSans-52" d="M 2841 2188 
Q 3044 2119 3236 1894 
Q 3428 1669 3622 1275 
L 4263 0 
L 3584 0 
L 2988 1197 
Q 2756 1666 2539 1819 
Q 2322 1972 1947 1972 
L 1259 1972 
L 1259 0 
L 628 0 
L 628 4666 
L 2053 4666 
Q 2853 4666 3247 4331 
Q 3641 3997 3641 3322 
Q 3641 2881 3436 2590 
Q 3231 2300 2841 2188 
z
M 1259 4147 
L 1259 2491 
L 2053 2491 
Q 2509 2491 2742 2702 
Q 2975 2913 2975 3322 
Q 2975 3731 2742 3939 
Q 2509 4147 2053 4147 
L 1259 4147 
z
" transform="scale(0.015625)"/>
       <path id="DejaVuSans-63" d="M 3122 3366 
L 3122 2828 
Q 2878 2963 2633 3030 
Q 2388 3097 2138 3097 
Q 1578 3097 1268 2742 
Q 959 2388 959 1747 
Q 959 1106 1268 751 
Q 1578 397 2138 397 
Q 2388 397 2633 464 
Q 2878 531 3122 666 
L 3122 134 
Q 2881 22 2623 -34 
Q 2366 -91 2075 -91 
Q 1284 -91 818 406 
Q 353 903 353 1747 
Q 353 2603 823 3093 
Q 1294 3584 2113 3584 
Q 2378 3584 2631 3529 
Q 2884 3475 3122 3366 
z
" transform="scale(0.015625)"/>
       <path id="DejaVuSans-64" d="M 2906 2969 
L 2906 4863 
L 3481 4863 
L 3481 0 
L 2906 0 
L 2906 525 
Q 2725 213 2448 61 
Q 2172 -91 1784 -91 
Q 1150 -91 751 415 
Q 353 922 353 1747 
Q 353 2572 751 3078 
Q 1150 3584 1784 3584 
Q 2172 3584 2448 3432 
Q 2725 3281 2906 2969 
z
M 947 1747 
Q 947 1113 1208 752 
Q 1469 391 1925 391 
Q 2381 391 2643 752 
Q 2906 1113 2906 1747 
Q 2906 2381 2643 2742 
Q 2381 3103 1925 3103 
Q 1469 3103 1208 2742 
Q 947 2381 947 1747 
z
" transform="scale(0.015625)"/>
       <path id="DejaVuSans-73" d="M 2834 3397 
L 2834 2853 
Q 2591 2978 2328 3040 
Q 2066 3103 1784 3103 
Q 1356 3103 1142 2972 
Q 928 2841 928 2578 
Q 928 2378 1081 2264 
Q 1234 2150 1697 2047 
L 1894 2003 
Q 2506 1872 2764 1633 
Q 3022 1394 3022 966 
Q 3022 478 2636 193 
Q 2250 -91 1575 -91 
Q 1294 -91 989 -36 
Q 684 19 347 128 
L 347 722 
Q 666 556 975 473 
Q 1284 391 1588 391 
Q 1994 391 2212 530 
Q 2431 669 2431 922 
Q 2431 1156 2273 1281 
Q 2116 1406 1581 1522 
L 1381 1569 
Q 847 1681 609 1914 
Q 372 2147 372 2553 
Q 372 3047 722 3315 
Q 1072 3584 1716 3584 
Q 2034 3584 2315 3537 
Q 2597 3491 2834 3397 
z
" transform="scale(0.015625)"/>
      </defs>
      <use xlink:href="#DejaVuSans-4e"/>
      <use xlink:href="#DejaVuSans-75" transform="translate(74.804688 0)"/>
      <use xlink:href="#DejaVuSans-6d" transform="translate(138.183594 0)"/>
      <use xlink:href="#DejaVuSans-62" transform="translate(235.595703 0)"/>
      <use xlink:href="#DejaVuSans-65" transform="translate(299.072266 0)"/>
      <use xlink:href="#DejaVuSans-72" transform="translate(360.595703 0)"/>
      <use xlink:href="#DejaVuSans-20" transform="translate(401.708984 0)"/>
      <use xlink:href="#DejaVuSans-6f" transform="translate(433.496094 0)"/>
      <use xlink:href="#DejaVuSans-66" transform="translate(494.677734 0)"/>
      <use xlink:href="#DejaVuSans-20" transform="translate(529.882812 0)"/>
      <use xlink:href="#DejaVuSans-52" transform="translate(561.669922 0)"/>
      <use xlink:href="#DejaVuSans-65" transform="translate(626.652344 0)"/>
      <use xlink:href="#DejaVuSans-63" transform="translate(688.175781 0)"/>
      <use xlink:href="#DejaVuSans-6f" transform="translate(743.15625 0)"/>
      <use xlink:href="#DejaVuSans-72" transform="translate(804.337891 0)"/>
      <use xlink:href="#DejaVuSans-64" transform="translate(843.701172 0)"/>
      <use xlink:href="#DejaVuSans-73" transform="translate(907.177734 0)"/>
     </g>
    </g>
   </g>
   <g id="patch_33">
    <path d="M 73.142188 319.677812 
L 73.142188 23.837812 
" style="fill: none; stroke: #000000; stroke-width: 0.8; stroke-linejoin: miter; stroke-linecap: square"/>
   </g>
   <g id="patch_34">
    <path d="M 992.922188 319.677812 
L 992.922188 23.837812 
" style="fill: none; stroke: #000000; stroke-width: 0.8; stroke-linejoin: miter; stroke-linecap: square"/>
   </g>
   <g id="patch_35">
    <path d="M 73.142188 319.677812 
L 992.922188 319.677812 
" style="fill: none; stroke: #000000; stroke-width: 0.8; stroke-linejoin: miter; stroke-linecap: square"/>
   </g>
   <g id="patch_36">
    <path d="M 73.142188 23.837812 
L 992.922188 23.837812 
" style="fill: none; stroke: #000000; stroke-width: 0.8; stroke-linejoin: miter; stroke-linecap: square"/>
   </g>
   <g id="text_20">
    <!-- Data Availability by Year and Source -->
    <g transform="translate(389.323281 17.837812) scale(0.14 -0.14)">
     <defs>
      <path id="DejaVuSans-Bold-44" d="M 1791 3756 
L 1791 909 
L 2222 909 
Q 2959 909 3348 1275 
Q 3738 1641 3738 2338 
Q 3738 3031 3350 3393 
Q 2963 3756 2222 3756 
L 1791 3756 
z
M 588 4666 
L 1856 4666 
Q 2919 4666 3439 4514 
Q 3959 4363 4331 4000 
Q 4659 3684 4818 3271 
Q 4978 2859 4978 2338 
Q 4978 1809 4818 1395 
Q 4659 981 4331 666 
Q 3956 303 3431 151 
Q 2906 0 1856 0 
L 588 0 
L 588 4666 
z
" transform="scale(0.015625)"/>
      <path id="DejaVuSans-Bold-61" d="M 2106 1575 
Q 1756 1575 1579 1456 
Q 1403 1338 1403 1106 
Q 1403 894 1545 773 
Q 1688 653 1941 653 
Q 2256 653 2472 879 
Q 2688 1106 2688 1447 
L 2688 1575 
L 2106 1575 
z
M 3816 1997 
L 3816 0 
L 2688 0 
L 2688 519 
Q 2463 200 2181 54 
Q 1900 -91 1497 -91 
Q 953 -91 614 226 
Q 275 544 275 1050 
Q 275 1666 698 1953 
Q 1122 2241 2028 2241 
L 2688 2241 
L 2688 2328 
Q 2688 2594 2478 2717 
Q 2269 2841 1825 2841 
Q 1466 2841 1156 2769 
Q 847 2697 581 2553 
L 581 3406 
Q 941 3494 1303 3539 
Q 1666 3584 2028 3584 
Q 2975 3584 3395 3211 
Q 3816 2838 3816 1997 
z
" transform="scale(0.015625)"/>
      <path id="DejaVuSans-Bold-74" d="M 1759 4494 
L 1759 3500 
L 2913 3500 
L 2913 2700 
L 1759 2700 
L 1759 1216 
Q 1759 972 1856 886 
Q 1953 800 2241 800 
L 2816 800 
L 2816 0 
L 1856 0 
Q 1194 0 917 276 
Q 641 553 641 1216 
L 641 2700 
L 84 2700 
L 84 3500 
L 641 3500 
L 641 4494 
L 1759 4494 
z
" transform="scale(0.015625)"/>
      <path id="DejaVuSans-Bold-20" transform="scale(0.015625)"/>
      <path id="DejaVuSans-Bold-41" d="M 3419 850 
L 1538 850 
L 1241 0 
L 31 0 
L 1759 4666 
L 3194 4666 
L 4922 0 
L 3713 0 
L 3419 850 
z
M 1838 1716 
L 3116 1716 
L 2478 3572 
L 1838 1716 
z
" transform="scale(0.015625)"/>
      <path id="DejaVuSans-Bold-76" d="M 97 3500 
L 1216 3500 
L 2088 1081 
L 2956 3500 
L 4078 3500 
L 2700 0 
L 1472 0 
L 97 3500 
z
" transform="scale(0.015625)"/>
      <path id="DejaVuSans-Bold-69" d="M 538 3500 
L 1656 3500 
L 1656 0 
L 538 0 
L 538 3500 
z
M 538 4863 
L 1656 4863 
L 1656 3950 
L 538 3950 
L 538 4863 
z
" transform="scale(0.015625)"/>
      <path id="DejaVuSans-Bold-6c" d="M 538 4863 
L 1656 4863 
L 1656 0 
L 538 0 
L 538 4863 
z
" transform="scale(0.015625)"/>
      <path id="DejaVuSans-Bold-62" d="M 2400 722 
Q 2759 722 2948 984 
Q 3138 1247 3138 1747 
Q 3138 2247 2948 2509 
Q 2759 2772 2400 2772 
Q 2041 2772 1848 2508 
Q 1656 2244 1656 1747 
Q 1656 1250 1848 986 
Q 2041 722 2400 722 
z
M 1656 2988 
Q 1888 3294 2169 3439 
Q 2450 3584 2816 3584 
Q 3463 3584 3878 3070 
Q 4294 2556 4294 1747 
Q 4294 938 3878 423 
Q 3463 -91 2816 -91 
Q 2450 -91 2169 54 
Q 1888 200 1656 506 
L 1656 0 
L 538 0 
L 538 4863 
L 1656 4863 
L 1656 2988 
z
" transform="scale(0.015625)"/>
      <path id="DejaVuSans-Bold-79" d="M 78 3500 
L 1197 3500 
L 2138 1125 
L 2938 3500 
L 4056 3500 
L 2584 -331 
Q 2363 -916 2067 -1148 
Q 1772 -1381 1288 -1381 
L 641 -1381 
L 641 -647 
L 991 -647 
Q 1275 -647 1404 -556 
Q 1534 -466 1606 -231 
L 1638 -134 
L 78 3500 
z
" transform="scale(0.015625)"/>
      <path id="DejaVuSans-Bold-59" d="M -63 4666 
L 1253 4666 
L 2316 3003 
L 3378 4666 
L 4697 4666 
L 2919 1966 
L 2919 0 
L 1716 0 
L 1716 1966 
L -63 4666 
z
" transform="scale(0.015625)"/>
      <path id="DejaVuSans-Bold-65" d="M 4031 1759 
L 4031 1441 
L 1416 1441 
Q 1456 1047 1700 850 
Q 1944 653 2381 653 
Q 2734 653 3104 758 
Q 3475 863 3866 1075 
L 3866 213 
Q 3469 63 3072 -14 
Q 2675 -91 2278 -91 
Q 1328 -91 801 392 
Q 275 875 275 1747 
Q 275 2603 792 3093 
Q 1309 3584 2216 3584 
Q 3041 3584 3536 3087 
Q 4031 2591 4031 1759 
z
M 2881 2131 
Q 2881 2450 2695 2645 
Q 2509 2841 2209 2841 
Q 1884 2841 1681 2658 
Q 1478 2475 1428 2131 
L 2881 2131 
z
" transform="scale(0.015625)"/>
      <path id="DejaVuSans-Bold-72" d="M 3138 2547 
Q 2991 2616 2845 2648 
Q 2700 2681 2553 2681 
Q 2122 2681 1889 2404 
Q 1656 2128 1656 1613 
L 1656 0 
L 538 0 
L 538 3500 
L 1656 3500 
L 1656 2925 
Q 1872 3269 2151 3426 
Q 2431 3584 2822 3584 
Q 2878 3584 2943 3579 
Q 3009 3575 3134 3559 
L 3138 2547 
z
" transform="scale(0.015625)"/>
      <path id="DejaVuSans-Bold-6e" d="M 4056 2131 
L 4056 0 
L 2931 0 
L 2931 347 
L 2931 1631 
Q 2931 2084 2911 2256 
Q 2891 2428 2841 2509 
Q 2775 2619 2662 2680 
Q 2550 2741 2406 2741 
Q 2056 2741 1856 2470 
Q 1656 2200 1656 1722 
L 1656 0 
L 538 0 
L 538 3500 
L 1656 3500 
L 1656 2988 
Q 1909 3294 2193 3439 
Q 2478 3584 2822 3584 
Q 3428 3584 3742 3212 
Q 4056 2841 4056 2131 
z
" transform="scale(0.015625)"/>
      <path id="DejaVuSans-Bold-64" d="M 2919 2988 
L 2919 4863 
L 4044 4863 
L 4044 0 
L 2919 0 
L 2919 506 
Q 2688 197 2409 53 
Q 2131 -91 1766 -91 
Q 1119 -91 703 423 
Q 288 938 288 1747 
Q 288 2556 703 3070 
Q 1119 3584 1766 3584 
Q 2128 3584 2408 3439 
Q 2688 3294 2919 2988 
z
M 2181 722 
Q 2541 722 2730 984 
Q 2919 1247 2919 1747 
Q 2919 2247 2730 2509 
Q 2541 2772 2181 2772 
Q 1825 2772 1636 2509 
Q 1447 2247 1447 1747 
Q 1447 1247 1636 984 
Q 1825 722 2181 722 
z
" transform="scale(0.015625)"/>
      <path id="DejaVuSans-Bold-53" d="M 3834 4519 
L 3834 3531 
Q 3450 3703 3084 3790 
Q 2719 3878 2394 3878 
Q 1963 3878 1756 3759 
Q 1550 3641 1550 3391 
Q 1550 3203 1689 3098 
Q 1828 2994 2194 2919 
L 2706 2816 
Q 3484 2659 3812 2340 
Q 4141 2022 4141 1434 
Q 4141 663 3683 286 
Q 3225 -91 2284 -91 
Q 1841 -91 1394 -6 
Q 947 78 500 244 
L 500 1259 
Q 947 1022 1364 901 
Q 1781 781 2169 781 
Q 2563 781 2772 912 
Q 2981 1044 2981 1288 
Q 2981 1506 2839 1625 
Q 2697 1744 2272 1838 
L 1806 1941 
Q 1106 2091 782 2419 
Q 459 2747 459 3303 
Q 459 4000 909 4375 
Q 1359 4750 2203 4750 
Q 2588 4750 2994 4692 
Q 3400 4634 3834 4519 
z
" transform="scale(0.015625)"/>
      <path id="DejaVuSans-Bold-6f" d="M 2203 2784 
Q 1831 2784 1636 2517 
Q 1441 2250 1441 1747 
Q 1441 1244 1636 976 
Q 1831 709 2203 709 
Q 2569 709 2762 976 
Q 2956 1244 2956 1747 
Q 2956 2250 2762 2517 
Q 2569 2784 2203 2784 
z
M 2203 3584 
Q 3106 3584 3614 3096 
Q 4122 2609 4122 1747 
Q 4122 884 3614 396 
Q 3106 -91 2203 -91 
Q 1297 -91 786 396 
Q 275 884 275 1747 
Q 275 2609 786 3096 
Q 1297 3584 2203 3584 
z
" transform="scale(0.015625)"/>
      <path id="DejaVuSans-Bold-75" d="M 500 1363 
L 500 3500 
L 1625 3500 
L 1625 3150 
Q 1625 2866 1622 2436 
Q 1619 2006 1619 1863 
Q 1619 1441 1641 1255 
Q 1663 1069 1716 984 
Q 1784 875 1895 815 
Q 2006 756 2150 756 
Q 2500 756 2700 1025 
Q 2900 1294 2900 1772 
L 2900 3500 
L 4019 3500 
L 4019 0 
L 2900 0 
L 2900 506 
Q 2647 200 2364 54 
Q 2081 -91 1741 -91 
Q 1134 -91 817 281 
Q 500 653 500 1363 
z
" transform="scale(0.015625)"/>
      <path id="DejaVuSans-Bold-63" d="M 3366 3391 
L 3366 2478 
Q 3138 2634 2908 2709 
Q 2678 2784 2431 2784 
Q 1963 2784 1702 2511 
Q 1441 2238 1441 1747 
Q 1441 1256 1702 982 
Q 1963 709 2431 709 
Q 2694 709 2930 787 
Q 3166 866 3366 1019 
L 3366 103 
Q 3103 6 2833 -42 
Q 2563 -91 2291 -91 
Q 1344 -91 809 395 
Q 275 881 275 1747 
Q 275 2613 809 3098 
Q 1344 3584 2291 3584 
Q 2566 3584 2833 3536 
Q 3100 3488 3366 3391 
z
" transform="scale(0.015625)"/>
     </defs>
     <use xlink:href="#DejaVuSans-Bold-44"/>
     <use xlink:href="#DejaVuSans-Bold-61" transform="translate(83.007812 0)"/>
     <use xlink:href="#DejaVuSans-Bold-74" transform="translate(150.488281 0)"/>
     <use xlink:href="#DejaVuSans-Bold-61" transform="translate(198.291016 0)"/>
     <use xlink:href="#DejaVuSans-Bold-20" transform="translate(265.771484 0)"/>
     <use xlink:href="#DejaVuSans-Bold-41" transform="translate(300.585938 0)"/>
     <use xlink:href="#DejaVuSans-Bold-76" transform="translate(374.353516 0)"/>
     <use xlink:href="#DejaVuSans-Bold-61" transform="translate(439.539062 0)"/>
     <use xlink:href="#DejaVuSans-Bold-69" transform="translate(507.019531 0)"/>
     <use xlink:href="#DejaVuSans-Bold-6c" transform="translate(541.296875 0)"/>
     <use xlink:href="#DejaVuSans-Bold-61" transform="translate(575.574219 0)"/>
     <use xlink:href="#DejaVuSans-Bold-62" transform="translate(643.054688 0)"/>
     <use xlink:href="#DejaVuSans-Bold-69" transform="translate(714.636719 0)"/>
     <use xlink:href="#DejaVuSans-Bold-6c" transform="translate(748.914062 0)"/>
     <use xlink:href="#DejaVuSans-Bold-69" transform="translate(783.191406 0)"/>
     <use xlink:href="#DejaVuSans-Bold-74" transform="translate(817.46875 0)"/>
     <use xlink:href="#DejaVuSans-Bold-79" transform="translate(865.271484 0)"/>
     <use xlink:href="#DejaVuSans-Bold-20" transform="translate(930.457031 0)"/>
     <use xlink:href="#DejaVuSans-Bold-62" transform="translate(965.271484 0)"/>
     <use xlink:href="#DejaVuSans-Bold-79" transform="translate(1036.853516 0)"/>
     <use xlink:href="#DejaVuSans-Bold-20" transform="translate(1102.039062 0)"/>
     <use xlink:href="#DejaVuSans-Bold-59" transform="translate(1136.853516 0)"/>
     <use xlink:href="#DejaVuSans-Bold-65" transform="translate(1200.140625 0)"/>
     <use xlink:href="#DejaVuSans-Bold-61" transform="translate(1267.962891 0)"/>
     <use xlink:href="#DejaVuSans-Bold-72" transform="translate(1335.443359 0)"/>
     <use xlink:href="#DejaVuSans-Bold-20" transform="translate(1384.759766 0)"/>
     <use xlink:href="#DejaVuSans-Bold-61" transform="translate(1419.574219 0)"/>
     <use xlink:href="#DejaVuSans-Bold-6e" transform="translate(1487.054688 0)"/>
     <use xlink:href="#DejaVuSans-Bold-64" transform="translate(1558.246094 0)"/>
     <use xlink:href="#DejaVuSans-Bold-20" transform="translate(1629.828125 0)"/>
     <use xlink:href="#DejaVuSans-Bold-53" transform="translate(1664.642578 0)"/>
     <use xlink:href="#DejaVuSans-Bold-6f" transform="translate(1736.664062 0)"/>
     <use xlink:href="#DejaVuSans-Bold-75" transform="translate(1805.365234 0)"/>
     <use xlink:href="#DejaVuSans-Bold-72" transform="translate(1876.556641 0)"/>
     <use xlink:href="#DejaVuSans-Bold-63" transform="translate(1925.873047 0)"/>
     <use xlink:href="#DejaVuSans-Bold-65" transform="translate(1985.150391 0)"/>
    </g>
   </g>
   <g id="legend_1">
    <g id="patch_37">
     <path d="M 881.195625 61.194062 
L 985.922188 61.194062 
Q 987.922188 61.194062 987.922188 59.194062 
L 987.922188 30.837812 
Q 987.922188 28.837812 985.922188 28.837812 
L 881.195625 28.837812 
Q 879.195625 28.837812 879.195625 30.837812 
L 879.195625 59.194062 
Q 879.195625 61.194062 881.195625 61.194062 
z
" style="fill: #ffffff; opacity: 0.8; stroke: #cccccc; stroke-linejoin: miter"/>
    </g>
    <g id="patch_38">
     <path d="M 883.195625 40.43625 
L 903.195625 40.43625 
L 903.195625 33.43625 
L 883.195625 33.43625 
z
" style="fill: #87ceeb; opacity: 0.7"/>
    </g>
    <g id="text_21">
     <!-- GCRO Surveys -->
     <g transform="translate(911.195625 40.43625) scale(0.1 -0.1)">
      <defs>
       <path id="DejaVuSans-47" d="M 3809 666 
L 3809 1919 
L 2778 1919 
L 2778 2438 
L 4434 2438 
L 4434 434 
Q 4069 175 3628 42 
Q 3188 -91 2688 -91 
Q 1594 -91 976 548 
Q 359 1188 359 2328 
Q 359 3472 976 4111 
Q 1594 4750 2688 4750 
Q 3144 4750 3555 4637 
Q 3966 4525 4313 4306 
L 4313 3634 
Q 3963 3931 3569 4081 
Q 3175 4231 2741 4231 
Q 1884 4231 1454 3753 
Q 1025 3275 1025 2328 
Q 1025 1384 1454 906 
Q 1884 428 2741 428 
Q 3075 428 3337 486 
Q 3600 544 3809 666 
z
" transform="scale(0.015625)"/>
       <path id="DejaVuSans-43" d="M 4122 4306 
L 4122 3641 
Q 3803 3938 3442 4084 
Q 3081 4231 2675 4231 
Q 1875 4231 1450 3742 
Q 1025 3253 1025 2328 
Q 1025 1406 1450 917 
Q 1875 428 2675 428 
Q 3081 428 3442 575 
Q 3803 722 4122 1019 
L 4122 359 
Q 3791 134 3420 21 
Q 3050 -91 2638 -91 
Q 1578 -91 968 557 
Q 359 1206 359 2328 
Q 359 3453 968 4101 
Q 1578 4750 2638 4750 
Q 3056 4750 3426 4639 
Q 3797 4528 4122 4306 
z
" transform="scale(0.015625)"/>
       <path id="DejaVuSans-4f" d="M 2522 4238 
Q 1834 4238 1429 3725 
Q 1025 3213 1025 2328 
Q 1025 1447 1429 934 
Q 1834 422 2522 422 
Q 3209 422 3611 934 
Q 4013 1447 4013 2328 
Q 4013 3213 3611 3725 
Q 3209 4238 2522 4238 
z
M 2522 4750 
Q 3503 4750 4090 4092 
Q 4678 3434 4678 2328 
Q 4678 1225 4090 567 
Q 3503 -91 2522 -91 
Q 1538 -91 948 565 
Q 359 1222 359 2328 
Q 359 3434 948 4092 
Q 1538 4750 2522 4750 
z
" transform="scale(0.015625)"/>
       <path id="DejaVuSans-53" d="M 3425 4513 
L 3425 3897 
Q 3066 4069 2747 4153 
Q 2428 4238 2131 4238 
Q 1616 4238 1336 4038 
Q 1056 3838 1056 3469 
Q 1056 3159 1242 3001 
Q 1428 2844 1947 2747 
L 2328 2669 
Q 3034 2534 3370 2195 
Q 3706 1856 3706 1288 
Q 3706 609 3251 259 
Q 2797 -91 1919 -91 
Q 1588 -91 1214 -16 
Q 841 59 441 206 
L 441 856 
Q 825 641 1194 531 
Q 1563 422 1919 422 
Q 2459 422 2753 634 
Q 3047 847 3047 1241 
Q 3047 1584 2836 1778 
Q 2625 1972 2144 2069 
L 1759 2144 
Q 1053 2284 737 2584 
Q 422 2884 422 3419 
Q 422 4038 858 4394 
Q 1294 4750 2059 4750 
Q 2388 4750 2728 4690 
Q 3069 4631 3425 4513 
z
" transform="scale(0.015625)"/>
       <path id="DejaVuSans-76" d="M 191 3500 
L 800 3500 
L 1894 563 
L 2988 3500 
L 3597 3500 
L 2284 0 
L 1503 0 
L 191 3500 
z
" transform="scale(0.015625)"/>
       <path id="DejaVuSans-79" d="M 2059 -325 
Q 1816 -950 1584 -1140 
Q 1353 -1331 966 -1331 
L 506 -1331 
L 506 -850 
L 844 -850 
Q 1081 -850 1212 -737 
Q 1344 -625 1503 -206 
L 1606 56 
L 191 3500 
L 800 3500 
L 1894 763 
L 2988 3500 
L 3597 3500 
L 2059 -325 
z
" transform="scale(0.015625)"/>
      </defs>
      <use xlink:href="#DejaVuSans-47"/>
      <use xlink:href="#DejaVuSans-43" transform="translate(77.490234 0)"/>
      <use xlink:href="#DejaVuSans-52" transform="translate(147.314453 0)"/>
      <use xlink:href="#DejaVuSans-4f" transform="translate(216.796875 0)"/>
      <use xlink:href="#DejaVuSans-20" transform="translate(295.507812 0)"/>
      <use xlink:href="#DejaVuSans-53" transform="translate(327.294922 0)"/>
      <use xlink:href="#DejaVuSans-75" transform="translate(390.771484 0)"/>
      <use xlink:href="#DejaVuSans-72" transform="translate(454.150391 0)"/>
      <use xlink:href="#DejaVuSans-76" transform="translate(495.263672 0)"/>
      <use xlink:href="#DejaVuSans-65" transform="translate(554.443359 0)"/>
      <use xlink:href="#DejaVuSans-79" transform="translate(615.966797 0)"/>
      <use xlink:href="#DejaVuSans-73" transform="translate(675.146484 0)"/>
     </g>
    </g>
    <g id="patch_39">
     <path d="M 883.195625 55.114375 
L 903.195625 55.114375 
L 903.195625 48.114375 
L 883.195625 48.114375 
z
" style="fill: #f08080; opacity: 0.7"/>
    </g>
    <g id="text_22">
     <!-- RP2 Clinical -->
     <g transform="translate(911.195625 55.114375) scale(0.1 -0.1)">
      <defs>
       <path id="DejaVuSans-50" d="M 1259 4147 
L 1259 2394 
L 2053 2394 
Q 2494 2394 2734 2622 
Q 2975 2850 2975 3272 
Q 2975 3691 2734 3919 
Q 2494 4147 2053 4147 
L 1259 4147 
z
M 628 4666 
L 2053 4666 
Q 2838 4666 3239 4311 
Q 3641 3956 3641 3272 
Q 3641 2581 3239 2228 
Q 2838 1875 2053 1875 
L 1259 1875 
L 1259 0 
L 628 0 
L 628 4666 
z
" transform="scale(0.015625)"/>
       <path id="DejaVuSans-6c" d="M 603 4863 
L 1178 4863 
L 1178 0 
L 603 0 
L 603 4863 
z
" transform="scale(0.015625)"/>
       <path id="DejaVuSans-69" d="M 603 3500 
L 1178 3500 
L 1178 0 
L 603 0 
L 603 3500 
z
M 603 4863 
L 1178 4863 
L 1178 4134 
L 603 4134 
L 603 4863 
z
" transform="scale(0.015625)"/>
       <path id="DejaVuSans-6e" d="M 3513 2113 
L 3513 0 
L 2938 0 
L 2938 2094 
Q 2938 2591 2744 2837 
Q 2550 3084 2163 3084 
Q 1697 3084 1428 2787 
Q 1159 2491 1159 1978 
L 1159 0 
L 581 0 
L 581 3500 
L 1159 3500 
L 1159 2956 
Q 1366 3272 1645 3428 
Q 1925 3584 2291 3584 
Q 2894 3584 3203 3211 
Q 3513 2838 3513 2113 
z
" transform="scale(0.015625)"/>
      </defs>
      <use xlink:href="#DejaVuSans-52"/>
      <use xlink:href="#DejaVuSans-50" transform="translate(69.482422 0)"/>
      <use xlink:href="#DejaVuSans-32" transform="translate(129.785156 0)"/>
      <use xlink:href="#DejaVuSans-20" transform="translate(193.408203 0)"/>
      <use xlink:href="#DejaVuSans-43" transform="translate(225.195312 0)"/>
      <use xlink:href="#DejaVuSans-6c" transform="translate(295.019531 0)"/>
      <use xlink:href="#DejaVuSans-69" transform="translate(322.802734 0)"/>
      <use xlink:href="#DejaVuSans-6e" transform="translate(350.585938 0)"/>
      <use xlink:href="#DejaVuSans-69" transform="translate(413.964844 0)"/>
      <use xlink:href="#DejaVuSans-63" transform="translate(441.748047 0)"/>
      <use xlink:href="#DejaVuSans-61" transform="translate(496.728516 0)"/>
      <use xlink:href="#DejaVuSans-6c" transform="translate(558.007812 0)"/>
     </g>
    </g>
   </g>
  </g>
  <g id="axes_2">
   <g id="patch_40">
    <path d="M 73.142188 674.277812 
L 992.922188 674.277812 
L 992.922188 378.437812 
L 73.142188 378.437812 
z
" style="fill: #ffffff"/>
   </g>
   <g id="PathCollection_1">
    <defs>
     <path id="C0_0_f09fb19e49" d="M 0 5 
C 1.326016 5 2.597899 4.473168 3.535534 3.535534 
C 4.473168 2.597899 5 1.326016 5 -0 
C 5 -1.326016 4.473168 -2.597899 3.535534 -3.535534 
C 2.597899 -4.473168 1.326016 -5 0 -5 
C -1.326016 -5 -2.597899 -4.473168 -3.535534 -3.535534 
C -4.473168 -2.597899 -5 -1.326016 -5 0 
C -5 1.326016 -4.473168 2.597899 -3.535534 3.535534 
C -2.597899 4.473168 -1.326016 5 0 5 
z
"/>
    </defs>
    <g clip-path="url(#p9bba4e6272)">
     <use xlink:href="#C0_0_f09fb19e49" x="114.950369" y="526.357812" style="fill: #ff0000; fill-opacity: 0.7; stroke: #ff0000; stroke-opacity: 0.7"/>
    </g>
    <g clip-path="url(#p9bba4e6272)">
     <use xlink:href="#C0_0_f09fb19e49" x="158.958982" y="526.357812" style="fill: #ff0000; fill-opacity: 0.7; stroke: #ff0000; stroke-opacity: 0.7"/>
    </g>
    <g clip-path="url(#p9bba4e6272)">
     <use xlink:href="#C0_0_f09fb19e49" x="202.967594" y="526.357812" style="fill: #ff0000; fill-opacity: 0.7; stroke: #ff0000; stroke-opacity: 0.7"/>
    </g>
    <g clip-path="url(#p9bba4e6272)">
     <use xlink:href="#C0_0_f09fb19e49" x="246.976207" y="526.357812" style="fill: #ff0000; fill-opacity: 0.7; stroke: #ff0000; stroke-opacity: 0.7"/>
    </g>
    <g clip-path="url(#p9bba4e6272)">
     <use xlink:href="#C0_0_f09fb19e49" x="290.984819" y="526.357812" style="fill: #ff0000; fill-opacity: 0.7; stroke: #ff0000; stroke-opacity: 0.7"/>
    </g>
    <g clip-path="url(#p9bba4e6272)">
     <use xlink:href="#C0_0_f09fb19e49" x="334.993432" y="526.357812" style="fill: #ff0000; fill-opacity: 0.7; stroke: #ff0000; stroke-opacity: 0.7"/>
    </g>
    <g clip-path="url(#p9bba4e6272)">
     <use xlink:href="#C0_0_f09fb19e49" x="379.002044" y="526.357812" style="fill: #ff0000; fill-opacity: 0.7; stroke: #ff0000; stroke-opacity: 0.7"/>
    </g>
    <g clip-path="url(#p9bba4e6272)">
     <use xlink:href="#C0_0_f09fb19e49" x="423.010656" y="526.357812" style="fill: #ffff00; fill-opacity: 0.7; stroke: #ffff00; stroke-opacity: 0.7"/>
    </g>
    <g clip-path="url(#p9bba4e6272)">
     <use xlink:href="#C0_0_f09fb19e49" x="467.019269" y="526.357812" style="fill: #ffff00; fill-opacity: 0.7; stroke: #ffff00; stroke-opacity: 0.7"/>
    </g>
    <g clip-path="url(#p9bba4e6272)">
     <use xlink:href="#C0_0_f09fb19e49" x="511.027881" y="526.357812" style="fill: #ffff00; fill-opacity: 0.7; stroke: #ffff00; stroke-opacity: 0.7"/>
    </g>
    <g clip-path="url(#p9bba4e6272)">
     <use xlink:href="#C0_0_f09fb19e49" x="555.036494" y="526.357812" style="fill: #ffff00; fill-opacity: 0.7; stroke: #ffff00; stroke-opacity: 0.7"/>
    </g>
    <g clip-path="url(#p9bba4e6272)">
     <use xlink:href="#C0_0_f09fb19e49" x="599.045106" y="526.357812" style="fill: #ffff00; fill-opacity: 0.7; stroke: #ffff00; stroke-opacity: 0.7"/>
    </g>
    <g clip-path="url(#p9bba4e6272)">
     <use xlink:href="#C0_0_f09fb19e49" x="643.053719" y="526.357812" style="fill: #ffff00; fill-opacity: 0.7; stroke: #ffff00; stroke-opacity: 0.7"/>
    </g>
    <g clip-path="url(#p9bba4e6272)">
     <use xlink:href="#C0_0_f09fb19e49" x="687.062331" y="526.357812" style="fill: #ffff00; fill-opacity: 0.7; stroke: #ffff00; stroke-opacity: 0.7"/>
    </g>
    <g clip-path="url(#p9bba4e6272)">
     <use xlink:href="#C0_0_f09fb19e49" x="731.070943" y="526.357812" style="fill: #ffff00; fill-opacity: 0.7; stroke: #ffff00; stroke-opacity: 0.7"/>
    </g>
    <g clip-path="url(#p9bba4e6272)">
     <use xlink:href="#C0_0_f09fb19e49" x="775.079556" y="526.357812" style="fill: #ffff00; fill-opacity: 0.7; stroke: #ffff00; stroke-opacity: 0.7"/>
    </g>
    <g clip-path="url(#p9bba4e6272)">
     <use xlink:href="#C0_0_f09fb19e49" x="819.088168" y="526.357812" style="fill: #ffff00; fill-opacity: 0.7; stroke: #ffff00; stroke-opacity: 0.7"/>
    </g>
    <g clip-path="url(#p9bba4e6272)">
     <use xlink:href="#C0_0_f09fb19e49" x="863.096781" y="526.357812" style="fill: #ffff00; fill-opacity: 0.7; stroke: #ffff00; stroke-opacity: 0.7"/>
    </g>
    <g clip-path="url(#p9bba4e6272)">
     <use xlink:href="#C0_0_f09fb19e49" x="907.105393" y="526.357812" style="fill: #ffff00; fill-opacity: 0.7; stroke: #ffff00; stroke-opacity: 0.7"/>
    </g>
    <g clip-path="url(#p9bba4e6272)">
     <use xlink:href="#C0_0_f09fb19e49" x="951.114006" y="526.357812" style="fill: #ffff00; fill-opacity: 0.7; stroke: #ffff00; stroke-opacity: 0.7"/>
    </g>
   </g>
   <g id="matplotlib.axis_3">
    <g id="xtick_9">
     <g id="line2d_27">
      <path d="M 136.954676 674.277812 
L 136.954676 378.437812 
" clip-path="url(#p9bba4e6272)" style="fill: none; stroke: #b0b0b0; stroke-opacity: 0.3; stroke-width: 0.8; stroke-linecap: square"/>
     </g>
     <g id="line2d_28">
      <g>
       <use xlink:href="#mf7a6ad9501" x="136.954676" y="674.277812" style="stroke: #000000; stroke-width: 0.8"/>
      </g>
     </g>
     <g id="text_23">
      <!-- 2002.5 -->
      <g transform="translate(119.459363 688.87625) scale(0.1 -0.1)">
       <use xlink:href="#DejaVuSans-32"/>
       <use xlink:href="#DejaVuSans-30" transform="translate(63.623047 0)"/>
       <use xlink:href="#DejaVuSans-30" transform="translate(127.246094 0)"/>
       <use xlink:href="#DejaVuSans-32" transform="translate(190.869141 0)"/>
       <use xlink:href="#DejaVuSans-2e" transform="translate(254.492188 0)"/>
       <use xlink:href="#DejaVuSans-35" transform="translate(286.279297 0)"/>
      </g>
     </g>
    </g>
    <g id="xtick_10">
     <g id="line2d_29">
      <path d="M 246.976207 674.277812 
L 246.976207 378.437812 
" clip-path="url(#p9bba4e6272)" style="fill: none; stroke: #b0b0b0; stroke-opacity: 0.3; stroke-width: 0.8; stroke-linecap: square"/>
     </g>
     <g id="line2d_30">
      <g>
       <use xlink:href="#mf7a6ad9501" x="246.976207" y="674.277812" style="stroke: #000000; stroke-width: 0.8"/>
      </g>
     </g>
     <g id="text_24">
      <!-- 2005.0 -->
      <g transform="translate(229.480894 688.87625) scale(0.1 -0.1)">
       <use xlink:href="#DejaVuSans-32"/>
       <use xlink:href="#DejaVuSans-30" transform="translate(63.623047 0)"/>
       <use xlink:href="#DejaVuSans-30" transform="translate(127.246094 0)"/>
       <use xlink:href="#DejaVuSans-35" transform="translate(190.869141 0)"/>
       <use xlink:href="#DejaVuSans-2e" transform="translate(254.492188 0)"/>
       <use xlink:href="#DejaVuSans-30" transform="translate(286.279297 0)"/>
      </g>
     </g>
    </g>
    <g id="xtick_11">
     <g id="line2d_31">
      <path d="M 356.997738 674.277812 
L 356.997738 378.437812 
" clip-path="url(#p9bba4e6272)" style="fill: none; stroke: #b0b0b0; stroke-opacity: 0.3; stroke-width: 0.8; stroke-linecap: square"/>
     </g>
     <g id="line2d_32">
      <g>
       <use xlink:href="#mf7a6ad9501" x="356.997738" y="674.277812" style="stroke: #000000; stroke-width: 0.8"/>
      </g>
     </g>
     <g id="text_25">
      <!-- 2007.5 -->
      <g transform="translate(339.502425 688.87625) scale(0.1 -0.1)">
       <use xlink:href="#DejaVuSans-32"/>
       <use xlink:href="#DejaVuSans-30" transform="translate(63.623047 0)"/>
       <use xlink:href="#DejaVuSans-30" transform="translate(127.246094 0)"/>
       <use xlink:href="#DejaVuSans-37" transform="translate(190.869141 0)"/>
       <use xlink:href="#DejaVuSans-2e" transform="translate(254.492188 0)"/>
       <use xlink:href="#DejaVuSans-35" transform="translate(286.279297 0)"/>
      </g>
     </g>
    </g>
    <g id="xtick_12">
     <g id="line2d_33">
      <path d="M 467.019269 674.277812 
L 467.019269 378.437812 
" clip-path="url(#p9bba4e6272)" style="fill: none; stroke: #b0b0b0; stroke-opacity: 0.3; stroke-width: 0.8; stroke-linecap: square"/>
     </g>
     <g id="line2d_34">
      <g>
       <use xlink:href="#mf7a6ad9501" x="467.019269" y="674.277812" style="stroke: #000000; stroke-width: 0.8"/>
      </g>
     </g>
     <g id="text_26">
      <!-- 2010.0 -->
      <g transform="translate(449.523956 688.87625) scale(0.1 -0.1)">
       <use xlink:href="#DejaVuSans-32"/>
       <use xlink:href="#DejaVuSans-30" transform="translate(63.623047 0)"/>
       <use xlink:href="#DejaVuSans-31" transform="translate(127.246094 0)"/>
       <use xlink:href="#DejaVuSans-30" transform="translate(190.869141 0)"/>
       <use xlink:href="#DejaVuSans-2e" transform="translate(254.492188 0)"/>
       <use xlink:href="#DejaVuSans-30" transform="translate(286.279297 0)"/>
      </g>
     </g>
    </g>
    <g id="xtick_13">
     <g id="line2d_35">
      <path d="M 577.0408 674.277812 
L 577.0408 378.437812 
" clip-path="url(#p9bba4e6272)" style="fill: none; stroke: #b0b0b0; stroke-opacity: 0.3; stroke-width: 0.8; stroke-linecap: square"/>
     </g>
     <g id="line2d_36">
      <g>
       <use xlink:href="#mf7a6ad9501" x="577.0408" y="674.277812" style="stroke: #000000; stroke-width: 0.8"/>
      </g>
     </g>
     <g id="text_27">
      <!-- 2012.5 -->
      <g transform="translate(559.545487 688.87625) scale(0.1 -0.1)">
       <use xlink:href="#DejaVuSans-32"/>
       <use xlink:href="#DejaVuSans-30" transform="translate(63.623047 0)"/>
       <use xlink:href="#DejaVuSans-31" transform="translate(127.246094 0)"/>
       <use xlink:href="#DejaVuSans-32" transform="translate(190.869141 0)"/>
       <use xlink:href="#DejaVuSans-2e" transform="translate(254.492188 0)"/>
       <use xlink:href="#DejaVuSans-35" transform="translate(286.279297 0)"/>
      </g>
     </g>
    </g>
    <g id="xtick_14">
     <g id="line2d_37">
      <path d="M 687.062331 674.277812 
L 687.062331 378.437812 
" clip-path="url(#p9bba4e6272)" style="fill: none; stroke: #b0b0b0; stroke-opacity: 0.3; stroke-width: 0.8; stroke-linecap: square"/>
     </g>
     <g id="line2d_38">
      <g>
       <use xlink:href="#mf7a6ad9501" x="687.062331" y="674.277812" style="stroke: #000000; stroke-width: 0.8"/>
      </g>
     </g>
     <g id="text_28">
      <!-- 2015.0 -->
      <g transform="translate(669.567019 688.87625) scale(0.1 -0.1)">
       <use xlink:href="#DejaVuSans-32"/>
       <use xlink:href="#DejaVuSans-30" transform="translate(63.623047 0)"/>
       <use xlink:href="#DejaVuSans-31" transform="translate(127.246094 0)"/>
       <use xlink:href="#DejaVuSans-35" transform="translate(190.869141 0)"/>
       <use xlink:href="#DejaVuSans-2e" transform="translate(254.492188 0)"/>
       <use xlink:href="#DejaVuSans-30" transform="translate(286.279297 0)"/>
      </g>
     </g>
    </g>
    <g id="xtick_15">
     <g id="line2d_39">
      <path d="M 797.083862 674.277812 
L 797.083862 378.437812 
" clip-path="url(#p9bba4e6272)" style="fill: none; stroke: #b0b0b0; stroke-opacity: 0.3; stroke-width: 0.8; stroke-linecap: square"/>
     </g>
     <g id="line2d_40">
      <g>
       <use xlink:href="#mf7a6ad9501" x="797.083862" y="674.277812" style="stroke: #000000; stroke-width: 0.8"/>
      </g>
     </g>
     <g id="text_29">
      <!-- 2017.5 -->
      <g transform="translate(779.58855 688.87625) scale(0.1 -0.1)">
       <use xlink:href="#DejaVuSans-32"/>
       <use xlink:href="#DejaVuSans-30" transform="translate(63.623047 0)"/>
       <use xlink:href="#DejaVuSans-31" transform="translate(127.246094 0)"/>
       <use xlink:href="#DejaVuSans-37" transform="translate(190.869141 0)"/>
       <use xlink:href="#DejaVuSans-2e" transform="translate(254.492188 0)"/>
       <use xlink:href="#DejaVuSans-35" transform="translate(286.279297 0)"/>
      </g>
     </g>
    </g>
    <g id="xtick_16">
     <g id="line2d_41">
      <path d="M 907.105393 674.277812 
L 907.105393 378.437812 
" clip-path="url(#p9bba4e6272)" style="fill: none; stroke: #b0b0b0; stroke-opacity: 0.3; stroke-width: 0.8; stroke-linecap: square"/>
     </g>
     <g id="line2d_42">
      <g>
       <use xlink:href="#mf7a6ad9501" x="907.105393" y="674.277812" style="stroke: #000000; stroke-width: 0.8"/>
      </g>
     </g>
     <g id="text_30">
      <!-- 2020.0 -->
      <g transform="translate(889.610081 688.87625) scale(0.1 -0.1)">
       <use xlink:href="#DejaVuSans-32"/>
       <use xlink:href="#DejaVuSans-30" transform="translate(63.623047 0)"/>
       <use xlink:href="#DejaVuSans-32" transform="translate(127.246094 0)"/>
       <use xlink:href="#DejaVuSans-30" transform="translate(190.869141 0)"/>
       <use xlink:href="#DejaVuSans-2e" transform="translate(254.492188 0)"/>
       <use xlink:href="#DejaVuSans-30" transform="translate(286.279297 0)"/>
      </g>
     </g>
    </g>
    <g id="text_31">
     <!-- Year -->
     <g transform="translate(522.444688 702.554375) scale(0.1 -0.1)">
      <use xlink:href="#DejaVuSans-59"/>
      <use xlink:href="#DejaVuSans-65" transform="translate(47.833984 0)"/>
      <use xlink:href="#DejaVuSans-61" transform="translate(109.357422 0)"/>
      <use xlink:href="#DejaVuSans-72" transform="translate(170.636719 0)"/>
     </g>
    </g>
   </g>
   <g id="matplotlib.axis_4">
    <g id="ytick_10">
     <g id="line2d_43">
      <g>
       <use xlink:href="#me8f4f5352a" x="73.142188" y="526.357812" style="stroke: #000000; stroke-width: 0.8"/>
      </g>
     </g>
     <g id="text_32">
      <!-- Available -->
      <g transform="translate(20.878125 530.157031) scale(0.1 -0.1)">
       <defs>
        <path id="DejaVuSans-41" d="M 2188 4044 
L 1331 1722 
L 3047 1722 
L 2188 4044 
z
M 1831 4666 
L 2547 4666 
L 4325 0 
L 3669 0 
L 3244 1197 
L 1141 1197 
L 716 0 
L 50 0 
L 1831 4666 
z
" transform="scale(0.015625)"/>
       </defs>
       <use xlink:href="#DejaVuSans-41"/>
       <use xlink:href="#DejaVuSans-76" transform="translate(62.533203 0)"/>
       <use xlink:href="#DejaVuSans-61" transform="translate(121.712891 0)"/>
       <use xlink:href="#DejaVuSans-69" transform="translate(182.992188 0)"/>
       <use xlink:href="#DejaVuSans-6c" transform="translate(210.775391 0)"/>
       <use xlink:href="#DejaVuSans-61" transform="translate(238.558594 0)"/>
       <use xlink:href="#DejaVuSans-62" transform="translate(299.837891 0)"/>
       <use xlink:href="#DejaVuSans-6c" transform="translate(363.314453 0)"/>
       <use xlink:href="#DejaVuSans-65" transform="translate(391.097656 0)"/>
      </g>
     </g>
    </g>
    <g id="text_33">
     <!-- Climate Integration Status -->
     <g transform="translate(14.798438 592.260156) rotate(-90) scale(0.1 -0.1)">
      <defs>
       <path id="DejaVuSans-74" d="M 1172 4494 
L 1172 3500 
L 2356 3500 
L 2356 3053 
L 1172 3053 
L 1172 1153 
Q 1172 725 1289 603 
Q 1406 481 1766 481 
L 2356 481 
L 2356 0 
L 1766 0 
Q 1100 0 847 248 
Q 594 497 594 1153 
L 594 3053 
L 172 3053 
L 172 3500 
L 594 3500 
L 594 4494 
L 1172 4494 
z
" transform="scale(0.015625)"/>
       <path id="DejaVuSans-49" d="M 628 4666 
L 1259 4666 
L 1259 0 
L 628 0 
L 628 4666 
z
" transform="scale(0.015625)"/>
       <path id="DejaVuSans-67" d="M 2906 1791 
Q 2906 2416 2648 2759 
Q 2391 3103 1925 3103 
Q 1463 3103 1205 2759 
Q 947 2416 947 1791 
Q 947 1169 1205 825 
Q 1463 481 1925 481 
Q 2391 481 2648 825 
Q 2906 1169 2906 1791 
z
M 3481 434 
Q 3481 -459 3084 -895 
Q 2688 -1331 1869 -1331 
Q 1566 -1331 1297 -1286 
Q 1028 -1241 775 -1147 
L 775 -588 
Q 1028 -725 1275 -790 
Q 1522 -856 1778 -856 
Q 2344 -856 2625 -561 
Q 2906 -266 2906 331 
L 2906 616 
Q 2728 306 2450 153 
Q 2172 0 1784 0 
Q 1141 0 747 490 
Q 353 981 353 1791 
Q 353 2603 747 3093 
Q 1141 3584 1784 3584 
Q 2172 3584 2450 3431 
Q 2728 3278 2906 2969 
L 2906 3500 
L 3481 3500 
L 3481 434 
z
" transform="scale(0.015625)"/>
      </defs>
      <use xlink:href="#DejaVuSans-43"/>
      <use xlink:href="#DejaVuSans-6c" transform="translate(69.824219 0)"/>
      <use xlink:href="#DejaVuSans-69" transform="translate(97.607422 0)"/>
      <use xlink:href="#DejaVuSans-6d" transform="translate(125.390625 0)"/>
      <use xlink:href="#DejaVuSans-61" transform="translate(222.802734 0)"/>
      <use xlink:href="#DejaVuSans-74" transform="translate(284.082031 0)"/>
      <use xlink:href="#DejaVuSans-65" transform="translate(323.291016 0)"/>
      <use xlink:href="#DejaVuSans-20" transform="translate(384.814453 0)"/>
      <use xlink:href="#DejaVuSans-49" transform="translate(416.601562 0)"/>
      <use xlink:href="#DejaVuSans-6e" transform="translate(446.09375 0)"/>
      <use xlink:href="#DejaVuSans-74" transform="translate(509.472656 0)"/>
      <use xlink:href="#DejaVuSans-65" transform="translate(548.681641 0)"/>
      <use xlink:href="#DejaVuSans-67" transform="translate(610.205078 0)"/>
      <use xlink:href="#DejaVuSans-72" transform="translate(673.681641 0)"/>
      <use xlink:href="#DejaVuSans-61" transform="translate(714.794922 0)"/>
      <use xlink:href="#DejaVuSans-74" transform="translate(776.074219 0)"/>
      <use xlink:href="#DejaVuSans-69" transform="translate(815.283203 0)"/>
      <use xlink:href="#DejaVuSans-6f" transform="translate(843.066406 0)"/>
      <use xlink:href="#DejaVuSans-6e" transform="translate(904.248047 0)"/>
      <use xlink:href="#DejaVuSans-20" transform="translate(967.626953 0)"/>
      <use xlink:href="#DejaVuSans-53" transform="translate(999.414062 0)"/>
      <use xlink:href="#DejaVuSans-74" transform="translate(1062.890625 0)"/>
      <use xlink:href="#DejaVuSans-61" transform="translate(1102.099609 0)"/>
      <use xlink:href="#DejaVuSans-74" transform="translate(1163.378906 0)"/>
      <use xlink:href="#DejaVuSans-75" transform="translate(1202.587891 0)"/>
      <use xlink:href="#DejaVuSans-73" transform="translate(1265.966797 0)"/>
     </g>
    </g>
   </g>
   <g id="patch_41">
    <path d="M 73.142188 674.277812 
L 73.142188 378.437812 
" style="fill: none; stroke: #000000; stroke-width: 0.8; stroke-linejoin: miter; stroke-linecap: square"/>
   </g>
   <g id="patch_42">
    <path d="M 992.922188 674.277812 
L 992.922188 378.437812 
" style="fill: none; stroke: #000000; stroke-width: 0.8; stroke-linejoin: miter; stroke-linecap: square"/>
   </g>
   <g id="patch_43">
    <path d="M 73.142187 674.277812 
L 992.922187 674.277812 
" style="fill: none; stroke: #000000; stroke-width: 0.8; stroke-linejoin: miter; stroke-linecap: square"/>
   </g>
   <g id="patch_44">
    <path d="M 73.142187 378.437812 
L 992.922187 378.437812 
" style="fill: none; stroke: #000000; stroke-width: 0.8; stroke-linejoin: miter; stroke-linecap: square"/>
   </g>
   <g id="text_34">
    <!-- Climate Data Integration Status by Year -->
    <g transform="translate(375.256563 372.437812) scale(0.14 -0.14)">
     <defs>
      <path id="DejaVuSans-Bold-43" d="M 4288 256 
Q 3956 84 3597 -3 
Q 3238 -91 2847 -91 
Q 1681 -91 1000 561 
Q 319 1213 319 2328 
Q 319 3447 1000 4098 
Q 1681 4750 2847 4750 
Q 3238 4750 3597 4662 
Q 3956 4575 4288 4403 
L 4288 3438 
Q 3953 3666 3628 3772 
Q 3303 3878 2944 3878 
Q 2300 3878 1931 3465 
Q 1563 3053 1563 2328 
Q 1563 1606 1931 1193 
Q 2300 781 2944 781 
Q 3303 781 3628 887 
Q 3953 994 4288 1222 
L 4288 256 
z
" transform="scale(0.015625)"/>
      <path id="DejaVuSans-Bold-6d" d="M 3781 2919 
Q 3994 3244 4286 3414 
Q 4578 3584 4928 3584 
Q 5531 3584 5847 3212 
Q 6163 2841 6163 2131 
L 6163 0 
L 5038 0 
L 5038 1825 
Q 5041 1866 5042 1909 
Q 5044 1953 5044 2034 
Q 5044 2406 4934 2573 
Q 4825 2741 4581 2741 
Q 4263 2741 4089 2478 
Q 3916 2216 3909 1719 
L 3909 0 
L 2784 0 
L 2784 1825 
Q 2784 2406 2684 2573 
Q 2584 2741 2328 2741 
Q 2006 2741 1831 2477 
Q 1656 2213 1656 1722 
L 1656 0 
L 531 0 
L 531 3500 
L 1656 3500 
L 1656 2988 
Q 1863 3284 2130 3434 
Q 2397 3584 2719 3584 
Q 3081 3584 3359 3409 
Q 3638 3234 3781 2919 
z
" transform="scale(0.015625)"/>
      <path id="DejaVuSans-Bold-49" d="M 588 4666 
L 1791 4666 
L 1791 0 
L 588 0 
L 588 4666 
z
" transform="scale(0.015625)"/>
      <path id="DejaVuSans-Bold-67" d="M 2919 594 
Q 2688 288 2409 144 
Q 2131 0 1766 0 
Q 1125 0 706 504 
Q 288 1009 288 1791 
Q 288 2575 706 3076 
Q 1125 3578 1766 3578 
Q 2131 3578 2409 3434 
Q 2688 3291 2919 2981 
L 2919 3500 
L 4044 3500 
L 4044 353 
Q 4044 -491 3511 -936 
Q 2978 -1381 1966 -1381 
Q 1638 -1381 1331 -1331 
Q 1025 -1281 716 -1178 
L 716 -306 
Q 1009 -475 1290 -558 
Q 1572 -641 1856 -641 
Q 2406 -641 2662 -400 
Q 2919 -159 2919 353 
L 2919 594 
z
M 2181 2772 
Q 1834 2772 1640 2515 
Q 1447 2259 1447 1791 
Q 1447 1309 1634 1061 
Q 1822 813 2181 813 
Q 2531 813 2725 1069 
Q 2919 1325 2919 1791 
Q 2919 2259 2725 2515 
Q 2531 2772 2181 2772 
z
" transform="scale(0.015625)"/>
      <path id="DejaVuSans-Bold-73" d="M 3272 3391 
L 3272 2541 
Q 2913 2691 2578 2766 
Q 2244 2841 1947 2841 
Q 1628 2841 1473 2761 
Q 1319 2681 1319 2516 
Q 1319 2381 1436 2309 
Q 1553 2238 1856 2203 
L 2053 2175 
Q 2913 2066 3209 1816 
Q 3506 1566 3506 1031 
Q 3506 472 3093 190 
Q 2681 -91 1863 -91 
Q 1516 -91 1145 -36 
Q 775 19 384 128 
L 384 978 
Q 719 816 1070 734 
Q 1422 653 1784 653 
Q 2113 653 2278 743 
Q 2444 834 2444 1013 
Q 2444 1163 2330 1236 
Q 2216 1309 1875 1350 
L 1678 1375 
Q 931 1469 631 1722 
Q 331 1975 331 2491 
Q 331 3047 712 3315 
Q 1094 3584 1881 3584 
Q 2191 3584 2531 3537 
Q 2872 3491 3272 3391 
z
" transform="scale(0.015625)"/>
     </defs>
     <use xlink:href="#DejaVuSans-Bold-43"/>
     <use xlink:href="#DejaVuSans-Bold-6c" transform="translate(73.388672 0)"/>
     <use xlink:href="#DejaVuSans-Bold-69" transform="translate(107.666016 0)"/>
     <use xlink:href="#DejaVuSans-Bold-6d" transform="translate(141.943359 0)"/>
     <use xlink:href="#DejaVuSans-Bold-61" transform="translate(246.142578 0)"/>
     <use xlink:href="#DejaVuSans-Bold-74" transform="translate(313.623047 0)"/>
     <use xlink:href="#DejaVuSans-Bold-65" transform="translate(361.425781 0)"/>
     <use xlink:href="#DejaVuSans-Bold-20" transform="translate(429.248047 0)"/>
     <use xlink:href="#DejaVuSans-Bold-44" transform="translate(464.0625 0)"/>
     <use xlink:href="#DejaVuSans-Bold-61" transform="translate(547.070312 0)"/>
     <use xlink:href="#DejaVuSans-Bold-74" transform="translate(614.550781 0)"/>
     <use xlink:href="#DejaVuSans-Bold-61" transform="translate(662.353516 0)"/>
     <use xlink:href="#DejaVuSans-Bold-20" transform="translate(729.833984 0)"/>
     <use xlink:href="#DejaVuSans-Bold-49" transform="translate(764.648438 0)"/>
     <use xlink:href="#DejaVuSans-Bold-6e" transform="translate(801.855469 0)"/>
     <use xlink:href="#DejaVuSans-Bold-74" transform="translate(873.046875 0)"/>
     <use xlink:href="#DejaVuSans-Bold-65" transform="translate(920.849609 0)"/>
     <use xlink:href="#DejaVuSans-Bold-67" transform="translate(988.671875 0)"/>
     <use xlink:href="#DejaVuSans-Bold-72" transform="translate(1060.253906 0)"/>
     <use xlink:href="#DejaVuSans-Bold-61" transform="translate(1109.570312 0)"/>
     <use xlink:href="#DejaVuSans-Bold-74" transform="translate(1177.050781 0)"/>
     <use xlink:href="#DejaVuSans-Bold-69" transform="translate(1224.853516 0)"/>
     <use xlink:href="#DejaVuSans-Bold-6f" transform="translate(1259.130859 0)"/>
     <use xlink:href="#DejaVuSans-Bold-6e" transform="translate(1327.832031 0)"/>
     <use xlink:href="#DejaVuSans-Bold-20" transform="translate(1399.023438 0)"/>
     <use xlink:href="#DejaVuSans-Bold-53" transform="translate(1433.837891 0)"/>
     <use xlink:href="#DejaVuSans-Bold-74" transform="translate(1505.859375 0)"/>
     <use xlink:href="#DejaVuSans-Bold-61" transform="translate(1553.662109 0)"/>
     <use xlink:href="#DejaVuSans-Bold-74" transform="translate(1621.142578 0)"/>
     <use xlink:href="#DejaVuSans-Bold-75" transform="translate(1668.945312 0)"/>
     <use xlink:href="#DejaVuSans-Bold-73" transform="translate(1740.136719 0)"/>
     <use xlink:href="#DejaVuSans-Bold-20" transform="translate(1799.658203 0)"/>
     <use xlink:href="#DejaVuSans-Bold-62" transform="translate(1834.472656 0)"/>
     <use xlink:href="#DejaVuSans-Bold-79" transform="translate(1906.054688 0)"/>
     <use xlink:href="#DejaVuSans-Bold-20" transform="translate(1971.240234 0)"/>
     <use xlink:href="#DejaVuSans-Bold-59" transform="translate(2006.054688 0)"/>
     <use xlink:href="#DejaVuSans-Bold-65" transform="translate(2069.341797 0)"/>
     <use xlink:href="#DejaVuSans-Bold-61" transform="translate(2137.164062 0)"/>
     <use xlink:href="#DejaVuSans-Bold-72" transform="translate(2204.644531 0)"/>
    </g>
   </g>
   <g id="legend_2">
    <g id="patch_45">
     <path d="M 864.2175 430.472187 
L 985.922188 430.472187 
Q 987.922188 430.472187 987.922188 428.472187 
L 987.922188 385.437812 
Q 987.922188 383.437812 985.922188 383.437812 
L 864.2175 383.437812 
Q 862.2175 383.437812 862.2175 385.437812 
L 862.2175 428.472187 
Q 862.2175 430.472187 864.2175 430.472187 
z
" style="fill: #ffffff; opacity: 0.8; stroke: #cccccc; stroke-linejoin: miter"/>
    </g>
    <g id="patch_46">
     <path d="M 866.2175 395.03625 
L 886.2175 395.03625 
L 886.2175 388.03625 
L 866.2175 388.03625 
z
" style="fill: #ff0000; opacity: 0.7"/>
    </g>
    <g id="text_35">
     <!-- No Integration -->
     <g transform="translate(894.2175 395.03625) scale(0.1 -0.1)">
      <use xlink:href="#DejaVuSans-4e"/>
      <use xlink:href="#DejaVuSans-6f" transform="translate(74.804688 0)"/>
      <use xlink:href="#DejaVuSans-20" transform="translate(135.986328 0)"/>
      <use xlink:href="#DejaVuSans-49" transform="translate(167.773438 0)"/>
      <use xlink:href="#DejaVuSans-6e" transform="translate(197.265625 0)"/>
      <use xlink:href="#DejaVuSans-74" transform="translate(260.644531 0)"/>
      <use xlink:href="#DejaVuSans-65" transform="translate(299.853516 0)"/>
      <use xlink:href="#DejaVuSans-67" transform="translate(361.376953 0)"/>
      <use xlink:href="#DejaVuSans-72" transform="translate(424.853516 0)"/>
      <use xlink:href="#DejaVuSans-61" transform="translate(465.966797 0)"/>
      <use xlink:href="#DejaVuSans-74" transform="translate(527.246094 0)"/>
      <use xlink:href="#DejaVuSans-69" transform="translate(566.455078 0)"/>
      <use xlink:href="#DejaVuSans-6f" transform="translate(594.238281 0)"/>
      <use xlink:href="#DejaVuSans-6e" transform="translate(655.419922 0)"/>
     </g>
    </g>
    <g id="patch_47">
     <path d="M 866.2175 409.714375 
L 886.2175 409.714375 
L 886.2175 402.714375 
L 866.2175 402.714375 
z
" style="fill: #ffff00; opacity: 0.7"/>
    </g>
    <g id="text_36">
     <!-- Partial Integration -->
     <g transform="translate(894.2175 409.714375) scale(0.1 -0.1)">
      <use xlink:href="#DejaVuSans-50"/>
      <use xlink:href="#DejaVuSans-61" transform="translate(55.802734 0)"/>
      <use xlink:href="#DejaVuSans-72" transform="translate(117.082031 0)"/>
      <use xlink:href="#DejaVuSans-74" transform="translate(158.195312 0)"/>
      <use xlink:href="#DejaVuSans-69" transform="translate(197.404297 0)"/>
      <use xlink:href="#DejaVuSans-61" transform="translate(225.1875 0)"/>
      <use xlink:href="#DejaVuSans-6c" transform="translate(286.466797 0)"/>
      <use xlink:href="#DejaVuSans-20" transform="translate(314.25 0)"/>
      <use xlink:href="#DejaVuSans-49" transform="translate(346.037109 0)"/>
      <use xlink:href="#DejaVuSans-6e" transform="translate(375.529297 0)"/>
      <use xlink:href="#DejaVuSans-74" transform="translate(438.908203 0)"/>
      <use xlink:href="#DejaVuSans-65" transform="translate(478.117188 0)"/>
      <use xlink:href="#DejaVuSans-67" transform="translate(539.640625 0)"/>
      <use xlink:href="#DejaVuSans-72" transform="translate(603.117188 0)"/>
      <use xlink:href="#DejaVuSans-61" transform="translate(644.230469 0)"/>
      <use xlink:href="#DejaVuSans-74" transform="translate(705.509766 0)"/>
      <use xlink:href="#DejaVuSans-69" transform="translate(744.71875 0)"/>
      <use xlink:href="#DejaVuSans-6f" transform="translate(772.501953 0)"/>
      <use xlink:href="#DejaVuSans-6e" transform="translate(833.683594 0)"/>
     </g>
    </g>
    <g id="patch_48">
     <path d="M 866.2175 424.3925 
L 886.2175 424.3925 
L 886.2175 417.3925 
L 866.2175 417.3925 
z
" style="fill: #008000; opacity: 0.7"/>
    </g>
    <g id="text_37">
     <!-- Full Integration -->
     <g transform="translate(894.2175 424.3925) scale(0.1 -0.1)">
      <defs>
       <path id="DejaVuSans-46" d="M 628 4666 
L 3309 4666 
L 3309 4134 
L 1259 4134 
L 1259 2759 
L 3109 2759 
L 3109 2228 
L 1259 2228 
L 1259 0 
L 628 0 
L 628 4666 
z
" transform="scale(0.015625)"/>
      </defs>
      <use xlink:href="#DejaVuSans-46"/>
      <use xlink:href="#DejaVuSans-75" transform="translate(52.019531 0)"/>
      <use xlink:href="#DejaVuSans-6c" transform="translate(115.398438 0)"/>
      <use xlink:href="#DejaVuSans-6c" transform="translate(143.181641 0)"/>
      <use xlink:href="#DejaVuSans-20" transform="translate(170.964844 0)"/>
      <use xlink:href="#DejaVuSans-49" transform="translate(202.751953 0)"/>
      <use xlink:href="#DejaVuSans-6e" transform="translate(232.244141 0)"/>
      <use xlink:href="#DejaVuSans-74" transform="translate(295.623047 0)"/>
      <use xlink:href="#DejaVuSans-65" transform="translate(334.832031 0)"/>
      <use xlink:href="#DejaVuSans-67" transform="translate(396.355469 0)"/>
      <use xlink:href="#DejaVuSans-72" transform="translate(459.832031 0)"/>
      <use xlink:href="#DejaVuSans-61" transform="translate(500.945312 0)"/>
      <use xlink:href="#DejaVuSans-74" transform="translate(562.224609 0)"/>
      <use xlink:href="#DejaVuSans-69" transform="translate(601.433594 0)"/>
      <use xlink:href="#DejaVuSans-6f" transform="translate(629.216797 0)"/>
      <use xlink:href="#DejaVuSans-6e" transform="translate(690.398438 0)"/>
     </g>
    </g>
   </g>
  </g>
 </g>
 <defs>
  <clipPath id="p126a3c9a02">
   <rect x="73.142188" y="23.837812" width="919.78" height="295.84"/>
  </clipPath>
  <clipPath id="p9bba4e6272">
   <rect x="73.142188" y="378.437812" width="919.78" height="295.84"/>
  </clipPath>
 </defs>
</svg>
