<?xml version="1.0" encoding="utf-8" standalone="no"?>
<!DOCTYPE svg PUBLIC "-//W3C//DTD SVG 1.1//EN"
  "http://www.w3.org/Graphics/SVG/1.1/DTD/svg11.dtd">
<svg xmlns:xlink="http://www.w3.org/1999/xlink" width="1142.16858pt" height="853.901752pt" viewBox="0 0 1142.16858 853.901752" xmlns="http://www.w3.org/2000/svg" version="1.1">
 <metadata>
  <rdf:RDF xmlns:dc="http://purl.org/dc/elements/1.1/" xmlns:cc="http://creativecommons.org/ns#" xmlns:rdf="http://www.w3.org/1999/02/22-rdf-syntax-ns#">
   <cc:Work>
    <dc:type rdf:resource="http://purl.org/dc/dcmitype/StillImage"/>
    <dc:date>2025-09-15T13:22:46.936706</dc:date>
    <dc:format>image/svg+xml</dc:format>
    <dc:creator>
     <cc:Agent>
      <dc:title>Matplotlib v3.10.5, https://matplotlib.org/</dc:title>
     </cc:Agent>
    </dc:creator>
   </cc:Work>
  </rdf:RDF>
 </metadata>
 <defs>
  <style type="text/css">*{stroke-linejoin: round; stroke-linecap: butt}</style>
 </defs>
 <g id="figure_1">
  <g id="patch_1">
   <path d="M 0 853.901752 
L 1142.16858 853.901752 
L 1142.16858 0 
L 0 0 
z
" style="fill: #ffffff"/>
  </g>
  <g id="axes_1">
   <g id="patch_2">
    <path d="M 299.969956 69.602341 
C 283.458045 69.602341 267.084576 72.623043 251.659656 78.514992 
C 236.234736 84.40694 222.017022 93.071335 209.709961 104.07949 
C 197.4029 115.087644 187.212866 128.254965 179.64403 142.929976 
C 172.075194 157.604987 167.254476 173.541605 165.420389 189.951338 
C 163.586302 206.361072 164.769602 222.968748 168.911743 238.952674 
C 173.053883 254.9366 180.085406 270.028744 189.658414 283.482396 
C 199.231423 296.936047 211.185388 308.525604 224.928867 317.677654 
C 238.672346 326.829703 253.974877 333.390775 270.07934 337.03625 
C 286.183803 340.681724 302.820146 341.350471 319.165256 339.009403 
C 335.510366 336.668334 351.290155 331.356707 365.723891 323.337324 
C 380.157626 315.317941 393.003271 304.725277 403.625265 292.083424 
C 414.247259 279.44157 422.467483 264.962515 427.879228 249.362635 
C 433.290973 233.762756 435.80349 217.303643 435.292467 200.799642 
C 434.781445 184.29564 431.255452 168.023501 424.888945 152.788318 
C 418.522437 137.553135 409.422173 123.610384 398.038404 111.649906 
C 386.654634 99.689429 373.178252 89.911788 358.276026 82.800751 
L 299.969956 204.989706 
z
" style="fill: #1f77b4"/>
   </g>
   <g id="patch_3">
    <path d="M 358.276058 82.800765 
C 349.199774 78.469748 339.669141 75.163473 329.860627 72.943171 
C 320.052114 70.72287 310.026648 69.602341 299.969975 69.602341 
L 299.969956 204.989706 
z
" style="fill: #ff7f0e"/>
   </g>
   <g id="matplotlib.axis_1"/>
   <g id="matplotlib.axis_2"/>
   <g id="text_1">
    <!-- GCRO -->
    <g transform="translate(237.538745 353.000286) scale(0.1 -0.1)">
     <defs>
      <path id="DejaVuSans-47" d="M 3809 666 
L 3809 1919 
L 2778 1919 
L 2778 2438 
L 4434 2438 
L 4434 434 
Q 4069 175 3628 42 
Q 3188 -91 2688 -91 
Q 1594 -91 976 548 
Q 359 1188 359 2328 
Q 359 3472 976 4111 
Q 1594 4750 2688 4750 
Q 3144 4750 3555 4637 
Q 3966 4525 4313 4306 
L 4313 3634 
Q 3963 3931 3569 4081 
Q 3175 4231 2741 4231 
Q 1884 4231 1454 3753 
Q 1025 3275 1025 2328 
Q 1025 1384 1454 906 
Q 1884 428 2741 428 
Q 3075 428 3337 486 
Q 3600 544 3809 666 
z
" transform="scale(0.015625)"/>
      <path id="DejaVuSans-43" d="M 4122 4306 
L 4122 3641 
Q 3803 3938 3442 4084 
Q 3081 4231 2675 4231 
Q 1875 4231 1450 3742 
Q 1025 3253 1025 2328 
Q 1025 1406 1450 917 
Q 1875 428 2675 428 
Q 3081 428 3442 575 
Q 3803 722 4122 1019 
L 4122 359 
Q 3791 134 3420 21 
Q 3050 -91 2638 -91 
Q 1578 -91 968 557 
Q 359 1206 359 2328 
Q 359 3453 968 4101 
Q 1578 4750 2638 4750 
Q 3056 4750 3426 4639 
Q 3797 4528 4122 4306 
z
" transform="scale(0.015625)"/>
      <path id="DejaVuSans-52" d="M 2841 2188 
Q 3044 2119 3236 1894 
Q 3428 1669 3622 1275 
L 4263 0 
L 3584 0 
L 2988 1197 
Q 2756 1666 2539 1819 
Q 2322 1972 1947 1972 
L 1259 1972 
L 1259 0 
L 628 0 
L 628 4666 
L 2053 4666 
Q 2853 4666 3247 4331 
Q 3641 3997 3641 3322 
Q 3641 2881 3436 2590 
Q 3231 2300 2841 2188 
z
M 1259 4147 
L 1259 2491 
L 2053 2491 
Q 2509 2491 2742 2702 
Q 2975 2913 2975 3322 
Q 2975 3731 2742 3939 
Q 2509 4147 2053 4147 
L 1259 4147 
z
" transform="scale(0.015625)"/>
      <path id="DejaVuSans-4f" d="M 2522 4238 
Q 1834 4238 1429 3725 
Q 1025 3213 1025 2328 
Q 1025 1447 1429 934 
Q 1834 422 2522 422 
Q 3209 422 3611 934 
Q 4013 1447 4013 2328 
Q 4013 3213 3611 3725 
Q 3209 4238 2522 4238 
z
M 2522 4750 
Q 3503 4750 4090 4092 
Q 4678 3434 4678 2328 
Q 4678 1225 4090 567 
Q 3503 -91 2522 -91 
Q 1538 -91 948 565 
Q 359 1222 359 2328 
Q 359 3434 948 4092 
Q 1538 4750 2522 4750 
z
" transform="scale(0.015625)"/>
     </defs>
     <use xlink:href="#DejaVuSans-47"/>
     <use xlink:href="#DejaVuSans-43" transform="translate(77.490234 0)"/>
     <use xlink:href="#DejaVuSans-52" transform="translate(147.314453 0)"/>
     <use xlink:href="#DejaVuSans-4f" transform="translate(216.796875 0)"/>
    </g>
   </g>
   <g id="text_2">
    <!-- 92.9% -->
    <g transform="translate(266.152009 286.977011) scale(0.1 -0.1)">
     <defs>
      <path id="DejaVuSans-39" d="M 703 97 
L 703 672 
Q 941 559 1184 500 
Q 1428 441 1663 441 
Q 2288 441 2617 861 
Q 2947 1281 2994 2138 
Q 2813 1869 2534 1725 
Q 2256 1581 1919 1581 
Q 1219 1581 811 2004 
Q 403 2428 403 3163 
Q 403 3881 828 4315 
Q 1253 4750 1959 4750 
Q 2769 4750 3195 4129 
Q 3622 3509 3622 2328 
Q 3622 1225 3098 567 
Q 2575 -91 1691 -91 
Q 1453 -91 1209 -44 
Q 966 3 703 97 
z
M 1959 2075 
Q 2384 2075 2632 2365 
Q 2881 2656 2881 3163 
Q 2881 3666 2632 3958 
Q 2384 4250 1959 4250 
Q 1534 4250 1286 3958 
Q 1038 3666 1038 3163 
Q 1038 2656 1286 2365 
Q 1534 2075 1959 2075 
z
" transform="scale(0.015625)"/>
      <path id="DejaVuSans-32" d="M 1228 531 
L 3431 531 
L 3431 0 
L 469 0 
L 469 531 
Q 828 903 1448 1529 
Q 2069 2156 2228 2338 
Q 2531 2678 2651 2914 
Q 2772 3150 2772 3378 
Q 2772 3750 2511 3984 
Q 2250 4219 1831 4219 
Q 1534 4219 1204 4116 
Q 875 4013 500 3803 
L 500 4441 
Q 881 4594 1212 4672 
Q 1544 4750 1819 4750 
Q 2544 4750 2975 4387 
Q 3406 4025 3406 3419 
Q 3406 3131 3298 2873 
Q 3191 2616 2906 2266 
Q 2828 2175 2409 1742 
Q 1991 1309 1228 531 
z
" transform="scale(0.015625)"/>
      <path id="DejaVuSans-2e" d="M 684 794 
L 1344 794 
L 1344 0 
L 684 0 
L 684 794 
z
" transform="scale(0.015625)"/>
      <path id="DejaVuSans-25" d="M 4653 2053 
Q 4381 2053 4226 1822 
Q 4072 1591 4072 1178 
Q 4072 772 4226 539 
Q 4381 306 4653 306 
Q 4919 306 5073 539 
Q 5228 772 5228 1178 
Q 5228 1588 5073 1820 
Q 4919 2053 4653 2053 
z
M 4653 2450 
Q 5147 2450 5437 2106 
Q 5728 1763 5728 1178 
Q 5728 594 5436 251 
Q 5144 -91 4653 -91 
Q 4153 -91 3862 251 
Q 3572 594 3572 1178 
Q 3572 1766 3864 2108 
Q 4156 2450 4653 2450 
z
M 1428 4353 
Q 1159 4353 1004 4120 
Q 850 3888 850 3481 
Q 850 3069 1003 2837 
Q 1156 2606 1428 2606 
Q 1700 2606 1854 2837 
Q 2009 3069 2009 3481 
Q 2009 3884 1853 4118 
Q 1697 4353 1428 4353 
z
M 4250 4750 
L 4750 4750 
L 1831 -91 
L 1331 -91 
L 4250 4750 
z
M 1428 4750 
Q 1922 4750 2215 4408 
Q 2509 4066 2509 3481 
Q 2509 2891 2217 2550 
Q 1925 2209 1428 2209 
Q 931 2209 642 2551 
Q 353 2894 353 3481 
Q 353 4063 643 4406 
Q 934 4750 1428 4750 
z
" transform="scale(0.015625)"/>
     </defs>
     <use xlink:href="#DejaVuSans-39"/>
     <use xlink:href="#DejaVuSans-32" transform="translate(63.623047 0)"/>
     <use xlink:href="#DejaVuSans-2e" transform="translate(127.246094 0)"/>
     <use xlink:href="#DejaVuSans-39" transform="translate(159.033203 0)"/>
     <use xlink:href="#DejaVuSans-25" transform="translate(222.65625 0)"/>
    </g>
   </g>
   <g id="text_3">
    <!-- RP2_Clinical -->
    <g transform="translate(332.849627 62.358819) scale(0.1 -0.1)">
     <defs>
      <path id="DejaVuSans-50" d="M 1259 4147 
L 1259 2394 
L 2053 2394 
Q 2494 2394 2734 2622 
Q 2975 2850 2975 3272 
Q 2975 3691 2734 3919 
Q 2494 4147 2053 4147 
L 1259 4147 
z
M 628 4666 
L 2053 4666 
Q 2838 4666 3239 4311 
Q 3641 3956 3641 3272 
Q 3641 2581 3239 2228 
Q 2838 1875 2053 1875 
L 1259 1875 
L 1259 0 
L 628 0 
L 628 4666 
z
" transform="scale(0.015625)"/>
      <path id="DejaVuSans-5f" d="M 3263 -1063 
L 3263 -1509 
L -63 -1509 
L -63 -1063 
L 3263 -1063 
z
" transform="scale(0.015625)"/>
      <path id="DejaVuSans-6c" d="M 603 4863 
L 1178 4863 
L 1178 0 
L 603 0 
L 603 4863 
z
" transform="scale(0.015625)"/>
      <path id="DejaVuSans-69" d="M 603 3500 
L 1178 3500 
L 1178 0 
L 603 0 
L 603 3500 
z
M 603 4863 
L 1178 4863 
L 1178 4134 
L 603 4134 
L 603 4863 
z
" transform="scale(0.015625)"/>
      <path id="DejaVuSans-6e" d="M 3513 2113 
L 3513 0 
L 2938 0 
L 2938 2094 
Q 2938 2591 2744 2837 
Q 2550 3084 2163 3084 
Q 1697 3084 1428 2787 
Q 1159 2491 1159 1978 
L 1159 0 
L 581 0 
L 581 3500 
L 1159 3500 
L 1159 2956 
Q 1366 3272 1645 3428 
Q 1925 3584 2291 3584 
Q 2894 3584 3203 3211 
Q 3513 2838 3513 2113 
z
" transform="scale(0.015625)"/>
      <path id="DejaVuSans-63" d="M 3122 3366 
L 3122 2828 
Q 2878 2963 2633 3030 
Q 2388 3097 2138 3097 
Q 1578 3097 1268 2742 
Q 959 2388 959 1747 
Q 959 1106 1268 751 
Q 1578 397 2138 397 
Q 2388 397 2633 464 
Q 2878 531 3122 666 
L 3122 134 
Q 2881 22 2623 -34 
Q 2366 -91 2075 -91 
Q 1284 -91 818 406 
Q 353 903 353 1747 
Q 353 2603 823 3093 
Q 1294 3584 2113 3584 
Q 2378 3584 2631 3529 
Q 2884 3475 3122 3366 
z
" transform="scale(0.015625)"/>
      <path id="DejaVuSans-61" d="M 2194 1759 
Q 1497 1759 1228 1600 
Q 959 1441 959 1056 
Q 959 750 1161 570 
Q 1363 391 1709 391 
Q 2188 391 2477 730 
Q 2766 1069 2766 1631 
L 2766 1759 
L 2194 1759 
z
M 3341 1997 
L 3341 0 
L 2766 0 
L 2766 531 
Q 2569 213 2275 61 
Q 1981 -91 1556 -91 
Q 1019 -91 701 211 
Q 384 513 384 1019 
Q 384 1609 779 1909 
Q 1175 2209 1959 2209 
L 2766 2209 
L 2766 2266 
Q 2766 2663 2505 2880 
Q 2244 3097 1772 3097 
Q 1472 3097 1187 3025 
Q 903 2953 641 2809 
L 641 3341 
Q 956 3463 1253 3523 
Q 1550 3584 1831 3584 
Q 2591 3584 2966 3190 
Q 3341 2797 3341 1997 
z
" transform="scale(0.015625)"/>
     </defs>
     <use xlink:href="#DejaVuSans-52"/>
     <use xlink:href="#DejaVuSans-50" transform="translate(69.482422 0)"/>
     <use xlink:href="#DejaVuSans-32" transform="translate(129.785156 0)"/>
     <use xlink:href="#DejaVuSans-5f" transform="translate(193.408203 0)"/>
     <use xlink:href="#DejaVuSans-43" transform="translate(243.408203 0)"/>
     <use xlink:href="#DejaVuSans-6c" transform="translate(313.232422 0)"/>
     <use xlink:href="#DejaVuSans-69" transform="translate(341.015625 0)"/>
     <use xlink:href="#DejaVuSans-6e" transform="translate(368.798828 0)"/>
     <use xlink:href="#DejaVuSans-69" transform="translate(432.177734 0)"/>
     <use xlink:href="#DejaVuSans-63" transform="translate(459.960938 0)"/>
     <use xlink:href="#DejaVuSans-61" transform="translate(514.941406 0)"/>
     <use xlink:href="#DejaVuSans-6c" transform="translate(576.220703 0)"/>
    </g>
   </g>
   <g id="text_4">
    <!-- 7.1% -->
    <g transform="translate(305.201978 128.521154) scale(0.1 -0.1)">
     <defs>
      <path id="DejaVuSans-37" d="M 525 4666 
L 3525 4666 
L 3525 4397 
L 1831 0 
L 1172 0 
L 2766 4134 
L 525 4134 
L 525 4666 
z
" transform="scale(0.015625)"/>
      <path id="DejaVuSans-31" d="M 794 531 
L 1825 531 
L 1825 4091 
L 703 3866 
L 703 4441 
L 1819 4666 
L 2450 4666 
L 2450 531 
L 3481 531 
L 3481 0 
L 794 0 
L 794 531 
z
" transform="scale(0.015625)"/>
     </defs>
     <use xlink:href="#DejaVuSans-37"/>
     <use xlink:href="#DejaVuSans-2e" transform="translate(63.623047 0)"/>
     <use xlink:href="#DejaVuSans-31" transform="translate(95.410156 0)"/>
     <use xlink:href="#DejaVuSans-25" transform="translate(159.033203 0)"/>
    </g>
   </g>
   <g id="text_5">
    <!-- Data Source Composition -->
    <g transform="translate(214.405269 16.318125) scale(0.12 -0.12)">
     <defs>
      <path id="DejaVuSans-Bold-44" d="M 1791 3756 
L 1791 909 
L 2222 909 
Q 2959 909 3348 1275 
Q 3738 1641 3738 2338 
Q 3738 3031 3350 3393 
Q 2963 3756 2222 3756 
L 1791 3756 
z
M 588 4666 
L 1856 4666 
Q 2919 4666 3439 4514 
Q 3959 4363 4331 4000 
Q 4659 3684 4818 3271 
Q 4978 2859 4978 2338 
Q 4978 1809 4818 1395 
Q 4659 981 4331 666 
Q 3956 303 3431 151 
Q 2906 0 1856 0 
L 588 0 
L 588 4666 
z
" transform="scale(0.015625)"/>
      <path id="DejaVuSans-Bold-61" d="M 2106 1575 
Q 1756 1575 1579 1456 
Q 1403 1338 1403 1106 
Q 1403 894 1545 773 
Q 1688 653 1941 653 
Q 2256 653 2472 879 
Q 2688 1106 2688 1447 
L 2688 1575 
L 2106 1575 
z
M 3816 1997 
L 3816 0 
L 2688 0 
L 2688 519 
Q 2463 200 2181 54 
Q 1900 -91 1497 -91 
Q 953 -91 614 226 
Q 275 544 275 1050 
Q 275 1666 698 1953 
Q 1122 2241 2028 2241 
L 2688 2241 
L 2688 2328 
Q 2688 2594 2478 2717 
Q 2269 2841 1825 2841 
Q 1466 2841 1156 2769 
Q 847 2697 581 2553 
L 581 3406 
Q 941 3494 1303 3539 
Q 1666 3584 2028 3584 
Q 2975 3584 3395 3211 
Q 3816 2838 3816 1997 
z
" transform="scale(0.015625)"/>
      <path id="DejaVuSans-Bold-74" d="M 1759 4494 
L 1759 3500 
L 2913 3500 
L 2913 2700 
L 1759 2700 
L 1759 1216 
Q 1759 972 1856 886 
Q 1953 800 2241 800 
L 2816 800 
L 2816 0 
L 1856 0 
Q 1194 0 917 276 
Q 641 553 641 1216 
L 641 2700 
L 84 2700 
L 84 3500 
L 641 3500 
L 641 4494 
L 1759 4494 
z
" transform="scale(0.015625)"/>
      <path id="DejaVuSans-Bold-20" transform="scale(0.015625)"/>
      <path id="DejaVuSans-Bold-53" d="M 3834 4519 
L 3834 3531 
Q 3450 3703 3084 3790 
Q 2719 3878 2394 3878 
Q 1963 3878 1756 3759 
Q 1550 3641 1550 3391 
Q 1550 3203 1689 3098 
Q 1828 2994 2194 2919 
L 2706 2816 
Q 3484 2659 3812 2340 
Q 4141 2022 4141 1434 
Q 4141 663 3683 286 
Q 3225 -91 2284 -91 
Q 1841 -91 1394 -6 
Q 947 78 500 244 
L 500 1259 
Q 947 1022 1364 901 
Q 1781 781 2169 781 
Q 2563 781 2772 912 
Q 2981 1044 2981 1288 
Q 2981 1506 2839 1625 
Q 2697 1744 2272 1838 
L 1806 1941 
Q 1106 2091 782 2419 
Q 459 2747 459 3303 
Q 459 4000 909 4375 
Q 1359 4750 2203 4750 
Q 2588 4750 2994 4692 
Q 3400 4634 3834 4519 
z
" transform="scale(0.015625)"/>
      <path id="DejaVuSans-Bold-6f" d="M 2203 2784 
Q 1831 2784 1636 2517 
Q 1441 2250 1441 1747 
Q 1441 1244 1636 976 
Q 1831 709 2203 709 
Q 2569 709 2762 976 
Q 2956 1244 2956 1747 
Q 2956 2250 2762 2517 
Q 2569 2784 2203 2784 
z
M 2203 3584 
Q 3106 3584 3614 3096 
Q 4122 2609 4122 1747 
Q 4122 884 3614 396 
Q 3106 -91 2203 -91 
Q 1297 -91 786 396 
Q 275 884 275 1747 
Q 275 2609 786 3096 
Q 1297 3584 2203 3584 
z
" transform="scale(0.015625)"/>
      <path id="DejaVuSans-Bold-75" d="M 500 1363 
L 500 3500 
L 1625 3500 
L 1625 3150 
Q 1625 2866 1622 2436 
Q 1619 2006 1619 1863 
Q 1619 1441 1641 1255 
Q 1663 1069 1716 984 
Q 1784 875 1895 815 
Q 2006 756 2150 756 
Q 2500 756 2700 1025 
Q 2900 1294 2900 1772 
L 2900 3500 
L 4019 3500 
L 4019 0 
L 2900 0 
L 2900 506 
Q 2647 200 2364 54 
Q 2081 -91 1741 -91 
Q 1134 -91 817 281 
Q 500 653 500 1363 
z
" transform="scale(0.015625)"/>
      <path id="DejaVuSans-Bold-72" d="M 3138 2547 
Q 2991 2616 2845 2648 
Q 2700 2681 2553 2681 
Q 2122 2681 1889 2404 
Q 1656 2128 1656 1613 
L 1656 0 
L 538 0 
L 538 3500 
L 1656 3500 
L 1656 2925 
Q 1872 3269 2151 3426 
Q 2431 3584 2822 3584 
Q 2878 3584 2943 3579 
Q 3009 3575 3134 3559 
L 3138 2547 
z
" transform="scale(0.015625)"/>
      <path id="DejaVuSans-Bold-63" d="M 3366 3391 
L 3366 2478 
Q 3138 2634 2908 2709 
Q 2678 2784 2431 2784 
Q 1963 2784 1702 2511 
Q 1441 2238 1441 1747 
Q 1441 1256 1702 982 
Q 1963 709 2431 709 
Q 2694 709 2930 787 
Q 3166 866 3366 1019 
L 3366 103 
Q 3103 6 2833 -42 
Q 2563 -91 2291 -91 
Q 1344 -91 809 395 
Q 275 881 275 1747 
Q 275 2613 809 3098 
Q 1344 3584 2291 3584 
Q 2566 3584 2833 3536 
Q 3100 3488 3366 3391 
z
" transform="scale(0.015625)"/>
      <path id="DejaVuSans-Bold-65" d="M 4031 1759 
L 4031 1441 
L 1416 1441 
Q 1456 1047 1700 850 
Q 1944 653 2381 653 
Q 2734 653 3104 758 
Q 3475 863 3866 1075 
L 3866 213 
Q 3469 63 3072 -14 
Q 2675 -91 2278 -91 
Q 1328 -91 801 392 
Q 275 875 275 1747 
Q 275 2603 792 3093 
Q 1309 3584 2216 3584 
Q 3041 3584 3536 3087 
Q 4031 2591 4031 1759 
z
M 2881 2131 
Q 2881 2450 2695 2645 
Q 2509 2841 2209 2841 
Q 1884 2841 1681 2658 
Q 1478 2475 1428 2131 
L 2881 2131 
z
" transform="scale(0.015625)"/>
      <path id="DejaVuSans-Bold-43" d="M 4288 256 
Q 3956 84 3597 -3 
Q 3238 -91 2847 -91 
Q 1681 -91 1000 561 
Q 319 1213 319 2328 
Q 319 3447 1000 4098 
Q 1681 4750 2847 4750 
Q 3238 4750 3597 4662 
Q 3956 4575 4288 4403 
L 4288 3438 
Q 3953 3666 3628 3772 
Q 3303 3878 2944 3878 
Q 2300 3878 1931 3465 
Q 1563 3053 1563 2328 
Q 1563 1606 1931 1193 
Q 2300 781 2944 781 
Q 3303 781 3628 887 
Q 3953 994 4288 1222 
L 4288 256 
z
" transform="scale(0.015625)"/>
      <path id="DejaVuSans-Bold-6d" d="M 3781 2919 
Q 3994 3244 4286 3414 
Q 4578 3584 4928 3584 
Q 5531 3584 5847 3212 
Q 6163 2841 6163 2131 
L 6163 0 
L 5038 0 
L 5038 1825 
Q 5041 1866 5042 1909 
Q 5044 1953 5044 2034 
Q 5044 2406 4934 2573 
Q 4825 2741 4581 2741 
Q 4263 2741 4089 2478 
Q 3916 2216 3909 1719 
L 3909 0 
L 2784 0 
L 2784 1825 
Q 2784 2406 2684 2573 
Q 2584 2741 2328 2741 
Q 2006 2741 1831 2477 
Q 1656 2213 1656 1722 
L 1656 0 
L 531 0 
L 531 3500 
L 1656 3500 
L 1656 2988 
Q 1863 3284 2130 3434 
Q 2397 3584 2719 3584 
Q 3081 3584 3359 3409 
Q 3638 3234 3781 2919 
z
" transform="scale(0.015625)"/>
      <path id="DejaVuSans-Bold-70" d="M 1656 506 
L 1656 -1331 
L 538 -1331 
L 538 3500 
L 1656 3500 
L 1656 2988 
Q 1888 3294 2169 3439 
Q 2450 3584 2816 3584 
Q 3463 3584 3878 3070 
Q 4294 2556 4294 1747 
Q 4294 938 3878 423 
Q 3463 -91 2816 -91 
Q 2450 -91 2169 54 
Q 1888 200 1656 506 
z
M 2400 2772 
Q 2041 2772 1848 2508 
Q 1656 2244 1656 1747 
Q 1656 1250 1848 986 
Q 2041 722 2400 722 
Q 2759 722 2948 984 
Q 3138 1247 3138 1747 
Q 3138 2247 2948 2509 
Q 2759 2772 2400 2772 
z
" transform="scale(0.015625)"/>
      <path id="DejaVuSans-Bold-73" d="M 3272 3391 
L 3272 2541 
Q 2913 2691 2578 2766 
Q 2244 2841 1947 2841 
Q 1628 2841 1473 2761 
Q 1319 2681 1319 2516 
Q 1319 2381 1436 2309 
Q 1553 2238 1856 2203 
L 2053 2175 
Q 2913 2066 3209 1816 
Q 3506 1566 3506 1031 
Q 3506 472 3093 190 
Q 2681 -91 1863 -91 
Q 1516 -91 1145 -36 
Q 775 19 384 128 
L 384 978 
Q 719 816 1070 734 
Q 1422 653 1784 653 
Q 2113 653 2278 743 
Q 2444 834 2444 1013 
Q 2444 1163 2330 1236 
Q 2216 1309 1875 1350 
L 1678 1375 
Q 931 1469 631 1722 
Q 331 1975 331 2491 
Q 331 3047 712 3315 
Q 1094 3584 1881 3584 
Q 2191 3584 2531 3537 
Q 2872 3491 3272 3391 
z
" transform="scale(0.015625)"/>
      <path id="DejaVuSans-Bold-69" d="M 538 3500 
L 1656 3500 
L 1656 0 
L 538 0 
L 538 3500 
z
M 538 4863 
L 1656 4863 
L 1656 3950 
L 538 3950 
L 538 4863 
z
" transform="scale(0.015625)"/>
      <path id="DejaVuSans-Bold-6e" d="M 4056 2131 
L 4056 0 
L 2931 0 
L 2931 347 
L 2931 1631 
Q 2931 2084 2911 2256 
Q 2891 2428 2841 2509 
Q 2775 2619 2662 2680 
Q 2550 2741 2406 2741 
Q 2056 2741 1856 2470 
Q 1656 2200 1656 1722 
L 1656 0 
L 538 0 
L 538 3500 
L 1656 3500 
L 1656 2988 
Q 1909 3294 2193 3439 
Q 2478 3584 2822 3584 
Q 3428 3584 3742 3212 
Q 4056 2841 4056 2131 
z
" transform="scale(0.015625)"/>
     </defs>
     <use xlink:href="#DejaVuSans-Bold-44"/>
     <use xlink:href="#DejaVuSans-Bold-61" transform="translate(83.007812 0)"/>
     <use xlink:href="#DejaVuSans-Bold-74" transform="translate(150.488281 0)"/>
     <use xlink:href="#DejaVuSans-Bold-61" transform="translate(198.291016 0)"/>
     <use xlink:href="#DejaVuSans-Bold-20" transform="translate(265.771484 0)"/>
     <use xlink:href="#DejaVuSans-Bold-53" transform="translate(300.585938 0)"/>
     <use xlink:href="#DejaVuSans-Bold-6f" transform="translate(372.607422 0)"/>
     <use xlink:href="#DejaVuSans-Bold-75" transform="translate(441.308594 0)"/>
     <use xlink:href="#DejaVuSans-Bold-72" transform="translate(512.5 0)"/>
     <use xlink:href="#DejaVuSans-Bold-63" transform="translate(561.816406 0)"/>
     <use xlink:href="#DejaVuSans-Bold-65" transform="translate(621.09375 0)"/>
     <use xlink:href="#DejaVuSans-Bold-20" transform="translate(688.916016 0)"/>
     <use xlink:href="#DejaVuSans-Bold-43" transform="translate(723.730469 0)"/>
     <use xlink:href="#DejaVuSans-Bold-6f" transform="translate(797.119141 0)"/>
     <use xlink:href="#DejaVuSans-Bold-6d" transform="translate(865.820312 0)"/>
     <use xlink:href="#DejaVuSans-Bold-70" transform="translate(970.019531 0)"/>
     <use xlink:href="#DejaVuSans-Bold-6f" transform="translate(1041.601562 0)"/>
     <use xlink:href="#DejaVuSans-Bold-73" transform="translate(1110.302734 0)"/>
     <use xlink:href="#DejaVuSans-Bold-69" transform="translate(1169.824219 0)"/>
     <use xlink:href="#DejaVuSans-Bold-74" transform="translate(1204.101562 0)"/>
     <use xlink:href="#DejaVuSans-Bold-69" transform="translate(1251.904297 0)"/>
     <use xlink:href="#DejaVuSans-Bold-6f" transform="translate(1286.181641 0)"/>
     <use xlink:href="#DejaVuSans-Bold-6e" transform="translate(1354.882812 0)"/>
    </g>
    <!-- (Total: 128,465 records) -->
    <g transform="translate(218.655894 29.7555) scale(0.12 -0.12)">
     <defs>
      <path id="DejaVuSans-Bold-28" d="M 2413 -844 
L 1484 -844 
Q 1006 -72 778 623 
Q 550 1319 550 2003 
Q 550 2688 779 3389 
Q 1009 4091 1484 4856 
L 2413 4856 
Q 2013 4116 1813 3408 
Q 1613 2700 1613 2009 
Q 1613 1319 1811 609 
Q 2009 -100 2413 -844 
z
" transform="scale(0.015625)"/>
      <path id="DejaVuSans-Bold-54" d="M 31 4666 
L 4331 4666 
L 4331 3756 
L 2784 3756 
L 2784 0 
L 1581 0 
L 1581 3756 
L 31 3756 
L 31 4666 
z
" transform="scale(0.015625)"/>
      <path id="DejaVuSans-Bold-6c" d="M 538 4863 
L 1656 4863 
L 1656 0 
L 538 0 
L 538 4863 
z
" transform="scale(0.015625)"/>
      <path id="DejaVuSans-Bold-3a" d="M 716 3500 
L 1844 3500 
L 1844 2291 
L 716 2291 
L 716 3500 
z
M 716 1209 
L 1844 1209 
L 1844 0 
L 716 0 
L 716 1209 
z
" transform="scale(0.015625)"/>
      <path id="DejaVuSans-Bold-31" d="M 750 831 
L 1813 831 
L 1813 3847 
L 722 3622 
L 722 4441 
L 1806 4666 
L 2950 4666 
L 2950 831 
L 4013 831 
L 4013 0 
L 750 0 
L 750 831 
z
" transform="scale(0.015625)"/>
      <path id="DejaVuSans-Bold-32" d="M 1844 884 
L 3897 884 
L 3897 0 
L 506 0 
L 506 884 
L 2209 2388 
Q 2438 2594 2547 2791 
Q 2656 2988 2656 3200 
Q 2656 3528 2436 3728 
Q 2216 3928 1850 3928 
Q 1569 3928 1234 3808 
Q 900 3688 519 3450 
L 519 4475 
Q 925 4609 1322 4679 
Q 1719 4750 2100 4750 
Q 2938 4750 3402 4381 
Q 3866 4013 3866 3353 
Q 3866 2972 3669 2642 
Q 3472 2313 2841 1759 
L 1844 884 
z
" transform="scale(0.015625)"/>
      <path id="DejaVuSans-Bold-38" d="M 2228 2088 
Q 1891 2088 1709 1903 
Q 1528 1719 1528 1375 
Q 1528 1031 1709 848 
Q 1891 666 2228 666 
Q 2563 666 2741 848 
Q 2919 1031 2919 1375 
Q 2919 1722 2741 1905 
Q 2563 2088 2228 2088 
z
M 1350 2484 
Q 925 2613 709 2878 
Q 494 3144 494 3541 
Q 494 4131 934 4440 
Q 1375 4750 2228 4750 
Q 3075 4750 3515 4442 
Q 3956 4134 3956 3541 
Q 3956 3144 3739 2878 
Q 3522 2613 3097 2484 
Q 3572 2353 3814 2058 
Q 4056 1763 4056 1313 
Q 4056 619 3595 264 
Q 3134 -91 2228 -91 
Q 1319 -91 855 264 
Q 391 619 391 1313 
Q 391 1763 633 2058 
Q 875 2353 1350 2484 
z
M 1631 3419 
Q 1631 3141 1786 2991 
Q 1941 2841 2228 2841 
Q 2509 2841 2662 2991 
Q 2816 3141 2816 3419 
Q 2816 3697 2662 3845 
Q 2509 3994 2228 3994 
Q 1941 3994 1786 3844 
Q 1631 3694 1631 3419 
z
" transform="scale(0.015625)"/>
      <path id="DejaVuSans-Bold-2c" d="M 653 1209 
L 1778 1209 
L 1778 256 
L 1006 -909 
L 341 -909 
L 653 256 
L 653 1209 
z
" transform="scale(0.015625)"/>
      <path id="DejaVuSans-Bold-34" d="M 2356 3675 
L 1038 1722 
L 2356 1722 
L 2356 3675 
z
M 2156 4666 
L 3494 4666 
L 3494 1722 
L 4159 1722 
L 4159 850 
L 3494 850 
L 3494 0 
L 2356 0 
L 2356 850 
L 288 850 
L 288 1881 
L 2156 4666 
z
" transform="scale(0.015625)"/>
      <path id="DejaVuSans-Bold-36" d="M 2316 2303 
Q 2000 2303 1842 2098 
Q 1684 1894 1684 1484 
Q 1684 1075 1842 870 
Q 2000 666 2316 666 
Q 2634 666 2792 870 
Q 2950 1075 2950 1484 
Q 2950 1894 2792 2098 
Q 2634 2303 2316 2303 
z
M 3803 4544 
L 3803 3681 
Q 3506 3822 3243 3889 
Q 2981 3956 2731 3956 
Q 2194 3956 1894 3657 
Q 1594 3359 1544 2772 
Q 1750 2925 1990 3001 
Q 2231 3078 2516 3078 
Q 3231 3078 3670 2659 
Q 4109 2241 4109 1563 
Q 4109 813 3618 361 
Q 3128 -91 2303 -91 
Q 1394 -91 895 523 
Q 397 1138 397 2266 
Q 397 3422 980 4083 
Q 1563 4744 2578 4744 
Q 2900 4744 3203 4694 
Q 3506 4644 3803 4544 
z
" transform="scale(0.015625)"/>
      <path id="DejaVuSans-Bold-35" d="M 678 4666 
L 3669 4666 
L 3669 3781 
L 1638 3781 
L 1638 3059 
Q 1775 3097 1914 3117 
Q 2053 3138 2203 3138 
Q 3056 3138 3531 2711 
Q 4006 2284 4006 1522 
Q 4006 766 3489 337 
Q 2972 -91 2053 -91 
Q 1656 -91 1267 -14 
Q 878 63 494 219 
L 494 1166 
Q 875 947 1217 837 
Q 1559 728 1863 728 
Q 2300 728 2551 942 
Q 2803 1156 2803 1522 
Q 2803 1891 2551 2103 
Q 2300 2316 1863 2316 
Q 1603 2316 1309 2248 
Q 1016 2181 678 2041 
L 678 4666 
z
" transform="scale(0.015625)"/>
      <path id="DejaVuSans-Bold-64" d="M 2919 2988 
L 2919 4863 
L 4044 4863 
L 4044 0 
L 2919 0 
L 2919 506 
Q 2688 197 2409 53 
Q 2131 -91 1766 -91 
Q 1119 -91 703 423 
Q 288 938 288 1747 
Q 288 2556 703 3070 
Q 1119 3584 1766 3584 
Q 2128 3584 2408 3439 
Q 2688 3294 2919 2988 
z
M 2181 722 
Q 2541 722 2730 984 
Q 2919 1247 2919 1747 
Q 2919 2247 2730 2509 
Q 2541 2772 2181 2772 
Q 1825 2772 1636 2509 
Q 1447 2247 1447 1747 
Q 1447 1247 1636 984 
Q 1825 722 2181 722 
z
" transform="scale(0.015625)"/>
      <path id="DejaVuSans-Bold-29" d="M 513 -844 
Q 913 -100 1113 609 
Q 1313 1319 1313 2009 
Q 1313 2700 1113 3408 
Q 913 4116 513 4856 
L 1441 4856 
Q 1916 4091 2145 3389 
Q 2375 2688 2375 2003 
Q 2375 1319 2147 623 
Q 1919 -72 1441 -844 
L 513 -844 
z
" transform="scale(0.015625)"/>
     </defs>
     <use xlink:href="#DejaVuSans-Bold-28"/>
     <use xlink:href="#DejaVuSans-Bold-54" transform="translate(45.703125 0)"/>
     <use xlink:href="#DejaVuSans-Bold-6f" transform="translate(100.666016 0)"/>
     <use xlink:href="#DejaVuSans-Bold-74" transform="translate(169.367188 0)"/>
     <use xlink:href="#DejaVuSans-Bold-61" transform="translate(217.169922 0)"/>
     <use xlink:href="#DejaVuSans-Bold-6c" transform="translate(284.650391 0)"/>
     <use xlink:href="#DejaVuSans-Bold-3a" transform="translate(318.927734 0)"/>
     <use xlink:href="#DejaVuSans-Bold-20" transform="translate(358.917969 0)"/>
     <use xlink:href="#DejaVuSans-Bold-31" transform="translate(393.732422 0)"/>
     <use xlink:href="#DejaVuSans-Bold-32" transform="translate(463.3125 0)"/>
     <use xlink:href="#DejaVuSans-Bold-38" transform="translate(532.892578 0)"/>
     <use xlink:href="#DejaVuSans-Bold-2c" transform="translate(602.472656 0)"/>
     <use xlink:href="#DejaVuSans-Bold-34" transform="translate(640.460938 0)"/>
     <use xlink:href="#DejaVuSans-Bold-36" transform="translate(710.041016 0)"/>
     <use xlink:href="#DejaVuSans-Bold-35" transform="translate(779.621094 0)"/>
     <use xlink:href="#DejaVuSans-Bold-20" transform="translate(849.201172 0)"/>
     <use xlink:href="#DejaVuSans-Bold-72" transform="translate(884.015625 0)"/>
     <use xlink:href="#DejaVuSans-Bold-65" transform="translate(933.332031 0)"/>
     <use xlink:href="#DejaVuSans-Bold-63" transform="translate(1001.154297 0)"/>
     <use xlink:href="#DejaVuSans-Bold-6f" transform="translate(1060.431641 0)"/>
     <use xlink:href="#DejaVuSans-Bold-72" transform="translate(1129.132812 0)"/>
     <use xlink:href="#DejaVuSans-Bold-64" transform="translate(1178.449219 0)"/>
     <use xlink:href="#DejaVuSans-Bold-73" transform="translate(1250.03125 0)"/>
     <use xlink:href="#DejaVuSans-Bold-29" transform="translate(1309.552734 0)"/>
    </g>
   </g>
  </g>
  <g id="axes_2">
   <g id="patch_4">
    <path d="M 616.491475 374.223912 
L 1134.834513 374.223912 
L 1134.834513 35.7555 
L 616.491475 35.7555 
z
" style="fill: #ffffff"/>
   </g>
   <g id="patch_5">
    <path d="M 616.491475 358.838985 
L 1110.151511 358.838985 
L 1110.151511 327.280158 
L 616.491475 327.280158 
z
" clip-path="url(#p9a1c6aa9cc)" style="fill: #1f77b4"/>
   </g>
   <g id="patch_6">
    <path d="M 616.491475 319.390452 
L 1110.151511 319.390452 
L 1110.151511 287.831625 
L 616.491475 287.831625 
z
" clip-path="url(#p9a1c6aa9cc)" style="fill: #1f77b4"/>
   </g>
   <g id="patch_7">
    <path d="M 616.491475 279.941919 
L 1110.151511 279.941919 
L 1110.151511 248.383092 
L 616.491475 248.383092 
z
" clip-path="url(#p9a1c6aa9cc)" style="fill: #1f77b4"/>
   </g>
   <g id="patch_8">
    <path d="M 616.491475 240.493386 
L 1110.151511 240.493386 
L 1110.151511 208.934559 
L 616.491475 208.934559 
z
" clip-path="url(#p9a1c6aa9cc)" style="fill: #1f77b4"/>
   </g>
   <g id="patch_9">
    <path d="M 616.491475 201.044853 
L 1110.151511 201.044853 
L 1110.151511 169.486027 
L 616.491475 169.486027 
z
" clip-path="url(#p9a1c6aa9cc)" style="fill: #1f77b4"/>
   </g>
   <g id="patch_10">
    <path d="M 616.491475 161.59632 
L 1110.151511 161.59632 
L 1110.151511 130.037494 
L 616.491475 130.037494 
z
" clip-path="url(#p9a1c6aa9cc)" style="fill: #1f77b4"/>
   </g>
   <g id="patch_11">
    <path d="M 616.491475 122.147787 
L 1110.151511 122.147787 
L 1110.151511 90.588961 
L 616.491475 90.588961 
z
" clip-path="url(#p9a1c6aa9cc)" style="fill: #1f77b4"/>
   </g>
   <g id="patch_12">
    <path d="M 616.491475 82.699254 
L 1110.151511 82.699254 
L 1110.151511 51.140428 
L 616.491475 51.140428 
z
" clip-path="url(#p9a1c6aa9cc)" style="fill: #1f77b4"/>
   </g>
   <g id="matplotlib.axis_3">
    <g id="xtick_1">
     <g id="line2d_1">
      <defs>
       <path id="m987371b12f" d="M 0 0 
L 0 3.5 
" style="stroke: #000000; stroke-width: 0.8"/>
      </defs>
      <g>
       <use xlink:href="#m987371b12f" x="616.491475" y="374.223912" style="stroke: #000000; stroke-width: 0.8"/>
      </g>
     </g>
     <g id="text_6">
      <!-- 0.00 -->
      <g transform="translate(605.358663 388.82235) scale(0.1 -0.1)">
       <defs>
        <path id="DejaVuSans-30" d="M 2034 4250 
Q 1547 4250 1301 3770 
Q 1056 3291 1056 2328 
Q 1056 1369 1301 889 
Q 1547 409 2034 409 
Q 2525 409 2770 889 
Q 3016 1369 3016 2328 
Q 3016 3291 2770 3770 
Q 2525 4250 2034 4250 
z
M 2034 4750 
Q 2819 4750 3233 4129 
Q 3647 3509 3647 2328 
Q 3647 1150 3233 529 
Q 2819 -91 2034 -91 
Q 1250 -91 836 529 
Q 422 1150 422 2328 
Q 422 3509 836 4129 
Q 1250 4750 2034 4750 
z
" transform="scale(0.015625)"/>
       </defs>
       <use xlink:href="#DejaVuSans-30"/>
       <use xlink:href="#DejaVuSans-2e" transform="translate(63.623047 0)"/>
       <use xlink:href="#DejaVuSans-30" transform="translate(95.410156 0)"/>
       <use xlink:href="#DejaVuSans-30" transform="translate(159.033203 0)"/>
      </g>
     </g>
    </g>
    <g id="xtick_2">
     <g id="line2d_2">
      <g>
       <use xlink:href="#m987371b12f" x="679.909512" y="374.223912" style="stroke: #000000; stroke-width: 0.8"/>
      </g>
     </g>
     <g id="text_7">
      <!-- 0.05 -->
      <g transform="translate(668.776699 388.82235) scale(0.1 -0.1)">
       <defs>
        <path id="DejaVuSans-35" d="M 691 4666 
L 3169 4666 
L 3169 4134 
L 1269 4134 
L 1269 2991 
Q 1406 3038 1543 3061 
Q 1681 3084 1819 3084 
Q 2600 3084 3056 2656 
Q 3513 2228 3513 1497 
Q 3513 744 3044 326 
Q 2575 -91 1722 -91 
Q 1428 -91 1123 -41 
Q 819 9 494 109 
L 494 744 
Q 775 591 1075 516 
Q 1375 441 1709 441 
Q 2250 441 2565 725 
Q 2881 1009 2881 1497 
Q 2881 1984 2565 2268 
Q 2250 2553 1709 2553 
Q 1456 2553 1204 2497 
Q 953 2441 691 2322 
L 691 4666 
z
" transform="scale(0.015625)"/>
       </defs>
       <use xlink:href="#DejaVuSans-30"/>
       <use xlink:href="#DejaVuSans-2e" transform="translate(63.623047 0)"/>
       <use xlink:href="#DejaVuSans-30" transform="translate(95.410156 0)"/>
       <use xlink:href="#DejaVuSans-35" transform="translate(159.033203 0)"/>
      </g>
     </g>
    </g>
    <g id="xtick_3">
     <g id="line2d_3">
      <g>
       <use xlink:href="#m987371b12f" x="743.327548" y="374.223912" style="stroke: #000000; stroke-width: 0.8"/>
      </g>
     </g>
     <g id="text_8">
      <!-- 0.10 -->
      <g transform="translate(732.194736 388.82235) scale(0.1 -0.1)">
       <use xlink:href="#DejaVuSans-30"/>
       <use xlink:href="#DejaVuSans-2e" transform="translate(63.623047 0)"/>
       <use xlink:href="#DejaVuSans-31" transform="translate(95.410156 0)"/>
       <use xlink:href="#DejaVuSans-30" transform="translate(159.033203 0)"/>
      </g>
     </g>
    </g>
    <g id="xtick_4">
     <g id="line2d_4">
      <g>
       <use xlink:href="#m987371b12f" x="806.745585" y="374.223912" style="stroke: #000000; stroke-width: 0.8"/>
      </g>
     </g>
     <g id="text_9">
      <!-- 0.15 -->
      <g transform="translate(795.612772 388.82235) scale(0.1 -0.1)">
       <use xlink:href="#DejaVuSans-30"/>
       <use xlink:href="#DejaVuSans-2e" transform="translate(63.623047 0)"/>
       <use xlink:href="#DejaVuSans-31" transform="translate(95.410156 0)"/>
       <use xlink:href="#DejaVuSans-35" transform="translate(159.033203 0)"/>
      </g>
     </g>
    </g>
    <g id="xtick_5">
     <g id="line2d_5">
      <g>
       <use xlink:href="#m987371b12f" x="870.163621" y="374.223912" style="stroke: #000000; stroke-width: 0.8"/>
      </g>
     </g>
     <g id="text_10">
      <!-- 0.20 -->
      <g transform="translate(859.030809 388.82235) scale(0.1 -0.1)">
       <use xlink:href="#DejaVuSans-30"/>
       <use xlink:href="#DejaVuSans-2e" transform="translate(63.623047 0)"/>
       <use xlink:href="#DejaVuSans-32" transform="translate(95.410156 0)"/>
       <use xlink:href="#DejaVuSans-30" transform="translate(159.033203 0)"/>
      </g>
     </g>
    </g>
    <g id="xtick_6">
     <g id="line2d_6">
      <g>
       <use xlink:href="#m987371b12f" x="933.581658" y="374.223912" style="stroke: #000000; stroke-width: 0.8"/>
      </g>
     </g>
     <g id="text_11">
      <!-- 0.25 -->
      <g transform="translate(922.448845 388.82235) scale(0.1 -0.1)">
       <use xlink:href="#DejaVuSans-30"/>
       <use xlink:href="#DejaVuSans-2e" transform="translate(63.623047 0)"/>
       <use xlink:href="#DejaVuSans-32" transform="translate(95.410156 0)"/>
       <use xlink:href="#DejaVuSans-35" transform="translate(159.033203 0)"/>
      </g>
     </g>
    </g>
    <g id="xtick_7">
     <g id="line2d_7">
      <g>
       <use xlink:href="#m987371b12f" x="996.999694" y="374.223912" style="stroke: #000000; stroke-width: 0.8"/>
      </g>
     </g>
     <g id="text_12">
      <!-- 0.30 -->
      <g transform="translate(985.866882 388.82235) scale(0.1 -0.1)">
       <defs>
        <path id="DejaVuSans-33" d="M 2597 2516 
Q 3050 2419 3304 2112 
Q 3559 1806 3559 1356 
Q 3559 666 3084 287 
Q 2609 -91 1734 -91 
Q 1441 -91 1130 -33 
Q 819 25 488 141 
L 488 750 
Q 750 597 1062 519 
Q 1375 441 1716 441 
Q 2309 441 2620 675 
Q 2931 909 2931 1356 
Q 2931 1769 2642 2001 
Q 2353 2234 1838 2234 
L 1294 2234 
L 1294 2753 
L 1863 2753 
Q 2328 2753 2575 2939 
Q 2822 3125 2822 3475 
Q 2822 3834 2567 4026 
Q 2313 4219 1838 4219 
Q 1578 4219 1281 4162 
Q 984 4106 628 3988 
L 628 4550 
Q 988 4650 1302 4700 
Q 1616 4750 1894 4750 
Q 2613 4750 3031 4423 
Q 3450 4097 3450 3541 
Q 3450 3153 3228 2886 
Q 3006 2619 2597 2516 
z
" transform="scale(0.015625)"/>
       </defs>
       <use xlink:href="#DejaVuSans-30"/>
       <use xlink:href="#DejaVuSans-2e" transform="translate(63.623047 0)"/>
       <use xlink:href="#DejaVuSans-33" transform="translate(95.410156 0)"/>
       <use xlink:href="#DejaVuSans-30" transform="translate(159.033203 0)"/>
      </g>
     </g>
    </g>
    <g id="xtick_8">
     <g id="line2d_8">
      <g>
       <use xlink:href="#m987371b12f" x="1060.417731" y="374.223912" style="stroke: #000000; stroke-width: 0.8"/>
      </g>
     </g>
     <g id="text_13">
      <!-- 0.35 -->
      <g transform="translate(1049.284918 388.82235) scale(0.1 -0.1)">
       <use xlink:href="#DejaVuSans-30"/>
       <use xlink:href="#DejaVuSans-2e" transform="translate(63.623047 0)"/>
       <use xlink:href="#DejaVuSans-33" transform="translate(95.410156 0)"/>
       <use xlink:href="#DejaVuSans-35" transform="translate(159.033203 0)"/>
      </g>
     </g>
    </g>
    <g id="xtick_9">
     <g id="line2d_9">
      <g>
       <use xlink:href="#m987371b12f" x="1123.835767" y="374.223912" style="stroke: #000000; stroke-width: 0.8"/>
      </g>
     </g>
     <g id="text_14">
      <!-- 0.40 -->
      <g transform="translate(1112.702955 388.82235) scale(0.1 -0.1)">
       <defs>
        <path id="DejaVuSans-34" d="M 2419 4116 
L 825 1625 
L 2419 1625 
L 2419 4116 
z
M 2253 4666 
L 3047 4666 
L 3047 1625 
L 3713 1625 
L 3713 1100 
L 3047 1100 
L 3047 0 
L 2419 0 
L 2419 1100 
L 313 1100 
L 313 1709 
L 2253 4666 
z
" transform="scale(0.015625)"/>
       </defs>
       <use xlink:href="#DejaVuSans-30"/>
       <use xlink:href="#DejaVuSans-2e" transform="translate(63.623047 0)"/>
       <use xlink:href="#DejaVuSans-34" transform="translate(95.410156 0)"/>
       <use xlink:href="#DejaVuSans-30" transform="translate(159.033203 0)"/>
      </g>
     </g>
    </g>
    <g id="text_15">
     <!-- Completion Rate (%) -->
     <g transform="translate(823.731744 402.500475) scale(0.1 -0.1)">
      <defs>
       <path id="DejaVuSans-6f" d="M 1959 3097 
Q 1497 3097 1228 2736 
Q 959 2375 959 1747 
Q 959 1119 1226 758 
Q 1494 397 1959 397 
Q 2419 397 2687 759 
Q 2956 1122 2956 1747 
Q 2956 2369 2687 2733 
Q 2419 3097 1959 3097 
z
M 1959 3584 
Q 2709 3584 3137 3096 
Q 3566 2609 3566 1747 
Q 3566 888 3137 398 
Q 2709 -91 1959 -91 
Q 1206 -91 779 398 
Q 353 888 353 1747 
Q 353 2609 779 3096 
Q 1206 3584 1959 3584 
z
" transform="scale(0.015625)"/>
       <path id="DejaVuSans-6d" d="M 3328 2828 
Q 3544 3216 3844 3400 
Q 4144 3584 4550 3584 
Q 5097 3584 5394 3201 
Q 5691 2819 5691 2113 
L 5691 0 
L 5113 0 
L 5113 2094 
Q 5113 2597 4934 2840 
Q 4756 3084 4391 3084 
Q 3944 3084 3684 2787 
Q 3425 2491 3425 1978 
L 3425 0 
L 2847 0 
L 2847 2094 
Q 2847 2600 2669 2842 
Q 2491 3084 2119 3084 
Q 1678 3084 1418 2786 
Q 1159 2488 1159 1978 
L 1159 0 
L 581 0 
L 581 3500 
L 1159 3500 
L 1159 2956 
Q 1356 3278 1631 3431 
Q 1906 3584 2284 3584 
Q 2666 3584 2933 3390 
Q 3200 3197 3328 2828 
z
" transform="scale(0.015625)"/>
       <path id="DejaVuSans-70" d="M 1159 525 
L 1159 -1331 
L 581 -1331 
L 581 3500 
L 1159 3500 
L 1159 2969 
Q 1341 3281 1617 3432 
Q 1894 3584 2278 3584 
Q 2916 3584 3314 3078 
Q 3713 2572 3713 1747 
Q 3713 922 3314 415 
Q 2916 -91 2278 -91 
Q 1894 -91 1617 61 
Q 1341 213 1159 525 
z
M 3116 1747 
Q 3116 2381 2855 2742 
Q 2594 3103 2138 3103 
Q 1681 3103 1420 2742 
Q 1159 2381 1159 1747 
Q 1159 1113 1420 752 
Q 1681 391 2138 391 
Q 2594 391 2855 752 
Q 3116 1113 3116 1747 
z
" transform="scale(0.015625)"/>
       <path id="DejaVuSans-65" d="M 3597 1894 
L 3597 1613 
L 953 1613 
Q 991 1019 1311 708 
Q 1631 397 2203 397 
Q 2534 397 2845 478 
Q 3156 559 3463 722 
L 3463 178 
Q 3153 47 2828 -22 
Q 2503 -91 2169 -91 
Q 1331 -91 842 396 
Q 353 884 353 1716 
Q 353 2575 817 3079 
Q 1281 3584 2069 3584 
Q 2775 3584 3186 3129 
Q 3597 2675 3597 1894 
z
M 3022 2063 
Q 3016 2534 2758 2815 
Q 2500 3097 2075 3097 
Q 1594 3097 1305 2825 
Q 1016 2553 972 2059 
L 3022 2063 
z
" transform="scale(0.015625)"/>
       <path id="DejaVuSans-74" d="M 1172 4494 
L 1172 3500 
L 2356 3500 
L 2356 3053 
L 1172 3053 
L 1172 1153 
Q 1172 725 1289 603 
Q 1406 481 1766 481 
L 2356 481 
L 2356 0 
L 1766 0 
Q 1100 0 847 248 
Q 594 497 594 1153 
L 594 3053 
L 172 3053 
L 172 3500 
L 594 3500 
L 594 4494 
L 1172 4494 
z
" transform="scale(0.015625)"/>
       <path id="DejaVuSans-20" transform="scale(0.015625)"/>
       <path id="DejaVuSans-28" d="M 1984 4856 
Q 1566 4138 1362 3434 
Q 1159 2731 1159 2009 
Q 1159 1288 1364 580 
Q 1569 -128 1984 -844 
L 1484 -844 
Q 1016 -109 783 600 
Q 550 1309 550 2009 
Q 550 2706 781 3412 
Q 1013 4119 1484 4856 
L 1984 4856 
z
" transform="scale(0.015625)"/>
       <path id="DejaVuSans-29" d="M 513 4856 
L 1013 4856 
Q 1481 4119 1714 3412 
Q 1947 2706 1947 2009 
Q 1947 1309 1714 600 
Q 1481 -109 1013 -844 
L 513 -844 
Q 928 -128 1133 580 
Q 1338 1288 1338 2009 
Q 1338 2731 1133 3434 
Q 928 4138 513 4856 
z
" transform="scale(0.015625)"/>
      </defs>
      <use xlink:href="#DejaVuSans-43"/>
      <use xlink:href="#DejaVuSans-6f" transform="translate(69.824219 0)"/>
      <use xlink:href="#DejaVuSans-6d" transform="translate(131.005859 0)"/>
      <use xlink:href="#DejaVuSans-70" transform="translate(228.417969 0)"/>
      <use xlink:href="#DejaVuSans-6c" transform="translate(291.894531 0)"/>
      <use xlink:href="#DejaVuSans-65" transform="translate(319.677734 0)"/>
      <use xlink:href="#DejaVuSans-74" transform="translate(381.201172 0)"/>
      <use xlink:href="#DejaVuSans-69" transform="translate(420.410156 0)"/>
      <use xlink:href="#DejaVuSans-6f" transform="translate(448.193359 0)"/>
      <use xlink:href="#DejaVuSans-6e" transform="translate(509.375 0)"/>
      <use xlink:href="#DejaVuSans-20" transform="translate(572.753906 0)"/>
      <use xlink:href="#DejaVuSans-52" transform="translate(604.541016 0)"/>
      <use xlink:href="#DejaVuSans-61" transform="translate(671.773438 0)"/>
      <use xlink:href="#DejaVuSans-74" transform="translate(733.052734 0)"/>
      <use xlink:href="#DejaVuSans-65" transform="translate(772.261719 0)"/>
      <use xlink:href="#DejaVuSans-20" transform="translate(833.785156 0)"/>
      <use xlink:href="#DejaVuSans-28" transform="translate(865.572266 0)"/>
      <use xlink:href="#DejaVuSans-25" transform="translate(904.585938 0)"/>
      <use xlink:href="#DejaVuSans-29" transform="translate(999.605469 0)"/>
     </g>
    </g>
   </g>
   <g id="matplotlib.axis_4">
    <g id="ytick_1">
     <g id="line2d_10">
      <defs>
       <path id="m614bc8b992" d="M 0 0 
L -3.5 0 
" style="stroke: #000000; stroke-width: 0.8"/>
      </defs>
      <g>
       <use xlink:href="#m614bc8b992" x="616.491475" y="343.059571" style="stroke: #000000; stroke-width: 0.8"/>
      </g>
     </g>
     <g id="text_16">
      <!-- 1d_mean -->
      <g transform="translate(563.421163 346.85879) scale(0.1 -0.1)">
       <defs>
        <path id="DejaVuSans-64" d="M 2906 2969 
L 2906 4863 
L 3481 4863 
L 3481 0 
L 2906 0 
L 2906 525 
Q 2725 213 2448 61 
Q 2172 -91 1784 -91 
Q 1150 -91 751 415 
Q 353 922 353 1747 
Q 353 2572 751 3078 
Q 1150 3584 1784 3584 
Q 2172 3584 2448 3432 
Q 2725 3281 2906 2969 
z
M 947 1747 
Q 947 1113 1208 752 
Q 1469 391 1925 391 
Q 2381 391 2643 752 
Q 2906 1113 2906 1747 
Q 2906 2381 2643 2742 
Q 2381 3103 1925 3103 
Q 1469 3103 1208 2742 
Q 947 2381 947 1747 
z
" transform="scale(0.015625)"/>
       </defs>
       <use xlink:href="#DejaVuSans-31"/>
       <use xlink:href="#DejaVuSans-64" transform="translate(63.623047 0)"/>
       <use xlink:href="#DejaVuSans-5f" transform="translate(127.099609 0)"/>
       <use xlink:href="#DejaVuSans-6d" transform="translate(177.099609 0)"/>
       <use xlink:href="#DejaVuSans-65" transform="translate(274.511719 0)"/>
       <use xlink:href="#DejaVuSans-61" transform="translate(336.035156 0)"/>
       <use xlink:href="#DejaVuSans-6e" transform="translate(397.314453 0)"/>
      </g>
     </g>
    </g>
    <g id="ytick_2">
     <g id="line2d_11">
      <g>
       <use xlink:href="#m614bc8b992" x="616.491475" y="303.611038" style="stroke: #000000; stroke-width: 0.8"/>
      </g>
     </g>
     <g id="text_17">
      <!-- 1d_max -->
      <g transform="translate(569.993038 307.410257) scale(0.1 -0.1)">
       <defs>
        <path id="DejaVuSans-78" d="M 3513 3500 
L 2247 1797 
L 3578 0 
L 2900 0 
L 1881 1375 
L 863 0 
L 184 0 
L 1544 1831 
L 300 3500 
L 978 3500 
L 1906 2253 
L 2834 3500 
L 3513 3500 
z
" transform="scale(0.015625)"/>
       </defs>
       <use xlink:href="#DejaVuSans-31"/>
       <use xlink:href="#DejaVuSans-64" transform="translate(63.623047 0)"/>
       <use xlink:href="#DejaVuSans-5f" transform="translate(127.099609 0)"/>
       <use xlink:href="#DejaVuSans-6d" transform="translate(177.099609 0)"/>
       <use xlink:href="#DejaVuSans-61" transform="translate(274.511719 0)"/>
       <use xlink:href="#DejaVuSans-78" transform="translate(335.791016 0)"/>
      </g>
     </g>
    </g>
    <g id="ytick_3">
     <g id="line2d_12">
      <g>
       <use xlink:href="#m614bc8b992" x="616.491475" y="264.162506" style="stroke: #000000; stroke-width: 0.8"/>
      </g>
     </g>
     <g id="text_18">
      <!-- 1d_extreme_days -->
      <g transform="translate(521.42585 267.961724) scale(0.1 -0.1)">
       <defs>
        <path id="DejaVuSans-72" d="M 2631 2963 
Q 2534 3019 2420 3045 
Q 2306 3072 2169 3072 
Q 1681 3072 1420 2755 
Q 1159 2438 1159 1844 
L 1159 0 
L 581 0 
L 581 3500 
L 1159 3500 
L 1159 2956 
Q 1341 3275 1631 3429 
Q 1922 3584 2338 3584 
Q 2397 3584 2469 3576 
Q 2541 3569 2628 3553 
L 2631 2963 
z
" transform="scale(0.015625)"/>
        <path id="DejaVuSans-79" d="M 2059 -325 
Q 1816 -950 1584 -1140 
Q 1353 -1331 966 -1331 
L 506 -1331 
L 506 -850 
L 844 -850 
Q 1081 -850 1212 -737 
Q 1344 -625 1503 -206 
L 1606 56 
L 191 3500 
L 800 3500 
L 1894 763 
L 2988 3500 
L 3597 3500 
L 2059 -325 
z
" transform="scale(0.015625)"/>
        <path id="DejaVuSans-73" d="M 2834 3397 
L 2834 2853 
Q 2591 2978 2328 3040 
Q 2066 3103 1784 3103 
Q 1356 3103 1142 2972 
Q 928 2841 928 2578 
Q 928 2378 1081 2264 
Q 1234 2150 1697 2047 
L 1894 2003 
Q 2506 1872 2764 1633 
Q 3022 1394 3022 966 
Q 3022 478 2636 193 
Q 2250 -91 1575 -91 
Q 1294 -91 989 -36 
Q 684 19 347 128 
L 347 722 
Q 666 556 975 473 
Q 1284 391 1588 391 
Q 1994 391 2212 530 
Q 2431 669 2431 922 
Q 2431 1156 2273 1281 
Q 2116 1406 1581 1522 
L 1381 1569 
Q 847 1681 609 1914 
Q 372 2147 372 2553 
Q 372 3047 722 3315 
Q 1072 3584 1716 3584 
Q 2034 3584 2315 3537 
Q 2597 3491 2834 3397 
z
" transform="scale(0.015625)"/>
       </defs>
       <use xlink:href="#DejaVuSans-31"/>
       <use xlink:href="#DejaVuSans-64" transform="translate(63.623047 0)"/>
       <use xlink:href="#DejaVuSans-5f" transform="translate(127.099609 0)"/>
       <use xlink:href="#DejaVuSans-65" transform="translate(177.099609 0)"/>
       <use xlink:href="#DejaVuSans-78" transform="translate(236.873047 0)"/>
       <use xlink:href="#DejaVuSans-74" transform="translate(296.052734 0)"/>
       <use xlink:href="#DejaVuSans-72" transform="translate(335.261719 0)"/>
       <use xlink:href="#DejaVuSans-65" transform="translate(374.125 0)"/>
       <use xlink:href="#DejaVuSans-6d" transform="translate(435.648438 0)"/>
       <use xlink:href="#DejaVuSans-65" transform="translate(533.060547 0)"/>
       <use xlink:href="#DejaVuSans-5f" transform="translate(594.583984 0)"/>
       <use xlink:href="#DejaVuSans-64" transform="translate(644.583984 0)"/>
       <use xlink:href="#DejaVuSans-61" transform="translate(708.060547 0)"/>
       <use xlink:href="#DejaVuSans-79" transform="translate(769.339844 0)"/>
       <use xlink:href="#DejaVuSans-73" transform="translate(828.519531 0)"/>
      </g>
     </g>
    </g>
    <g id="ytick_4">
     <g id="line2d_13">
      <g>
       <use xlink:href="#m614bc8b992" x="616.491475" y="224.713973" style="stroke: #000000; stroke-width: 0.8"/>
      </g>
     </g>
     <g id="text_19">
      <!-- 7d_mean -->
      <g transform="translate(563.421163 228.513191) scale(0.1 -0.1)">
       <use xlink:href="#DejaVuSans-37"/>
       <use xlink:href="#DejaVuSans-64" transform="translate(63.623047 0)"/>
       <use xlink:href="#DejaVuSans-5f" transform="translate(127.099609 0)"/>
       <use xlink:href="#DejaVuSans-6d" transform="translate(177.099609 0)"/>
       <use xlink:href="#DejaVuSans-65" transform="translate(274.511719 0)"/>
       <use xlink:href="#DejaVuSans-61" transform="translate(336.035156 0)"/>
       <use xlink:href="#DejaVuSans-6e" transform="translate(397.314453 0)"/>
      </g>
     </g>
    </g>
    <g id="ytick_5">
     <g id="line2d_14">
      <g>
       <use xlink:href="#m614bc8b992" x="616.491475" y="185.26544" style="stroke: #000000; stroke-width: 0.8"/>
      </g>
     </g>
     <g id="text_20">
      <!-- 7d_max -->
      <g transform="translate(569.993038 189.064658) scale(0.1 -0.1)">
       <use xlink:href="#DejaVuSans-37"/>
       <use xlink:href="#DejaVuSans-64" transform="translate(63.623047 0)"/>
       <use xlink:href="#DejaVuSans-5f" transform="translate(127.099609 0)"/>
       <use xlink:href="#DejaVuSans-6d" transform="translate(177.099609 0)"/>
       <use xlink:href="#DejaVuSans-61" transform="translate(274.511719 0)"/>
       <use xlink:href="#DejaVuSans-78" transform="translate(335.791016 0)"/>
      </g>
     </g>
    </g>
    <g id="ytick_6">
     <g id="line2d_15">
      <g>
       <use xlink:href="#m614bc8b992" x="616.491475" y="145.816907" style="stroke: #000000; stroke-width: 0.8"/>
      </g>
     </g>
     <g id="text_21">
      <!-- 7d_extreme_days -->
      <g transform="translate(521.42585 149.616126) scale(0.1 -0.1)">
       <use xlink:href="#DejaVuSans-37"/>
       <use xlink:href="#DejaVuSans-64" transform="translate(63.623047 0)"/>
       <use xlink:href="#DejaVuSans-5f" transform="translate(127.099609 0)"/>
       <use xlink:href="#DejaVuSans-65" transform="translate(177.099609 0)"/>
       <use xlink:href="#DejaVuSans-78" transform="translate(236.873047 0)"/>
       <use xlink:href="#DejaVuSans-74" transform="translate(296.052734 0)"/>
       <use xlink:href="#DejaVuSans-72" transform="translate(335.261719 0)"/>
       <use xlink:href="#DejaVuSans-65" transform="translate(374.125 0)"/>
       <use xlink:href="#DejaVuSans-6d" transform="translate(435.648438 0)"/>
       <use xlink:href="#DejaVuSans-65" transform="translate(533.060547 0)"/>
       <use xlink:href="#DejaVuSans-5f" transform="translate(594.583984 0)"/>
       <use xlink:href="#DejaVuSans-64" transform="translate(644.583984 0)"/>
       <use xlink:href="#DejaVuSans-61" transform="translate(708.060547 0)"/>
       <use xlink:href="#DejaVuSans-79" transform="translate(769.339844 0)"/>
       <use xlink:href="#DejaVuSans-73" transform="translate(828.519531 0)"/>
      </g>
     </g>
    </g>
    <g id="ytick_7">
     <g id="line2d_16">
      <g>
       <use xlink:href="#m614bc8b992" x="616.491475" y="106.368374" style="stroke: #000000; stroke-width: 0.8"/>
      </g>
     </g>
     <g id="text_22">
      <!-- 30d_mean -->
      <g transform="translate(557.058663 110.167593) scale(0.1 -0.1)">
       <use xlink:href="#DejaVuSans-33"/>
       <use xlink:href="#DejaVuSans-30" transform="translate(63.623047 0)"/>
       <use xlink:href="#DejaVuSans-64" transform="translate(127.246094 0)"/>
       <use xlink:href="#DejaVuSans-5f" transform="translate(190.722656 0)"/>
       <use xlink:href="#DejaVuSans-6d" transform="translate(240.722656 0)"/>
       <use xlink:href="#DejaVuSans-65" transform="translate(338.134766 0)"/>
       <use xlink:href="#DejaVuSans-61" transform="translate(399.658203 0)"/>
       <use xlink:href="#DejaVuSans-6e" transform="translate(460.9375 0)"/>
      </g>
     </g>
    </g>
    <g id="ytick_8">
     <g id="line2d_17">
      <g>
       <use xlink:href="#m614bc8b992" x="616.491475" y="66.919841" style="stroke: #000000; stroke-width: 0.8"/>
      </g>
     </g>
     <g id="text_23">
      <!-- 30d_max -->
      <g transform="translate(563.630538 70.71906) scale(0.1 -0.1)">
       <use xlink:href="#DejaVuSans-33"/>
       <use xlink:href="#DejaVuSans-30" transform="translate(63.623047 0)"/>
       <use xlink:href="#DejaVuSans-64" transform="translate(127.246094 0)"/>
       <use xlink:href="#DejaVuSans-5f" transform="translate(190.722656 0)"/>
       <use xlink:href="#DejaVuSans-6d" transform="translate(240.722656 0)"/>
       <use xlink:href="#DejaVuSans-61" transform="translate(338.134766 0)"/>
       <use xlink:href="#DejaVuSans-78" transform="translate(399.414062 0)"/>
      </g>
     </g>
    </g>
   </g>
   <g id="patch_13">
    <path d="M 616.491475 374.223912 
L 616.491475 35.7555 
" style="fill: none; stroke: #000000; stroke-width: 0.8; stroke-linejoin: miter; stroke-linecap: square"/>
   </g>
   <g id="patch_14">
    <path d="M 1134.834513 374.223912 
L 1134.834513 35.7555 
" style="fill: none; stroke: #000000; stroke-width: 0.8; stroke-linejoin: miter; stroke-linecap: square"/>
   </g>
   <g id="patch_15">
    <path d="M 616.491475 374.223912 
L 1134.834513 374.223912 
" style="fill: none; stroke: #000000; stroke-width: 0.8; stroke-linejoin: miter; stroke-linecap: square"/>
   </g>
   <g id="patch_16">
    <path d="M 616.491475 35.7555 
L 1134.834513 35.7555 
" style="fill: none; stroke: #000000; stroke-width: 0.8; stroke-linejoin: miter; stroke-linecap: square"/>
   </g>
   <g id="text_24">
    <!-- Climate Variables: Data Completion -->
    <g transform="translate(755.358306 29.7555) scale(0.12 -0.12)">
     <defs>
      <path id="DejaVuSans-Bold-56" d="M 31 4666 
L 1241 4666 
L 2478 1222 
L 3713 4666 
L 4922 4666 
L 3194 0 
L 1759 0 
L 31 4666 
z
" transform="scale(0.015625)"/>
      <path id="DejaVuSans-Bold-62" d="M 2400 722 
Q 2759 722 2948 984 
Q 3138 1247 3138 1747 
Q 3138 2247 2948 2509 
Q 2759 2772 2400 2772 
Q 2041 2772 1848 2508 
Q 1656 2244 1656 1747 
Q 1656 1250 1848 986 
Q 2041 722 2400 722 
z
M 1656 2988 
Q 1888 3294 2169 3439 
Q 2450 3584 2816 3584 
Q 3463 3584 3878 3070 
Q 4294 2556 4294 1747 
Q 4294 938 3878 423 
Q 3463 -91 2816 -91 
Q 2450 -91 2169 54 
Q 1888 200 1656 506 
L 1656 0 
L 538 0 
L 538 4863 
L 1656 4863 
L 1656 2988 
z
" transform="scale(0.015625)"/>
     </defs>
     <use xlink:href="#DejaVuSans-Bold-43"/>
     <use xlink:href="#DejaVuSans-Bold-6c" transform="translate(73.388672 0)"/>
     <use xlink:href="#DejaVuSans-Bold-69" transform="translate(107.666016 0)"/>
     <use xlink:href="#DejaVuSans-Bold-6d" transform="translate(141.943359 0)"/>
     <use xlink:href="#DejaVuSans-Bold-61" transform="translate(246.142578 0)"/>
     <use xlink:href="#DejaVuSans-Bold-74" transform="translate(313.623047 0)"/>
     <use xlink:href="#DejaVuSans-Bold-65" transform="translate(361.425781 0)"/>
     <use xlink:href="#DejaVuSans-Bold-20" transform="translate(429.248047 0)"/>
     <use xlink:href="#DejaVuSans-Bold-56" transform="translate(464.0625 0)"/>
     <use xlink:href="#DejaVuSans-Bold-61" transform="translate(535.955078 0)"/>
     <use xlink:href="#DejaVuSans-Bold-72" transform="translate(603.435547 0)"/>
     <use xlink:href="#DejaVuSans-Bold-69" transform="translate(652.751953 0)"/>
     <use xlink:href="#DejaVuSans-Bold-61" transform="translate(687.029297 0)"/>
     <use xlink:href="#DejaVuSans-Bold-62" transform="translate(754.509766 0)"/>
     <use xlink:href="#DejaVuSans-Bold-6c" transform="translate(826.091797 0)"/>
     <use xlink:href="#DejaVuSans-Bold-65" transform="translate(860.369141 0)"/>
     <use xlink:href="#DejaVuSans-Bold-73" transform="translate(928.191406 0)"/>
     <use xlink:href="#DejaVuSans-Bold-3a" transform="translate(987.712891 0)"/>
     <use xlink:href="#DejaVuSans-Bold-20" transform="translate(1027.703125 0)"/>
     <use xlink:href="#DejaVuSans-Bold-44" transform="translate(1062.517578 0)"/>
     <use xlink:href="#DejaVuSans-Bold-61" transform="translate(1145.525391 0)"/>
     <use xlink:href="#DejaVuSans-Bold-74" transform="translate(1213.005859 0)"/>
     <use xlink:href="#DejaVuSans-Bold-61" transform="translate(1260.808594 0)"/>
     <use xlink:href="#DejaVuSans-Bold-20" transform="translate(1328.289062 0)"/>
     <use xlink:href="#DejaVuSans-Bold-43" transform="translate(1363.103516 0)"/>
     <use xlink:href="#DejaVuSans-Bold-6f" transform="translate(1436.492188 0)"/>
     <use xlink:href="#DejaVuSans-Bold-6d" transform="translate(1505.193359 0)"/>
     <use xlink:href="#DejaVuSans-Bold-70" transform="translate(1609.392578 0)"/>
     <use xlink:href="#DejaVuSans-Bold-6c" transform="translate(1680.974609 0)"/>
     <use xlink:href="#DejaVuSans-Bold-65" transform="translate(1715.251953 0)"/>
     <use xlink:href="#DejaVuSans-Bold-74" transform="translate(1783.074219 0)"/>
     <use xlink:href="#DejaVuSans-Bold-69" transform="translate(1830.876953 0)"/>
     <use xlink:href="#DejaVuSans-Bold-6f" transform="translate(1865.154297 0)"/>
     <use xlink:href="#DejaVuSans-Bold-6e" transform="translate(1933.855469 0)"/>
    </g>
   </g>
  </g>
  <g id="axes_3">
   <g id="patch_17">
    <path d="M 40.798438 770.732325 
L 559.141475 770.732325 
L 559.141475 432.263912 
L 40.798438 432.263912 
z
" style="fill: #ffffff"/>
   </g>
   <g id="patch_18">
    <path d="M 64.359485 770.732325 
L 129.355477 770.732325 
L 129.355477 687.29957 
L 64.359485 687.29957 
z
" clip-path="url(#pa2f95199de)" style="fill: #1f77b4"/>
   </g>
   <g id="patch_19">
    <path d="M 145.604475 770.732325 
L 210.600467 770.732325 
L 210.600467 687.29957 
L 145.604475 687.29957 
z
" clip-path="url(#pa2f95199de)" style="fill: #1f77b4"/>
   </g>
   <g id="patch_20">
    <path d="M 226.849465 770.732325 
L 291.845457 770.732325 
L 291.845457 448.381456 
L 226.849465 448.381456 
z
" clip-path="url(#pa2f95199de)" style="fill: #1f77b4"/>
   </g>
   <g id="patch_21">
    <path d="M 308.094455 770.732325 
L 373.090448 770.732325 
L 373.090448 448.381456 
L 308.094455 448.381456 
z
" clip-path="url(#pa2f95199de)" style="fill: #1f77b4"/>
   </g>
   <g id="patch_22">
    <path d="M 389.339446 770.732325 
L 454.335438 770.732325 
L 454.335438 684.633364 
L 389.339446 684.633364 
z
" clip-path="url(#pa2f95199de)" style="fill: #1f77b4"/>
   </g>
   <g id="patch_23">
    <path d="M 470.584436 770.732325 
L 535.580428 770.732325 
L 535.580428 546.770979 
L 470.584436 546.770979 
z
" clip-path="url(#pa2f95199de)" style="fill: #1f77b4"/>
   </g>
   <g id="matplotlib.axis_5">
    <g id="xtick_10">
     <g id="line2d_18">
      <g>
       <use xlink:href="#m987371b12f" x="96.857481" y="770.732325" style="stroke: #000000; stroke-width: 0.8"/>
      </g>
     </g>
     <g id="text_25">
      <!-- CD4 cell count -->
      <g transform="translate(43.894078 834.598073) rotate(-45) scale(0.1 -0.1)">
       <defs>
        <path id="DejaVuSans-44" d="M 1259 4147 
L 1259 519 
L 2022 519 
Q 2988 519 3436 956 
Q 3884 1394 3884 2338 
Q 3884 3275 3436 3711 
Q 2988 4147 2022 4147 
L 1259 4147 
z
M 628 4666 
L 1925 4666 
Q 3281 4666 3915 4102 
Q 4550 3538 4550 2338 
Q 4550 1131 3912 565 
Q 3275 0 1925 0 
L 628 0 
L 628 4666 
z
" transform="scale(0.015625)"/>
        <path id="DejaVuSans-75" d="M 544 1381 
L 544 3500 
L 1119 3500 
L 1119 1403 
Q 1119 906 1312 657 
Q 1506 409 1894 409 
Q 2359 409 2629 706 
Q 2900 1003 2900 1516 
L 2900 3500 
L 3475 3500 
L 3475 0 
L 2900 0 
L 2900 538 
Q 2691 219 2414 64 
Q 2138 -91 1772 -91 
Q 1169 -91 856 284 
Q 544 659 544 1381 
z
M 1991 3584 
L 1991 3584 
z
" transform="scale(0.015625)"/>
       </defs>
       <use xlink:href="#DejaVuSans-43"/>
       <use xlink:href="#DejaVuSans-44" transform="translate(69.824219 0)"/>
       <use xlink:href="#DejaVuSans-34" transform="translate(146.826172 0)"/>
       <use xlink:href="#DejaVuSans-20" transform="translate(210.449219 0)"/>
       <use xlink:href="#DejaVuSans-63" transform="translate(242.236328 0)"/>
       <use xlink:href="#DejaVuSans-65" transform="translate(297.216797 0)"/>
       <use xlink:href="#DejaVuSans-6c" transform="translate(358.740234 0)"/>
       <use xlink:href="#DejaVuSans-6c" transform="translate(386.523438 0)"/>
       <use xlink:href="#DejaVuSans-20" transform="translate(414.306641 0)"/>
       <use xlink:href="#DejaVuSans-63" transform="translate(446.09375 0)"/>
       <use xlink:href="#DejaVuSans-6f" transform="translate(501.074219 0)"/>
       <use xlink:href="#DejaVuSans-75" transform="translate(562.255859 0)"/>
       <use xlink:href="#DejaVuSans-6e" transform="translate(625.634766 0)"/>
       <use xlink:href="#DejaVuSans-74" transform="translate(689.013672 0)"/>
      </g>
     </g>
    </g>
    <g id="xtick_11">
     <g id="line2d_19">
      <g>
       <use xlink:href="#m987371b12f" x="178.102471" y="770.732325" style="stroke: #000000; stroke-width: 0.8"/>
      </g>
     </g>
     <g id="text_26">
      <!-- Hemoglobin -->
      <g transform="translate(134.034251 825.702891) rotate(-45) scale(0.1 -0.1)">
       <defs>
        <path id="DejaVuSans-48" d="M 628 4666 
L 1259 4666 
L 1259 2753 
L 3553 2753 
L 3553 4666 
L 4184 4666 
L 4184 0 
L 3553 0 
L 3553 2222 
L 1259 2222 
L 1259 0 
L 628 0 
L 628 4666 
z
" transform="scale(0.015625)"/>
        <path id="DejaVuSans-67" d="M 2906 1791 
Q 2906 2416 2648 2759 
Q 2391 3103 1925 3103 
Q 1463 3103 1205 2759 
Q 947 2416 947 1791 
Q 947 1169 1205 825 
Q 1463 481 1925 481 
Q 2391 481 2648 825 
Q 2906 1169 2906 1791 
z
M 3481 434 
Q 3481 -459 3084 -895 
Q 2688 -1331 1869 -1331 
Q 1566 -1331 1297 -1286 
Q 1028 -1241 775 -1147 
L 775 -588 
Q 1028 -725 1275 -790 
Q 1522 -856 1778 -856 
Q 2344 -856 2625 -561 
Q 2906 -266 2906 331 
L 2906 616 
Q 2728 306 2450 153 
Q 2172 0 1784 0 
Q 1141 0 747 490 
Q 353 981 353 1791 
Q 353 2603 747 3093 
Q 1141 3584 1784 3584 
Q 2172 3584 2450 3431 
Q 2728 3278 2906 2969 
L 2906 3500 
L 3481 3500 
L 3481 434 
z
" transform="scale(0.015625)"/>
        <path id="DejaVuSans-62" d="M 3116 1747 
Q 3116 2381 2855 2742 
Q 2594 3103 2138 3103 
Q 1681 3103 1420 2742 
Q 1159 2381 1159 1747 
Q 1159 1113 1420 752 
Q 1681 391 2138 391 
Q 2594 391 2855 752 
Q 3116 1113 3116 1747 
z
M 1159 2969 
Q 1341 3281 1617 3432 
Q 1894 3584 2278 3584 
Q 2916 3584 3314 3078 
Q 3713 2572 3713 1747 
Q 3713 922 3314 415 
Q 2916 -91 2278 -91 
Q 1894 -91 1617 61 
Q 1341 213 1159 525 
L 1159 0 
L 581 0 
L 581 4863 
L 1159 4863 
L 1159 2969 
z
" transform="scale(0.015625)"/>
       </defs>
       <use xlink:href="#DejaVuSans-48"/>
       <use xlink:href="#DejaVuSans-65" transform="translate(75.195312 0)"/>
       <use xlink:href="#DejaVuSans-6d" transform="translate(136.71875 0)"/>
       <use xlink:href="#DejaVuSans-6f" transform="translate(234.130859 0)"/>
       <use xlink:href="#DejaVuSans-67" transform="translate(295.3125 0)"/>
       <use xlink:href="#DejaVuSans-6c" transform="translate(358.789062 0)"/>
       <use xlink:href="#DejaVuSans-6f" transform="translate(386.572266 0)"/>
       <use xlink:href="#DejaVuSans-62" transform="translate(447.753906 0)"/>
       <use xlink:href="#DejaVuSans-69" transform="translate(511.230469 0)"/>
       <use xlink:href="#DejaVuSans-6e" transform="translate(539.013672 0)"/>
      </g>
     </g>
    </g>
    <g id="xtick_12">
     <g id="line2d_20">
      <g>
       <use xlink:href="#m987371b12f" x="259.347461" y="770.732325" style="stroke: #000000; stroke-width: 0.8"/>
      </g>
     </g>
     <g id="text_27">
      <!-- systolic blood ... -->
      <g transform="translate(200.576944 840.405188) rotate(-45) scale(0.1 -0.1)">
       <use xlink:href="#DejaVuSans-73"/>
       <use xlink:href="#DejaVuSans-79" transform="translate(52.099609 0)"/>
       <use xlink:href="#DejaVuSans-73" transform="translate(111.279297 0)"/>
       <use xlink:href="#DejaVuSans-74" transform="translate(163.378906 0)"/>
       <use xlink:href="#DejaVuSans-6f" transform="translate(202.587891 0)"/>
       <use xlink:href="#DejaVuSans-6c" transform="translate(263.769531 0)"/>
       <use xlink:href="#DejaVuSans-69" transform="translate(291.552734 0)"/>
       <use xlink:href="#DejaVuSans-63" transform="translate(319.335938 0)"/>
       <use xlink:href="#DejaVuSans-20" transform="translate(374.316406 0)"/>
       <use xlink:href="#DejaVuSans-62" transform="translate(406.103516 0)"/>
       <use xlink:href="#DejaVuSans-6c" transform="translate(469.580078 0)"/>
       <use xlink:href="#DejaVuSans-6f" transform="translate(497.363281 0)"/>
       <use xlink:href="#DejaVuSans-6f" transform="translate(558.544922 0)"/>
       <use xlink:href="#DejaVuSans-64" transform="translate(619.726562 0)"/>
       <use xlink:href="#DejaVuSans-20" transform="translate(683.203125 0)"/>
       <use xlink:href="#DejaVuSans-2e" transform="translate(714.990234 0)"/>
       <use xlink:href="#DejaVuSans-2e" transform="translate(746.777344 0)"/>
       <use xlink:href="#DejaVuSans-2e" transform="translate(778.564453 0)"/>
      </g>
     </g>
    </g>
    <g id="xtick_13">
     <g id="line2d_21">
      <g>
       <use xlink:href="#m987371b12f" x="340.592451" y="770.732325" style="stroke: #000000; stroke-width: 0.8"/>
      </g>
     </g>
     <g id="text_28">
      <!-- diastolic blood... -->
      <g transform="translate(281.151288 841.075834) rotate(-45) scale(0.1 -0.1)">
       <use xlink:href="#DejaVuSans-64"/>
       <use xlink:href="#DejaVuSans-69" transform="translate(63.476562 0)"/>
       <use xlink:href="#DejaVuSans-61" transform="translate(91.259766 0)"/>
       <use xlink:href="#DejaVuSans-73" transform="translate(152.539062 0)"/>
       <use xlink:href="#DejaVuSans-74" transform="translate(204.638672 0)"/>
       <use xlink:href="#DejaVuSans-6f" transform="translate(243.847656 0)"/>
       <use xlink:href="#DejaVuSans-6c" transform="translate(305.029297 0)"/>
       <use xlink:href="#DejaVuSans-69" transform="translate(332.8125 0)"/>
       <use xlink:href="#DejaVuSans-63" transform="translate(360.595703 0)"/>
       <use xlink:href="#DejaVuSans-20" transform="translate(415.576172 0)"/>
       <use xlink:href="#DejaVuSans-62" transform="translate(447.363281 0)"/>
       <use xlink:href="#DejaVuSans-6c" transform="translate(510.839844 0)"/>
       <use xlink:href="#DejaVuSans-6f" transform="translate(538.623047 0)"/>
       <use xlink:href="#DejaVuSans-6f" transform="translate(599.804688 0)"/>
       <use xlink:href="#DejaVuSans-64" transform="translate(660.986328 0)"/>
       <use xlink:href="#DejaVuSans-2e" transform="translate(724.462891 0)"/>
       <use xlink:href="#DejaVuSans-2e" transform="translate(756.25 0)"/>
       <use xlink:href="#DejaVuSans-2e" transform="translate(788.037109 0)"/>
      </g>
     </g>
    </g>
    <g id="xtick_14">
     <g id="line2d_22">
      <g>
       <use xlink:href="#m987371b12f" x="421.837442" y="770.732325" style="stroke: #000000; stroke-width: 0.8"/>
      </g>
     </g>
     <g id="text_29">
      <!-- heart rate -->
      <g transform="translate(384.912105 818.560007) rotate(-45) scale(0.1 -0.1)">
       <defs>
        <path id="DejaVuSans-68" d="M 3513 2113 
L 3513 0 
L 2938 0 
L 2938 2094 
Q 2938 2591 2744 2837 
Q 2550 3084 2163 3084 
Q 1697 3084 1428 2787 
Q 1159 2491 1159 1978 
L 1159 0 
L 581 0 
L 581 4863 
L 1159 4863 
L 1159 2956 
Q 1366 3272 1645 3428 
Q 1925 3584 2291 3584 
Q 2894 3584 3203 3211 
Q 3513 2838 3513 2113 
z
" transform="scale(0.015625)"/>
       </defs>
       <use xlink:href="#DejaVuSans-68"/>
       <use xlink:href="#DejaVuSans-65" transform="translate(63.378906 0)"/>
       <use xlink:href="#DejaVuSans-61" transform="translate(124.902344 0)"/>
       <use xlink:href="#DejaVuSans-72" transform="translate(186.181641 0)"/>
       <use xlink:href="#DejaVuSans-74" transform="translate(227.294922 0)"/>
       <use xlink:href="#DejaVuSans-20" transform="translate(266.503906 0)"/>
       <use xlink:href="#DejaVuSans-72" transform="translate(298.291016 0)"/>
       <use xlink:href="#DejaVuSans-61" transform="translate(339.404297 0)"/>
       <use xlink:href="#DejaVuSans-74" transform="translate(400.683594 0)"/>
       <use xlink:href="#DejaVuSans-65" transform="translate(439.892578 0)"/>
      </g>
     </g>
    </g>
    <g id="xtick_15">
     <g id="line2d_23">
      <g>
       <use xlink:href="#m987371b12f" x="503.082432" y="770.732325" style="stroke: #000000; stroke-width: 0.8"/>
      </g>
     </g>
     <g id="text_30">
      <!-- oral temperatur... -->
      <g transform="translate(439.485911 845.231191) rotate(-45) scale(0.1 -0.1)">
       <use xlink:href="#DejaVuSans-6f"/>
       <use xlink:href="#DejaVuSans-72" transform="translate(61.181641 0)"/>
       <use xlink:href="#DejaVuSans-61" transform="translate(102.294922 0)"/>
       <use xlink:href="#DejaVuSans-6c" transform="translate(163.574219 0)"/>
       <use xlink:href="#DejaVuSans-20" transform="translate(191.357422 0)"/>
       <use xlink:href="#DejaVuSans-74" transform="translate(223.144531 0)"/>
       <use xlink:href="#DejaVuSans-65" transform="translate(262.353516 0)"/>
       <use xlink:href="#DejaVuSans-6d" transform="translate(323.876953 0)"/>
       <use xlink:href="#DejaVuSans-70" transform="translate(421.289062 0)"/>
       <use xlink:href="#DejaVuSans-65" transform="translate(484.765625 0)"/>
       <use xlink:href="#DejaVuSans-72" transform="translate(546.289062 0)"/>
       <use xlink:href="#DejaVuSans-61" transform="translate(587.402344 0)"/>
       <use xlink:href="#DejaVuSans-74" transform="translate(648.681641 0)"/>
       <use xlink:href="#DejaVuSans-75" transform="translate(687.890625 0)"/>
       <use xlink:href="#DejaVuSans-72" transform="translate(751.269531 0)"/>
       <use xlink:href="#DejaVuSans-2e" transform="translate(783.257812 0)"/>
       <use xlink:href="#DejaVuSans-2e" transform="translate(815.044922 0)"/>
       <use xlink:href="#DejaVuSans-2e" transform="translate(846.832031 0)"/>
      </g>
     </g>
    </g>
   </g>
   <g id="matplotlib.axis_6">
    <g id="ytick_9">
     <g id="line2d_24">
      <g>
       <use xlink:href="#m614bc8b992" x="40.798438" y="770.732325" style="stroke: #000000; stroke-width: 0.8"/>
      </g>
     </g>
     <g id="text_31">
      <!-- 0K -->
      <g transform="translate(20.878125 774.531544) scale(0.1 -0.1)">
       <defs>
        <path id="DejaVuSans-4b" d="M 628 4666 
L 1259 4666 
L 1259 2694 
L 3353 4666 
L 4166 4666 
L 1850 2491 
L 4331 0 
L 3500 0 
L 1259 2247 
L 1259 0 
L 628 0 
L 628 4666 
z
" transform="scale(0.015625)"/>
       </defs>
       <use xlink:href="#DejaVuSans-30"/>
       <use xlink:href="#DejaVuSans-4b" transform="translate(63.623047 0)"/>
      </g>
     </g>
    </g>
    <g id="ytick_10">
     <g id="line2d_25">
      <g>
       <use xlink:href="#m614bc8b992" x="40.798438" y="705.702898" style="stroke: #000000; stroke-width: 0.8"/>
      </g>
     </g>
     <g id="text_32">
      <!-- 1K -->
      <g transform="translate(20.878125 709.502117) scale(0.1 -0.1)">
       <use xlink:href="#DejaVuSans-31"/>
       <use xlink:href="#DejaVuSans-4b" transform="translate(63.623047 0)"/>
      </g>
     </g>
    </g>
    <g id="ytick_11">
     <g id="line2d_26">
      <g>
       <use xlink:href="#m614bc8b992" x="40.798438" y="640.673471" style="stroke: #000000; stroke-width: 0.8"/>
      </g>
     </g>
     <g id="text_33">
      <!-- 2K -->
      <g transform="translate(20.878125 644.47269) scale(0.1 -0.1)">
       <use xlink:href="#DejaVuSans-32"/>
       <use xlink:href="#DejaVuSans-4b" transform="translate(63.623047 0)"/>
      </g>
     </g>
    </g>
    <g id="ytick_12">
     <g id="line2d_27">
      <g>
       <use xlink:href="#m614bc8b992" x="40.798438" y="575.644044" style="stroke: #000000; stroke-width: 0.8"/>
      </g>
     </g>
     <g id="text_34">
      <!-- 3K -->
      <g transform="translate(20.878125 579.443263) scale(0.1 -0.1)">
       <use xlink:href="#DejaVuSans-33"/>
       <use xlink:href="#DejaVuSans-4b" transform="translate(63.623047 0)"/>
      </g>
     </g>
    </g>
    <g id="ytick_13">
     <g id="line2d_28">
      <g>
       <use xlink:href="#m614bc8b992" x="40.798438" y="510.614617" style="stroke: #000000; stroke-width: 0.8"/>
      </g>
     </g>
     <g id="text_35">
      <!-- 4K -->
      <g transform="translate(20.878125 514.413836) scale(0.1 -0.1)">
       <use xlink:href="#DejaVuSans-34"/>
       <use xlink:href="#DejaVuSans-4b" transform="translate(63.623047 0)"/>
      </g>
     </g>
    </g>
    <g id="ytick_14">
     <g id="line2d_29">
      <g>
       <use xlink:href="#m614bc8b992" x="40.798438" y="445.58519" style="stroke: #000000; stroke-width: 0.8"/>
      </g>
     </g>
     <g id="text_36">
      <!-- 5K -->
      <g transform="translate(20.878125 449.384409) scale(0.1 -0.1)">
       <use xlink:href="#DejaVuSans-35"/>
       <use xlink:href="#DejaVuSans-4b" transform="translate(63.623047 0)"/>
      </g>
     </g>
    </g>
    <g id="text_37">
     <!-- Number of Records -->
     <g transform="translate(14.798438 649.462962) rotate(-90) scale(0.1 -0.1)">
      <defs>
       <path id="DejaVuSans-4e" d="M 628 4666 
L 1478 4666 
L 3547 763 
L 3547 4666 
L 4159 4666 
L 4159 0 
L 3309 0 
L 1241 3903 
L 1241 0 
L 628 0 
L 628 4666 
z
" transform="scale(0.015625)"/>
       <path id="DejaVuSans-66" d="M 2375 4863 
L 2375 4384 
L 1825 4384 
Q 1516 4384 1395 4259 
Q 1275 4134 1275 3809 
L 1275 3500 
L 2222 3500 
L 2222 3053 
L 1275 3053 
L 1275 0 
L 697 0 
L 697 3053 
L 147 3053 
L 147 3500 
L 697 3500 
L 697 3744 
Q 697 4328 969 4595 
Q 1241 4863 1831 4863 
L 2375 4863 
z
" transform="scale(0.015625)"/>
      </defs>
      <use xlink:href="#DejaVuSans-4e"/>
      <use xlink:href="#DejaVuSans-75" transform="translate(74.804688 0)"/>
      <use xlink:href="#DejaVuSans-6d" transform="translate(138.183594 0)"/>
      <use xlink:href="#DejaVuSans-62" transform="translate(235.595703 0)"/>
      <use xlink:href="#DejaVuSans-65" transform="translate(299.072266 0)"/>
      <use xlink:href="#DejaVuSans-72" transform="translate(360.595703 0)"/>
      <use xlink:href="#DejaVuSans-20" transform="translate(401.708984 0)"/>
      <use xlink:href="#DejaVuSans-6f" transform="translate(433.496094 0)"/>
      <use xlink:href="#DejaVuSans-66" transform="translate(494.677734 0)"/>
      <use xlink:href="#DejaVuSans-20" transform="translate(529.882812 0)"/>
      <use xlink:href="#DejaVuSans-52" transform="translate(561.669922 0)"/>
      <use xlink:href="#DejaVuSans-65" transform="translate(626.652344 0)"/>
      <use xlink:href="#DejaVuSans-63" transform="translate(688.175781 0)"/>
      <use xlink:href="#DejaVuSans-6f" transform="translate(743.15625 0)"/>
      <use xlink:href="#DejaVuSans-72" transform="translate(804.337891 0)"/>
      <use xlink:href="#DejaVuSans-64" transform="translate(843.701172 0)"/>
      <use xlink:href="#DejaVuSans-73" transform="translate(907.177734 0)"/>
     </g>
    </g>
   </g>
   <g id="patch_24">
    <path d="M 40.798438 770.732325 
L 40.798438 432.263912 
" style="fill: none; stroke: #000000; stroke-width: 0.8; stroke-linejoin: miter; stroke-linecap: square"/>
   </g>
   <g id="patch_25">
    <path d="M 559.141475 770.732325 
L 559.141475 432.263912 
" style="fill: none; stroke: #000000; stroke-width: 0.8; stroke-linejoin: miter; stroke-linecap: square"/>
   </g>
   <g id="patch_26">
    <path d="M 40.798437 770.732325 
L 559.141475 770.732325 
" style="fill: none; stroke: #000000; stroke-width: 0.8; stroke-linejoin: miter; stroke-linecap: square"/>
   </g>
   <g id="patch_27">
    <path d="M 40.798437 432.263912 
L 559.141475 432.263912 
" style="fill: none; stroke: #000000; stroke-width: 0.8; stroke-linejoin: miter; stroke-linecap: square"/>
   </g>
   <g id="text_38">
    <!-- Health Biomarkers: Record Counts -->
    <g transform="translate(183.395581 426.263912) scale(0.12 -0.12)">
     <defs>
      <path id="DejaVuSans-Bold-48" d="M 588 4666 
L 1791 4666 
L 1791 2888 
L 3566 2888 
L 3566 4666 
L 4769 4666 
L 4769 0 
L 3566 0 
L 3566 1978 
L 1791 1978 
L 1791 0 
L 588 0 
L 588 4666 
z
" transform="scale(0.015625)"/>
      <path id="DejaVuSans-Bold-68" d="M 4056 2131 
L 4056 0 
L 2931 0 
L 2931 347 
L 2931 1625 
Q 2931 2084 2911 2256 
Q 2891 2428 2841 2509 
Q 2775 2619 2662 2680 
Q 2550 2741 2406 2741 
Q 2056 2741 1856 2470 
Q 1656 2200 1656 1722 
L 1656 0 
L 538 0 
L 538 4863 
L 1656 4863 
L 1656 2988 
Q 1909 3294 2193 3439 
Q 2478 3584 2822 3584 
Q 3428 3584 3742 3212 
Q 4056 2841 4056 2131 
z
" transform="scale(0.015625)"/>
      <path id="DejaVuSans-Bold-42" d="M 2456 2859 
Q 2741 2859 2887 2984 
Q 3034 3109 3034 3353 
Q 3034 3594 2887 3720 
Q 2741 3847 2456 3847 
L 1791 3847 
L 1791 2859 
L 2456 2859 
z
M 2497 819 
Q 2859 819 3042 972 
Q 3225 1125 3225 1434 
Q 3225 1738 3044 1889 
Q 2863 2041 2497 2041 
L 1791 2041 
L 1791 819 
L 2497 819 
z
M 3616 2497 
Q 4003 2384 4215 2081 
Q 4428 1778 4428 1338 
Q 4428 663 3972 331 
Q 3516 0 2584 0 
L 588 0 
L 588 4666 
L 2394 4666 
Q 3366 4666 3802 4372 
Q 4238 4078 4238 3431 
Q 4238 3091 4078 2852 
Q 3919 2613 3616 2497 
z
" transform="scale(0.015625)"/>
      <path id="DejaVuSans-Bold-6b" d="M 538 4863 
L 1656 4863 
L 1656 2216 
L 2944 3500 
L 4244 3500 
L 2534 1894 
L 4378 0 
L 3022 0 
L 1656 1459 
L 1656 0 
L 538 0 
L 538 4863 
z
" transform="scale(0.015625)"/>
      <path id="DejaVuSans-Bold-52" d="M 2297 2597 
Q 2675 2597 2839 2737 
Q 3003 2878 3003 3200 
Q 3003 3519 2839 3656 
Q 2675 3794 2297 3794 
L 1791 3794 
L 1791 2597 
L 2297 2597 
z
M 1791 1766 
L 1791 0 
L 588 0 
L 588 4666 
L 2425 4666 
Q 3347 4666 3776 4356 
Q 4206 4047 4206 3378 
Q 4206 2916 3982 2619 
Q 3759 2322 3309 2181 
Q 3556 2125 3751 1926 
Q 3947 1728 4147 1325 
L 4800 0 
L 3519 0 
L 2950 1159 
Q 2778 1509 2601 1637 
Q 2425 1766 2131 1766 
L 1791 1766 
z
" transform="scale(0.015625)"/>
     </defs>
     <use xlink:href="#DejaVuSans-Bold-48"/>
     <use xlink:href="#DejaVuSans-Bold-65" transform="translate(83.691406 0)"/>
     <use xlink:href="#DejaVuSans-Bold-61" transform="translate(151.513672 0)"/>
     <use xlink:href="#DejaVuSans-Bold-6c" transform="translate(218.994141 0)"/>
     <use xlink:href="#DejaVuSans-Bold-74" transform="translate(253.271484 0)"/>
     <use xlink:href="#DejaVuSans-Bold-68" transform="translate(301.074219 0)"/>
     <use xlink:href="#DejaVuSans-Bold-20" transform="translate(372.265625 0)"/>
     <use xlink:href="#DejaVuSans-Bold-42" transform="translate(407.080078 0)"/>
     <use xlink:href="#DejaVuSans-Bold-69" transform="translate(483.300781 0)"/>
     <use xlink:href="#DejaVuSans-Bold-6f" transform="translate(517.578125 0)"/>
     <use xlink:href="#DejaVuSans-Bold-6d" transform="translate(586.279297 0)"/>
     <use xlink:href="#DejaVuSans-Bold-61" transform="translate(690.478516 0)"/>
     <use xlink:href="#DejaVuSans-Bold-72" transform="translate(757.958984 0)"/>
     <use xlink:href="#DejaVuSans-Bold-6b" transform="translate(807.275391 0)"/>
     <use xlink:href="#DejaVuSans-Bold-65" transform="translate(871.154297 0)"/>
     <use xlink:href="#DejaVuSans-Bold-72" transform="translate(938.976562 0)"/>
     <use xlink:href="#DejaVuSans-Bold-73" transform="translate(988.292969 0)"/>
     <use xlink:href="#DejaVuSans-Bold-3a" transform="translate(1047.814453 0)"/>
     <use xlink:href="#DejaVuSans-Bold-20" transform="translate(1087.804688 0)"/>
     <use xlink:href="#DejaVuSans-Bold-52" transform="translate(1122.619141 0)"/>
     <use xlink:href="#DejaVuSans-Bold-65" transform="translate(1199.621094 0)"/>
     <use xlink:href="#DejaVuSans-Bold-63" transform="translate(1267.443359 0)"/>
     <use xlink:href="#DejaVuSans-Bold-6f" transform="translate(1326.720703 0)"/>
     <use xlink:href="#DejaVuSans-Bold-72" transform="translate(1395.421875 0)"/>
     <use xlink:href="#DejaVuSans-Bold-64" transform="translate(1444.738281 0)"/>
     <use xlink:href="#DejaVuSans-Bold-20" transform="translate(1516.320312 0)"/>
     <use xlink:href="#DejaVuSans-Bold-43" transform="translate(1551.134766 0)"/>
     <use xlink:href="#DejaVuSans-Bold-6f" transform="translate(1624.523438 0)"/>
     <use xlink:href="#DejaVuSans-Bold-75" transform="translate(1693.224609 0)"/>
     <use xlink:href="#DejaVuSans-Bold-6e" transform="translate(1764.416016 0)"/>
     <use xlink:href="#DejaVuSans-Bold-74" transform="translate(1835.607422 0)"/>
     <use xlink:href="#DejaVuSans-Bold-73" transform="translate(1883.410156 0)"/>
    </g>
   </g>
  </g>
  <g id="axes_4">
   <g id="patch_28">
    <path d="M 616.491475 770.732325 
L 1134.834513 770.732325 
L 1134.834513 432.263912 
L 616.491475 432.263912 
z
" style="fill: #ffffff"/>
   </g>
   <g id="patch_29">
    <path d="M 640.052522 770.732325 
L 849.484053 770.732325 
L 849.484053 746.148622 
L 640.052522 746.148622 
z
" clip-path="url(#p8f3db72037)" style="fill: #f08080"/>
   </g>
   <g id="patch_30">
    <path d="M 901.841935 770.732325 
L 1111.273466 770.732325 
L 1111.273466 448.381456 
L 901.841935 448.381456 
z
" clip-path="url(#p8f3db72037)" style="fill: #add8e6"/>
   </g>
   <g id="matplotlib.axis_7">
    <g id="xtick_16">
     <g id="line2d_30">
      <g>
       <use xlink:href="#m987371b12f" x="744.768288" y="770.732325" style="stroke: #000000; stroke-width: 0.8"/>
      </g>
     </g>
     <g id="text_39">
      <!-- With Coordinates -->
      <g transform="translate(701.814381 785.330762) scale(0.1 -0.1)">
       <defs>
        <path id="DejaVuSans-57" d="M 213 4666 
L 850 4666 
L 1831 722 
L 2809 4666 
L 3519 4666 
L 4500 722 
L 5478 4666 
L 6119 4666 
L 4947 0 
L 4153 0 
L 3169 4050 
L 2175 0 
L 1381 0 
L 213 4666 
z
" transform="scale(0.015625)"/>
       </defs>
       <use xlink:href="#DejaVuSans-57"/>
       <use xlink:href="#DejaVuSans-69" transform="translate(96.626953 0)"/>
       <use xlink:href="#DejaVuSans-74" transform="translate(124.410156 0)"/>
       <use xlink:href="#DejaVuSans-68" transform="translate(163.619141 0)"/>
       <use xlink:href="#DejaVuSans-20" transform="translate(226.998047 0)"/>
       <use xlink:href="#DejaVuSans-43" transform="translate(258.785156 0)"/>
       <use xlink:href="#DejaVuSans-6f" transform="translate(328.609375 0)"/>
       <use xlink:href="#DejaVuSans-6f" transform="translate(389.791016 0)"/>
       <use xlink:href="#DejaVuSans-72" transform="translate(450.972656 0)"/>
       <use xlink:href="#DejaVuSans-64" transform="translate(490.335938 0)"/>
       <use xlink:href="#DejaVuSans-69" transform="translate(553.8125 0)"/>
       <use xlink:href="#DejaVuSans-6e" transform="translate(581.595703 0)"/>
       <use xlink:href="#DejaVuSans-61" transform="translate(644.974609 0)"/>
       <use xlink:href="#DejaVuSans-74" transform="translate(706.253906 0)"/>
       <use xlink:href="#DejaVuSans-65" transform="translate(745.462891 0)"/>
       <use xlink:href="#DejaVuSans-73" transform="translate(806.986328 0)"/>
      </g>
      <!-- (RP2 Clinical) -->
      <g transform="translate(711.577663 796.528575) scale(0.1 -0.1)">
       <use xlink:href="#DejaVuSans-28"/>
       <use xlink:href="#DejaVuSans-52" transform="translate(39.013672 0)"/>
       <use xlink:href="#DejaVuSans-50" transform="translate(108.496094 0)"/>
       <use xlink:href="#DejaVuSans-32" transform="translate(168.798828 0)"/>
       <use xlink:href="#DejaVuSans-20" transform="translate(232.421875 0)"/>
       <use xlink:href="#DejaVuSans-43" transform="translate(264.208984 0)"/>
       <use xlink:href="#DejaVuSans-6c" transform="translate(334.033203 0)"/>
       <use xlink:href="#DejaVuSans-69" transform="translate(361.816406 0)"/>
       <use xlink:href="#DejaVuSans-6e" transform="translate(389.599609 0)"/>
       <use xlink:href="#DejaVuSans-69" transform="translate(452.978516 0)"/>
       <use xlink:href="#DejaVuSans-63" transform="translate(480.761719 0)"/>
       <use xlink:href="#DejaVuSans-61" transform="translate(535.742188 0)"/>
       <use xlink:href="#DejaVuSans-6c" transform="translate(597.021484 0)"/>
       <use xlink:href="#DejaVuSans-29" transform="translate(624.804688 0)"/>
      </g>
     </g>
    </g>
    <g id="xtick_17">
     <g id="line2d_31">
      <g>
       <use xlink:href="#m987371b12f" x="1006.5577" y="770.732325" style="stroke: #000000; stroke-width: 0.8"/>
      </g>
     </g>
     <g id="text_40">
      <!-- Without Coordinates -->
      <g transform="translate(955.415513 785.330762) scale(0.1 -0.1)">
       <use xlink:href="#DejaVuSans-57"/>
       <use xlink:href="#DejaVuSans-69" transform="translate(96.626953 0)"/>
       <use xlink:href="#DejaVuSans-74" transform="translate(124.410156 0)"/>
       <use xlink:href="#DejaVuSans-68" transform="translate(163.619141 0)"/>
       <use xlink:href="#DejaVuSans-6f" transform="translate(226.998047 0)"/>
       <use xlink:href="#DejaVuSans-75" transform="translate(288.179688 0)"/>
       <use xlink:href="#DejaVuSans-74" transform="translate(351.558594 0)"/>
       <use xlink:href="#DejaVuSans-20" transform="translate(390.767578 0)"/>
       <use xlink:href="#DejaVuSans-43" transform="translate(422.554688 0)"/>
       <use xlink:href="#DejaVuSans-6f" transform="translate(492.378906 0)"/>
       <use xlink:href="#DejaVuSans-6f" transform="translate(553.560547 0)"/>
       <use xlink:href="#DejaVuSans-72" transform="translate(614.742188 0)"/>
       <use xlink:href="#DejaVuSans-64" transform="translate(654.105469 0)"/>
       <use xlink:href="#DejaVuSans-69" transform="translate(717.582031 0)"/>
       <use xlink:href="#DejaVuSans-6e" transform="translate(745.365234 0)"/>
       <use xlink:href="#DejaVuSans-61" transform="translate(808.744141 0)"/>
       <use xlink:href="#DejaVuSans-74" transform="translate(870.023438 0)"/>
       <use xlink:href="#DejaVuSans-65" transform="translate(909.232422 0)"/>
       <use xlink:href="#DejaVuSans-73" transform="translate(970.755859 0)"/>
      </g>
      <!-- (GCRO Surveys) -->
      <g transform="translate(966.292857 796.528575) scale(0.1 -0.1)">
       <defs>
        <path id="DejaVuSans-53" d="M 3425 4513 
L 3425 3897 
Q 3066 4069 2747 4153 
Q 2428 4238 2131 4238 
Q 1616 4238 1336 4038 
Q 1056 3838 1056 3469 
Q 1056 3159 1242 3001 
Q 1428 2844 1947 2747 
L 2328 2669 
Q 3034 2534 3370 2195 
Q 3706 1856 3706 1288 
Q 3706 609 3251 259 
Q 2797 -91 1919 -91 
Q 1588 -91 1214 -16 
Q 841 59 441 206 
L 441 856 
Q 825 641 1194 531 
Q 1563 422 1919 422 
Q 2459 422 2753 634 
Q 3047 847 3047 1241 
Q 3047 1584 2836 1778 
Q 2625 1972 2144 2069 
L 1759 2144 
Q 1053 2284 737 2584 
Q 422 2884 422 3419 
Q 422 4038 858 4394 
Q 1294 4750 2059 4750 
Q 2388 4750 2728 4690 
Q 3069 4631 3425 4513 
z
" transform="scale(0.015625)"/>
        <path id="DejaVuSans-76" d="M 191 3500 
L 800 3500 
L 1894 563 
L 2988 3500 
L 3597 3500 
L 2284 0 
L 1503 0 
L 191 3500 
z
" transform="scale(0.015625)"/>
       </defs>
       <use xlink:href="#DejaVuSans-28"/>
       <use xlink:href="#DejaVuSans-47" transform="translate(39.013672 0)"/>
       <use xlink:href="#DejaVuSans-43" transform="translate(116.503906 0)"/>
       <use xlink:href="#DejaVuSans-52" transform="translate(186.328125 0)"/>
       <use xlink:href="#DejaVuSans-4f" transform="translate(255.810547 0)"/>
       <use xlink:href="#DejaVuSans-20" transform="translate(334.521484 0)"/>
       <use xlink:href="#DejaVuSans-53" transform="translate(366.308594 0)"/>
       <use xlink:href="#DejaVuSans-75" transform="translate(429.785156 0)"/>
       <use xlink:href="#DejaVuSans-72" transform="translate(493.164062 0)"/>
       <use xlink:href="#DejaVuSans-76" transform="translate(534.277344 0)"/>
       <use xlink:href="#DejaVuSans-65" transform="translate(593.457031 0)"/>
       <use xlink:href="#DejaVuSans-79" transform="translate(654.980469 0)"/>
       <use xlink:href="#DejaVuSans-73" transform="translate(714.160156 0)"/>
       <use xlink:href="#DejaVuSans-29" transform="translate(766.259766 0)"/>
      </g>
     </g>
    </g>
   </g>
   <g id="matplotlib.axis_8">
    <g id="ytick_15">
     <g id="line2d_32">
      <g>
       <use xlink:href="#m614bc8b992" x="616.491475" y="770.732325" style="stroke: #000000; stroke-width: 0.8"/>
      </g>
     </g>
     <g id="text_41">
      <!-- 0K -->
      <g transform="translate(596.571163 774.531544) scale(0.1 -0.1)">
       <use xlink:href="#DejaVuSans-30"/>
       <use xlink:href="#DejaVuSans-4b" transform="translate(63.623047 0)"/>
      </g>
     </g>
    </g>
    <g id="ytick_16">
     <g id="line2d_33">
      <g>
       <use xlink:href="#m614bc8b992" x="616.491475" y="716.720014" style="stroke: #000000; stroke-width: 0.8"/>
      </g>
     </g>
     <g id="text_42">
      <!-- 20K -->
      <g transform="translate(590.208663 720.519233) scale(0.1 -0.1)">
       <use xlink:href="#DejaVuSans-32"/>
       <use xlink:href="#DejaVuSans-30" transform="translate(63.623047 0)"/>
       <use xlink:href="#DejaVuSans-4b" transform="translate(127.246094 0)"/>
      </g>
     </g>
    </g>
    <g id="ytick_17">
     <g id="line2d_34">
      <g>
       <use xlink:href="#m614bc8b992" x="616.491475" y="662.707704" style="stroke: #000000; stroke-width: 0.8"/>
      </g>
     </g>
     <g id="text_43">
      <!-- 40K -->
      <g transform="translate(590.208663 666.506923) scale(0.1 -0.1)">
       <use xlink:href="#DejaVuSans-34"/>
       <use xlink:href="#DejaVuSans-30" transform="translate(63.623047 0)"/>
       <use xlink:href="#DejaVuSans-4b" transform="translate(127.246094 0)"/>
      </g>
     </g>
    </g>
    <g id="ytick_18">
     <g id="line2d_35">
      <g>
       <use xlink:href="#m614bc8b992" x="616.491475" y="608.695394" style="stroke: #000000; stroke-width: 0.8"/>
      </g>
     </g>
     <g id="text_44">
      <!-- 60K -->
      <g transform="translate(590.208663 612.494613) scale(0.1 -0.1)">
       <defs>
        <path id="DejaVuSans-36" d="M 2113 2584 
Q 1688 2584 1439 2293 
Q 1191 2003 1191 1497 
Q 1191 994 1439 701 
Q 1688 409 2113 409 
Q 2538 409 2786 701 
Q 3034 994 3034 1497 
Q 3034 2003 2786 2293 
Q 2538 2584 2113 2584 
z
M 3366 4563 
L 3366 3988 
Q 3128 4100 2886 4159 
Q 2644 4219 2406 4219 
Q 1781 4219 1451 3797 
Q 1122 3375 1075 2522 
Q 1259 2794 1537 2939 
Q 1816 3084 2150 3084 
Q 2853 3084 3261 2657 
Q 3669 2231 3669 1497 
Q 3669 778 3244 343 
Q 2819 -91 2113 -91 
Q 1303 -91 875 529 
Q 447 1150 447 2328 
Q 447 3434 972 4092 
Q 1497 4750 2381 4750 
Q 2619 4750 2861 4703 
Q 3103 4656 3366 4563 
z
" transform="scale(0.015625)"/>
       </defs>
       <use xlink:href="#DejaVuSans-36"/>
       <use xlink:href="#DejaVuSans-30" transform="translate(63.623047 0)"/>
       <use xlink:href="#DejaVuSans-4b" transform="translate(127.246094 0)"/>
      </g>
     </g>
    </g>
    <g id="ytick_19">
     <g id="line2d_36">
      <g>
       <use xlink:href="#m614bc8b992" x="616.491475" y="554.683084" style="stroke: #000000; stroke-width: 0.8"/>
      </g>
     </g>
     <g id="text_45">
      <!-- 80K -->
      <g transform="translate(590.208663 558.482302) scale(0.1 -0.1)">
       <defs>
        <path id="DejaVuSans-38" d="M 2034 2216 
Q 1584 2216 1326 1975 
Q 1069 1734 1069 1313 
Q 1069 891 1326 650 
Q 1584 409 2034 409 
Q 2484 409 2743 651 
Q 3003 894 3003 1313 
Q 3003 1734 2745 1975 
Q 2488 2216 2034 2216 
z
M 1403 2484 
Q 997 2584 770 2862 
Q 544 3141 544 3541 
Q 544 4100 942 4425 
Q 1341 4750 2034 4750 
Q 2731 4750 3128 4425 
Q 3525 4100 3525 3541 
Q 3525 3141 3298 2862 
Q 3072 2584 2669 2484 
Q 3125 2378 3379 2068 
Q 3634 1759 3634 1313 
Q 3634 634 3220 271 
Q 2806 -91 2034 -91 
Q 1263 -91 848 271 
Q 434 634 434 1313 
Q 434 1759 690 2068 
Q 947 2378 1403 2484 
z
M 1172 3481 
Q 1172 3119 1398 2916 
Q 1625 2713 2034 2713 
Q 2441 2713 2670 2916 
Q 2900 3119 2900 3481 
Q 2900 3844 2670 4047 
Q 2441 4250 2034 4250 
Q 1625 4250 1398 4047 
Q 1172 3844 1172 3481 
z
" transform="scale(0.015625)"/>
       </defs>
       <use xlink:href="#DejaVuSans-38"/>
       <use xlink:href="#DejaVuSans-30" transform="translate(63.623047 0)"/>
       <use xlink:href="#DejaVuSans-4b" transform="translate(127.246094 0)"/>
      </g>
     </g>
    </g>
    <g id="ytick_20">
     <g id="line2d_37">
      <g>
       <use xlink:href="#m614bc8b992" x="616.491475" y="500.670773" style="stroke: #000000; stroke-width: 0.8"/>
      </g>
     </g>
     <g id="text_46">
      <!-- 100K -->
      <g transform="translate(583.846163 504.469992) scale(0.1 -0.1)">
       <use xlink:href="#DejaVuSans-31"/>
       <use xlink:href="#DejaVuSans-30" transform="translate(63.623047 0)"/>
       <use xlink:href="#DejaVuSans-30" transform="translate(127.246094 0)"/>
       <use xlink:href="#DejaVuSans-4b" transform="translate(190.869141 0)"/>
      </g>
     </g>
    </g>
    <g id="ytick_21">
     <g id="line2d_38">
      <g>
       <use xlink:href="#m614bc8b992" x="616.491475" y="446.658463" style="stroke: #000000; stroke-width: 0.8"/>
      </g>
     </g>
     <g id="text_47">
      <!-- 120K -->
      <g transform="translate(583.846163 450.457682) scale(0.1 -0.1)">
       <use xlink:href="#DejaVuSans-31"/>
       <use xlink:href="#DejaVuSans-32" transform="translate(63.623047 0)"/>
       <use xlink:href="#DejaVuSans-30" transform="translate(127.246094 0)"/>
       <use xlink:href="#DejaVuSans-4b" transform="translate(190.869141 0)"/>
      </g>
     </g>
    </g>
    <g id="text_48">
     <!-- Number of Records -->
     <g transform="translate(577.766475 649.462962) rotate(-90) scale(0.1 -0.1)">
      <use xlink:href="#DejaVuSans-4e"/>
      <use xlink:href="#DejaVuSans-75" transform="translate(74.804688 0)"/>
      <use xlink:href="#DejaVuSans-6d" transform="translate(138.183594 0)"/>
      <use xlink:href="#DejaVuSans-62" transform="translate(235.595703 0)"/>
      <use xlink:href="#DejaVuSans-65" transform="translate(299.072266 0)"/>
      <use xlink:href="#DejaVuSans-72" transform="translate(360.595703 0)"/>
      <use xlink:href="#DejaVuSans-20" transform="translate(401.708984 0)"/>
      <use xlink:href="#DejaVuSans-6f" transform="translate(433.496094 0)"/>
      <use xlink:href="#DejaVuSans-66" transform="translate(494.677734 0)"/>
      <use xlink:href="#DejaVuSans-20" transform="translate(529.882812 0)"/>
      <use xlink:href="#DejaVuSans-52" transform="translate(561.669922 0)"/>
      <use xlink:href="#DejaVuSans-65" transform="translate(626.652344 0)"/>
      <use xlink:href="#DejaVuSans-63" transform="translate(688.175781 0)"/>
      <use xlink:href="#DejaVuSans-6f" transform="translate(743.15625 0)"/>
      <use xlink:href="#DejaVuSans-72" transform="translate(804.337891 0)"/>
      <use xlink:href="#DejaVuSans-64" transform="translate(843.701172 0)"/>
      <use xlink:href="#DejaVuSans-73" transform="translate(907.177734 0)"/>
     </g>
    </g>
   </g>
   <g id="patch_31">
    <path d="M 616.491475 770.732325 
L 616.491475 432.263912 
" style="fill: none; stroke: #000000; stroke-width: 0.8; stroke-linejoin: miter; stroke-linecap: square"/>
   </g>
   <g id="patch_32">
    <path d="M 1134.834513 770.732325 
L 1134.834513 432.263912 
" style="fill: none; stroke: #000000; stroke-width: 0.8; stroke-linejoin: miter; stroke-linecap: square"/>
   </g>
   <g id="patch_33">
    <path d="M 616.491475 770.732325 
L 1134.834513 770.732325 
" style="fill: none; stroke: #000000; stroke-width: 0.8; stroke-linejoin: miter; stroke-linecap: square"/>
   </g>
   <g id="patch_34">
    <path d="M 616.491475 432.263912 
L 1134.834513 432.263912 
" style="fill: none; stroke: #000000; stroke-width: 0.8; stroke-linejoin: miter; stroke-linecap: square"/>
   </g>
   <g id="text_49">
    <!-- Geographic Coordinate Coverage -->
    <g transform="translate(763.792056 426.263912) scale(0.12 -0.12)">
     <defs>
      <path id="DejaVuSans-Bold-47" d="M 4781 347 
Q 4331 128 3847 18 
Q 3363 -91 2847 -91 
Q 1681 -91 1000 561 
Q 319 1213 319 2328 
Q 319 3456 1012 4103 
Q 1706 4750 2913 4750 
Q 3378 4750 3804 4662 
Q 4231 4575 4609 4403 
L 4609 3438 
Q 4219 3659 3833 3768 
Q 3447 3878 3059 3878 
Q 2341 3878 1952 3476 
Q 1563 3075 1563 2328 
Q 1563 1588 1938 1184 
Q 2313 781 3003 781 
Q 3191 781 3352 804 
Q 3513 828 3641 878 
L 3641 1784 
L 2906 1784 
L 2906 2591 
L 4781 2591 
L 4781 347 
z
" transform="scale(0.015625)"/>
      <path id="DejaVuSans-Bold-67" d="M 2919 594 
Q 2688 288 2409 144 
Q 2131 0 1766 0 
Q 1125 0 706 504 
Q 288 1009 288 1791 
Q 288 2575 706 3076 
Q 1125 3578 1766 3578 
Q 2131 3578 2409 3434 
Q 2688 3291 2919 2981 
L 2919 3500 
L 4044 3500 
L 4044 353 
Q 4044 -491 3511 -936 
Q 2978 -1381 1966 -1381 
Q 1638 -1381 1331 -1331 
Q 1025 -1281 716 -1178 
L 716 -306 
Q 1009 -475 1290 -558 
Q 1572 -641 1856 -641 
Q 2406 -641 2662 -400 
Q 2919 -159 2919 353 
L 2919 594 
z
M 2181 2772 
Q 1834 2772 1640 2515 
Q 1447 2259 1447 1791 
Q 1447 1309 1634 1061 
Q 1822 813 2181 813 
Q 2531 813 2725 1069 
Q 2919 1325 2919 1791 
Q 2919 2259 2725 2515 
Q 2531 2772 2181 2772 
z
" transform="scale(0.015625)"/>
      <path id="DejaVuSans-Bold-76" d="M 97 3500 
L 1216 3500 
L 2088 1081 
L 2956 3500 
L 4078 3500 
L 2700 0 
L 1472 0 
L 97 3500 
z
" transform="scale(0.015625)"/>
     </defs>
     <use xlink:href="#DejaVuSans-Bold-47"/>
     <use xlink:href="#DejaVuSans-Bold-65" transform="translate(82.080078 0)"/>
     <use xlink:href="#DejaVuSans-Bold-6f" transform="translate(149.902344 0)"/>
     <use xlink:href="#DejaVuSans-Bold-67" transform="translate(218.603516 0)"/>
     <use xlink:href="#DejaVuSans-Bold-72" transform="translate(290.185547 0)"/>
     <use xlink:href="#DejaVuSans-Bold-61" transform="translate(339.501953 0)"/>
     <use xlink:href="#DejaVuSans-Bold-70" transform="translate(406.982422 0)"/>
     <use xlink:href="#DejaVuSans-Bold-68" transform="translate(478.564453 0)"/>
     <use xlink:href="#DejaVuSans-Bold-69" transform="translate(549.755859 0)"/>
     <use xlink:href="#DejaVuSans-Bold-63" transform="translate(584.033203 0)"/>
     <use xlink:href="#DejaVuSans-Bold-20" transform="translate(643.310547 0)"/>
     <use xlink:href="#DejaVuSans-Bold-43" transform="translate(678.125 0)"/>
     <use xlink:href="#DejaVuSans-Bold-6f" transform="translate(751.513672 0)"/>
     <use xlink:href="#DejaVuSans-Bold-6f" transform="translate(820.214844 0)"/>
     <use xlink:href="#DejaVuSans-Bold-72" transform="translate(888.916016 0)"/>
     <use xlink:href="#DejaVuSans-Bold-64" transform="translate(938.232422 0)"/>
     <use xlink:href="#DejaVuSans-Bold-69" transform="translate(1009.814453 0)"/>
     <use xlink:href="#DejaVuSans-Bold-6e" transform="translate(1044.091797 0)"/>
     <use xlink:href="#DejaVuSans-Bold-61" transform="translate(1115.283203 0)"/>
     <use xlink:href="#DejaVuSans-Bold-74" transform="translate(1182.763672 0)"/>
     <use xlink:href="#DejaVuSans-Bold-65" transform="translate(1230.566406 0)"/>
     <use xlink:href="#DejaVuSans-Bold-20" transform="translate(1298.388672 0)"/>
     <use xlink:href="#DejaVuSans-Bold-43" transform="translate(1333.203125 0)"/>
     <use xlink:href="#DejaVuSans-Bold-6f" transform="translate(1406.591797 0)"/>
     <use xlink:href="#DejaVuSans-Bold-76" transform="translate(1475.292969 0)"/>
     <use xlink:href="#DejaVuSans-Bold-65" transform="translate(1540.478516 0)"/>
     <use xlink:href="#DejaVuSans-Bold-72" transform="translate(1608.300781 0)"/>
     <use xlink:href="#DejaVuSans-Bold-61" transform="translate(1657.617188 0)"/>
     <use xlink:href="#DejaVuSans-Bold-67" transform="translate(1725.097656 0)"/>
     <use xlink:href="#DejaVuSans-Bold-65" transform="translate(1796.679688 0)"/>
    </g>
   </g>
  </g>
 </g>
 <defs>
  <clipPath id="p9a1c6aa9cc">
   <rect x="616.491475" y="35.7555" width="518.343038" height="338.468412"/>
  </clipPath>
  <clipPath id="pa2f95199de">
   <rect x="40.798438" y="432.263912" width="518.343038" height="338.468412"/>
  </clipPath>
  <clipPath id="p8f3db72037">
   <rect x="616.491475" y="432.263912" width="518.343038" height="338.468412"/>
  </clipPath>
 </defs>
</svg>
